<?xml version="1.0" standalone="no"?><!DOCTYPE svg PUBLIC "-//W3C//DTD SVG 1.1//EN" "http://www.w3.org/Graphics/SVG/1.1/DTD/svg11.dtd"><svg width="200" height="200" viewBox="0 0 200 200" version="1.1" xmlns="http://www.w3.org/2000/svg" xmlns:xlink="http://www.w3.org/1999/xlink"><defs><style type="text/css"><![CDATA[
@font-face { font-family: ifont; src: url("http://at.alicdn.com/t/font_1442373896_4754455.eot?#iefix") format("embedded-opentype"), url("http://at.alicdn.com/t/font_1442373896_4754455.woff") format("woff"), url("http://at.alicdn.com/t/font_1442373896_4754455.ttf") format("truetype"), url("http://at.alicdn.com/t/font_1442373896_4754455.svg#ifont") format("svg"); }

]]></style></defs><g class="transform-group"><g transform="scale(0.1953125, 0.1953125)"><path d="M508.437935 821.946566q-21.372392 9.79568-40.073235 19.591359-16.029294 8.905163-32.058588 19.591359t-25.824973 23.153424q-8.905163 11.576712-8.459905 20.927134t5.788356 17.810326 14.693519 16.029294 17.365068 15.584036q8.905163 8.014647 4.007323 22.708166t-17.365068 27.160748-30.277555 17.810326-34.730137-6.233614q-17.810326-10.686196-36.511169-30.722813t-32.503846-44.080558-18.700843-48.53314 5.788356-44.971074 24.043941-42.744784 25.824973-40.073235q14.248261-21.372392 28.496522-41.854267 15.138777 4.452582 31.168071 9.79568 13.357745 4.452582 28.94178 12.02197t28.94178 16.474552q14.248261 9.79568 25.379715 20.481875t19.146101 19.591359q9.79568 9.79568 16.91981 20.481875zM695.446363 723.099254q16.029294 20.481875 32.058588 41.854267 13.357745 17.810326 27.606006 40.073235t24.934457 42.744784 5.788356 44.971074-18.700843 48.53314-32.503846 44.080558-35.620653 30.722813q-17.810326 11.576712-35.620653 6.233614t-30.277555-17.810326-17.365068-27.160748 4.007323-22.708166 17.810326-15.584036 14.693519-16.029294 5.788356-17.810326-8.905163-20.927134q-9.79568-12.467229-26.270232-23.153424t-32.503846-19.591359q-18.700843-9.79568-39.182718-19.591359 8.014647-10.686196 17.810326-20.481875 8.905163-8.905163 20.036617-19.146101t26.270232-20.036617q12.467229-8.905163 26.270232-16.029294t26.270232-12.467229q14.248261-6.233614 27.606006-10.686196zM861.082399 505.813271q19.591359 16.029294 21.81765 33.394362t-5.788356 30.277555-24.043941 19.146101-33.83962 0.890516q-17.810326-6.233614-37.401686-14.693519t-37.401686-17.365068q-20.481875-9.79568-40.073235-20.481875l-8.014647 129.124867q-18.700843 2.671549-41.854267 5.343098-20.481875 1.781033-49.423656 3.562065t-66.343466 1.781033-69.460273-1.781033-56.102528-3.562065q-28.496522-2.671549-51.649947-5.343098l0-137.139514q-21.372392 2.671549-44.525816 8.014647-20.481875 4.452582-46.306849 12.02197t-51.649947 19.146101q-26.71549 11.576712-45.861591 2.226291t-27.160748-28.051264-3.116807-39.627976 26.270232-31.613329q15.138777-7.124131 33.394362-17.365068t36.956427-21.372392 35.620653-22.262908 30.277555-19.146101q37.401686 50.75943 94.839988 81.482244t126.00806 30.722813q65.898208 0 121.11022-27.606006t93.504214-75.693887q6.233614 5.343098 19.591359 17.365068t30.277555 26.71549 35.175395 31.168071 35.175395 30.722813zM530.700843 447.039194q-46.306849 0-87.2706-17.365068t-71.241306-47.642623-47.642623-71.241306-17.365068-87.2706 17.365068-87.2706 47.642623-71.241306 71.241306-47.642623 87.2706-17.365068 87.2706 17.365068 71.241306 47.642623 47.642623 71.241306 17.365068 87.2706-17.365068 87.2706-47.642623 71.241306-71.241306 47.642623-87.2706 17.365068z" fill="#80DAEA"></path></g></g></svg>