<?xml version="1.0" standalone="no"?><!DOCTYPE svg PUBLIC "-//W3C//DTD SVG 1.1//EN" "http://www.w3.org/Graphics/SVG/1.1/DTD/svg11.dtd"><svg width="200" height="200" viewBox="0 0 200 200" version="1.1" xmlns="http://www.w3.org/2000/svg" xmlns:xlink="http://www.w3.org/1999/xlink"><defs><style type="text/css"><![CDATA[
@font-face { font-family: ifont; src: url("http://at.alicdn.com/t/font_1442373896_4754455.eot?#iefix") format("embedded-opentype"), url("http://at.alicdn.com/t/font_1442373896_4754455.woff") format("woff"), url("http://at.alicdn.com/t/font_1442373896_4754455.ttf") format("truetype"), url("http://at.alicdn.com/t/font_1442373896_4754455.svg#ifont") format("svg"); }

]]></style></defs><g class="transform-group"><g transform="scale(0.1953125, 0.1953125)"><path d="M868.815103 735.419466c-16.238846-61.414745-106.49036-102.106516-147.672294-117.735471 11.855002-11.473309 27.333532-27.888164 35.384905-42.330084 3.430122-6.15314 4.018523-13.201673 1.700735-20.386306-4.315282-13.368472-18.664082-27.461445-45.157479-44.353161-21.896706-13.960966-45.759183-25.682939-58.034764-31.426757-14.643512-6.850012-32.208563-21.844517-46.987151-40.108486-14.264888-17.628496-23.63735-35.69292-24.452925-47.142693-1.031493-14.43885 5.105275-27.930119 10.31595-36.567847 14.81645 11.333116 35.865859 26.561959 45.208645 29.181623 16.322757 4.582365 28.115338-5.103228 30.392194-7.169283 49.633421-43.614333 64.621786-95.732341 68.455091-131.787512 4.342912-40.85243-3.669576-78.220502-13.534248-97.131201-9.30697-17.83725-26.329668-33.982976-30.823006-38.074154-6.28003-8.271384-41.067324-49.41648-110.927415-47.402613-35.759435 1.032516-70.929446 16.007579-99.032504 42.167379-26.359344 24.540929-44.751227 56.784284-51.786457 90.793866-11.601222 56.095599-23.066345 62.170968-78.159104 91.361801l-1.484817 0.787946c-24.02109 12.729929-74.003458 39.217187-117.450992 73.93285-51.804876 41.390689-81.833797 84.288708-89.249697 127.498836-10.16757 59.239196 3.381004 116.638487 39.178301 165.995615 26.881231 37.063127 56.653301 56.473199 57.906851 57.281611 5.854335 3.770883 13.657045 2.082428 17.429974-3.771907 3.771907-5.855358 2.083451-13.659091-3.770883-17.429974-1.079588-0.694825-107.654882-70.992891-85.888136-197.810205 15.252379-88.869027 144.861272-157.554362 193.651488-183.411263l1.484817-0.786922c56.065923-29.707602 77.0437-40.822754 91.046622-108.540042 11.016915-53.254901 59.217706-110.907972 126.852106-112.859417 61.756529-1.785669 89.321328 36.297694 90.425476 37.861306l0.895393 1.295506 1.175779 1.033539c0.096191 0.084934 5.291516 4.680603 11.362792 11.405771-23.25361-0.944512-49.260937 9.328459-64.60439 25.824155 0.639566-2.381234 1.455141-4.77577 1.909489-6.119371 2.164293-6.370081 4.207835-12.386098 0.194428-17.986653-2.236947-3.123131-5.786797-4.912893-9.741875-4.912893-35.884278 0-51.691289 30.29498-54.325279 56.238862-8.703219 85.74078-22.286586 105.652272-31.275307 118.828362-1.970888 2.886747-3.831258 5.613858-5.550413 8.715499-2.839675 5.129834-0.986467 11.594059 4.145413 14.434757 1.632173 0.903579 3.396353 1.330298 5.136997 1.330298 3.736091 0 7.359618-1.976004 9.298783-5.475711 1.240247-2.237971 2.755764-4.462638 4.51278-7.0383 10.810207-15.84385 25.612331-37.543058 34.860972-128.651079 0.720408-7.099698 4.182252-27.2926 20.208251-34.528398-1.99647 7.612375-2.848884 16.540721 2.665713 24.032346 4.819772 6.54609 10.447956 7.965415 14.320147 8.002254 0.054235 0.001023 0.107447 0.001023 0.161682 0.001023 6.075369 0 11.831466-3.319605 16.651238-9.608845 12.81384-16.706497 39.892569-24.415063 57.134255-21.134343 5.557576 1.057075 9.682523 3.066849 12.355399 5.987365 5.311982 14.557554 11.124362 41.627073 7.554046 75.193563-3.360538 31.612998-16.519232 77.328179-60.114123 115.591645l-0.382717 0.349971c-0.026606 0.024559-2.945075 2.385327-6.381337 1.423419-5.564739-1.837858-28.749788-18.464537-46.910403-32.841989l-9.349949-7.402597-7.912204 8.92323c-1.059122 1.194198-25.904996 29.65132-23.396873 64.761979 2.428306 34.040281 42.307571 82.274842 76.360132 103.108333-29.261441-5.743818-68.77641-10.078543-88.025822-20.218484-37.879726-19.956517-61.500703-54.837956-70.049403-69.199035 2.307555-2.324952 4.594645-4.614088 6.855128-6.859221 0.916882-0.858554 1.833765-1.694595 2.749624-2.575662 0.405229-0.38988 0.76748-0.807389 1.108241-1.235131 11.872399-11.67797 22.99062-22.088064 32.801057-30.532387 5.278213-4.54348 5.875824-12.505825 1.333368-17.784038-4.54348-5.278213-12.508895-5.872754-17.784038-1.330298-10.915607 9.394974-23.412223 21.170159-36.763298 34.407648-28.615735 26.997887-60.440557 44.060495-94.64559 50.674123-25.948999 5.01727-43.73099 1.835811-44.13929 1.76111-6.814196-1.324158-13.423731 3.115967-14.770402 9.931187-1.351787 6.833639 3.091408 13.465686 9.923 14.817474 0.986467 0.195451 8.495488 1.591241 20.61348 1.591241 13.889335 0 33.831526-1.842974 56.905034-9.435906-49.945529 54.638411-96.765881 110.094444-109.968577 128.022769-25.552979 34.681894-15.980973 64.844867-3.245927 89.777723 11.739369 22.962991 126.468366 131.685181 157.410076 160.789033-13.883195 27.910677-25.768897 52.164057-30.274514 75.02881-4.193509 21.287839-2.589988 36.103266 4.904707 45.296649 4.864798 5.966898 11.317767 8.134261 15.84078 8.1711l308.184011 0 2.226714-0.87595c65.439408-25.774013 104.230899-54.958706 122.075313-91.850941C883.955942 832.354192 884.181069 793.538141 868.815103 735.419466zM427.885765 583.723531c14.287401 18.057261 43.192731 56.314587 57.622372 87.587847 14.572904 31.580253 13.812587 33.425274 1.11745 64.225767-1.807159 4.384867-3.901867 9.467629-6.199189 15.245216-12.109806-15.272845-33.104979-41.869596-43.317575-55.529711-5.741771-7.67275-13.9405-15.777335-22.62223-24.358781-10.682293-10.558473-28.52773-28.198226-28.693506-35.555797C386.676202 628.16879 405.341307 605.526093 427.885765 583.723531zM629.813754 657.68094c41.97295 4.028757 63.48694 62.463634 63.48694 62.463634 81.787748-34.248012 136.033209 34.283828 95.7876 83.621513-45.203528 55.404867-189.417047 72.522734-189.417047 72.522734s-25.834388-72.536037-33.362852-123.913171C558.781978 700.996468 587.839781 653.658324 629.813754 657.68094zM310.155411 657.178497c-11.819187-23.14207-15.429411-40.925085 1.092891-63.348794 10.54824-14.325263 42.922578-53.018517 81.017198-95.824439 2.971681 19.472494 12.850679 40.949644 24.803919 61.249993-5.15337 4.836145-15.09172 14.379499-25.149796 25.238824-27.782763 29.993105-31.345915 42.872436-31.345915 50.741661 0 17.830087 17.576307 35.201733 36.183084 53.594639 7.994068 7.899924 15.544021 15.363919 20.157085 21.527292 14.559601 19.473517 49.281403 63.062268 52.729945 67.388806-4.120854 9.605775-8.464789 18.912745-12.873192 28.030403C400.490835 752.662175 317.640895 671.823032 310.155411 657.178497z" fill="#9d55b8"></path></g></g></svg>