<?xml version="1.0" encoding="UTF-8" ?>
<!DOCTYPE svg PUBLIC "-//W3C//DTD SVG 1.1//EN" "http://www.w3.org/Graphics/SVG/1.1/DTD/svg11.dtd">
<svg width="56pt" height="56pt" viewBox="0 0 56 56" version="1.1" xmlns="http://www.w3.org/2000/svg">
<g id="#ff8888ff">
<path fill="#ff8888" opacity="1.00" d=" M 6.05 9.95 C 5.96 7.87 7.80 6.01 9.87 6.06 C 13.94 5.93 18.03 5.94 22.10 6.05 C 24.16 5.99 26.01 7.83 25.95 9.90 C 26.11 15.26 25.94 20.63 26.00 26.00 C 20.62 25.94 15.25 26.11 9.87 25.95 C 7.81 26.00 5.98 24.15 6.05 22.08 C 5.93 18.04 5.94 13.99 6.05 9.95 Z" />
<path fill="#ff8888" opacity="1.00" d=" M 30.05 9.92 C 29.94 7.34 32.57 5.66 34.93 6.00 C 39.16 6.14 43.49 5.58 47.65 6.36 C 51.26 8.16 49.65 12.86 50.02 16.06 C 49.74 19.34 51.29 24.75 46.92 25.85 C 41.30 26.23 35.64 25.89 30.00 26.00 C 30.06 20.64 29.89 15.27 30.05 9.92 Z" />
<path fill="#ff8888" opacity="1.00" d=" M 5.98 40.00 C 6.28 36.71 4.69 31.32 9.03 30.16 C 14.67 29.76 20.35 30.12 26.00 30.00 C 25.94 35.37 26.11 40.74 25.95 46.11 C 26.05 48.65 23.46 50.33 21.11 50.00 C 16.86 49.86 12.52 50.43 8.34 49.64 C 4.75 47.85 6.34 43.18 5.98 40.00 Z" />
<path fill="#ff8888" opacity="1.00" d=" M 30.00 30.00 C 35.36 30.06 40.72 29.89 46.07 30.05 C 48.15 29.98 50.02 31.83 49.95 33.91 C 50.06 37.96 50.06 42.02 49.95 46.06 C 50.03 48.16 48.17 50.02 46.08 49.95 C 42.03 50.06 37.96 50.06 33.91 49.95 C 31.83 50.02 29.97 48.16 30.05 46.08 C 29.89 40.72 30.06 35.36 30.00 30.00 Z" />
</g>
</svg>
