<?xml version="1.0" encoding="UTF-8" ?>
<!DOCTYPE svg PUBLIC "-//W3C//DTD SVG 1.1//EN" "http://www.w3.org/Graphics/SVG/1.1/DTD/svg11.dtd">
<svg width="56pt" height="56pt" viewBox="0 0 56 56" version="1.1" xmlns="http://www.w3.org/2000/svg">
<g id="#9ed969ff">
<path fill="#9ed969" opacity="1.00" d=" M 22.19 1.14 C 26.06 0.26 28.92 3.57 32.33 4.68 C 35.97 5.18 40.35 3.75 43.26 6.71 C 45.84 9.13 44.99 13.01 43.85 15.92 C 41.63 21.55 38.98 27.30 34.43 31.43 C 33.07 32.78 30.35 33.88 29.04 31.90 C 28.42 29.54 29.68 26.11 27.01 24.75 C 24.09 24.94 23.59 28.31 21.94 30.12 C 19.93 31.18 18.07 29.18 17.51 27.40 C 15.26 21.36 15.96 14.71 16.76 8.46 C 17.16 5.35 18.70 1.67 22.19 1.14 Z" />
<path fill="#9ed969" opacity="1.00" d=" M 7.37 30.10 C 8.62 26.79 13.05 28.32 15.76 28.00 C 15.98 34.46 21.34 40.39 27.98 40.35 C 34.80 40.68 40.51 34.65 40.72 28.00 C 43.30 28.28 47.42 26.89 48.59 30.06 C 49.66 36.98 50.14 44.01 50.91 50.98 C 51.37 52.84 50.23 55.18 48.06 54.97 C 34.69 55.02 21.31 55.02 7.94 54.97 C 5.80 55.19 4.59 52.88 5.08 51.02 C 5.83 44.05 6.32 37.03 7.37 30.10 Z" />
</g>
</svg>
