<?xml version="1.0" encoding="UTF-8" ?>
<!DOCTYPE svg PUBLIC "-//W3C//DTD SVG 1.1//EN" "http://www.w3.org/Graphics/SVG/1.1/DTD/svg11.dtd">
<svg width="56pt" height="56pt" viewBox="0 0 56 56" version="1.1" xmlns="http://www.w3.org/2000/svg">
<g id="#fafefeff">
<path fill="#fafefe" opacity="1.00" d=" M 15.96 5.42 C 16.41 5.30 17.31 5.04 17.76 4.92 C 17.81 5.20 17.91 5.77 17.96 6.05 C 18.84 10.26 19.71 14.93 23.14 17.89 C 26.51 20.89 32.28 20.62 35.21 17.13 C 37.90 14.04 38.45 9.82 39.09 5.92 L 39.24 4.97 C 39.68 5.20 40.57 5.66 41.02 5.89 C 40.68 10.38 39.68 15.13 36.67 18.63 C 32.82 23.13 25.17 23.11 21.13 18.88 C 17.80 15.41 16.54 10.52 16.01 5.86 L 15.96 5.42 Z" />
</g>
<g id="#80daeaff">
<path fill="#80daea" opacity="1.00" d=" M 7.07 9.94 C 9.10 7.07 12.71 6.20 16.01 5.86 C 16.54 10.52 17.80 15.41 21.13 18.88 C 25.17 23.11 32.82 23.13 36.67 18.63 C 39.68 15.13 40.68 10.38 41.02 5.89 C 43.95 6.47 47.15 7.34 48.93 9.97 C 51.60 13.73 51.08 18.63 50.50 22.94 C 49.29 31.49 47.46 40.27 42.71 47.63 C 41.05 50.06 38.37 52.90 35.11 51.77 C 32.64 50.91 33.02 47.72 32.17 45.70 C 31.81 43.19 29.14 39.91 26.42 41.63 C 23.15 43.67 23.95 48.20 22.06 51.09 C 19.12 53.47 15.40 50.86 13.73 48.22 C 8.60 40.78 6.76 31.66 5.49 22.87 C 4.92 18.56 4.42 13.72 7.07 9.94 Z" />
<path fill="#80daea" opacity="1.00" d=" M 26.06 8.39 C 30.57 9.15 34.74 6.68 39.09 5.92 C 38.45 9.82 37.90 14.04 35.21 17.13 C 32.28 20.62 26.51 20.89 23.14 17.89 C 19.71 14.93 18.84 10.26 17.96 6.05 C 20.61 7.01 23.34 7.69 26.06 8.39 Z" />
</g>
</svg>
