<?xml version="1.0" encoding="UTF-8" ?>
<!DOCTYPE svg PUBLIC "-//W3C//DTD SVG 1.1//EN" "http://www.w3.org/Graphics/SVG/1.1/DTD/svg11.dtd">
<svg width="56pt" height="56pt" viewBox="0 0 56 56" version="1.1" xmlns="http://www.w3.org/2000/svg">
<g id="#ae93e5ff">
<path fill="#ae93e5" opacity="1.00" d=" M 6.28 11.31 C 7.96 7.70 12.15 5.91 15.97 6.02 C 19.84 6.02 23.27 8.15 27.07 8.52 C 31.56 8.93 35.50 6.05 39.94 6.03 C 43.80 5.87 48.05 7.65 49.74 11.31 C 51.36 14.64 51.03 18.44 50.63 22.00 C 46.12 22.00 41.61 22.01 37.09 22.00 C 37.00 20.08 36.90 18.16 36.82 16.24 C 30.63 15.83 24.41 15.90 18.21 16.20 C 18.11 18.13 18.00 20.06 17.90 22.00 C 13.73 22.01 9.55 22.00 5.38 22.00 C 4.96 18.44 4.64 14.63 6.28 11.31 Z" />
<path fill="#ae93e5" opacity="1.00" d=" M 20.02 17.95 C 25.01 17.92 29.99 17.92 34.98 17.95 C 35.02 20.98 35.02 24.02 34.98 27.05 C 29.99 27.08 25.01 27.08 20.02 27.05 C 19.98 24.02 19.98 20.98 20.02 17.95 Z" />
<path fill="#ae93e5" opacity="1.00" d=" M 5.65 24.01 C 9.72 24.00 13.79 23.99 17.85 24.00 C 18.00 25.62 18.16 27.24 18.31 28.86 C 24.45 29.06 30.61 29.15 36.76 28.80 C 36.88 27.20 37.01 25.60 37.13 24.00 C 41.54 23.99 45.95 24.00 50.36 24.01 C 49.12 32.20 47.27 40.59 42.70 47.64 C 41.07 50.04 38.42 52.85 35.19 51.80 C 32.62 51.01 33.01 47.77 32.21 45.72 C 31.79 43.25 29.25 39.97 26.51 41.58 C 23.09 43.58 24.02 48.24 22.03 51.12 C 19.38 53.25 15.87 51.24 14.21 48.85 C 8.89 41.68 7.01 32.65 5.65 24.01 Z" />
</g>
<g id="#ffffffff">
<path fill="#ffffff" opacity="1.00" d=" M 18.21 16.20 C 24.41 15.90 30.63 15.83 36.82 16.24 C 36.90 18.16 37.00 20.08 37.09 22.00 C 41.61 22.01 46.12 22.00 50.63 22.00 C 52.03 22.01 53.42 22.02 54.82 22.04 C 54.81 22.53 54.78 23.49 54.77 23.98 C 53.30 23.99 51.83 24.00 50.36 24.01 C 45.95 24.00 41.54 23.99 37.13 24.00 C 37.01 25.60 36.88 27.20 36.76 28.80 C 30.61 29.15 24.45 29.06 18.31 28.86 C 18.16 27.24 18.00 25.62 17.85 24.00 C 13.79 23.99 9.72 24.00 5.65 24.01 C 4.17 24.00 2.69 23.98 1.21 23.96 C 1.22 23.48 1.23 22.51 1.23 22.03 C 2.61 22.01 4.00 22.00 5.38 22.00 C 9.55 22.00 13.73 22.01 17.90 22.00 C 18.00 20.06 18.11 18.13 18.21 16.20 M 20.02 17.95 C 19.98 20.98 19.98 24.02 20.02 27.05 C 25.01 27.08 29.99 27.08 34.98 27.05 C 35.02 24.02 35.02 20.98 34.98 17.95 C 29.99 17.92 25.01 17.92 20.02 17.95 Z" />
</g>
</svg>
