<?xml version="1.0" encoding="UTF-8" ?>
<!DOCTYPE svg PUBLIC "-//W3C//DTD SVG 1.1//EN" "http://www.w3.org/Graphics/SVG/1.1/DTD/svg11.dtd">
<svg width="56pt" height="56pt" viewBox="0 0 56 56" version="1.1" xmlns="http://www.w3.org/2000/svg">
<g id="#fca66dff">
<path fill="#fca66d" opacity="1.00" d=" M 5.26 13.50 C 5.75 9.09 9.50 5.64 13.83 5.15 C 19.10 4.15 23.77 7.92 28.98 7.52 C 33.44 6.98 37.61 4.30 42.22 5.16 C 46.31 5.63 49.98 8.76 50.62 12.90 C 51.64 19.39 49.78 25.87 48.70 32.24 C 45.95 31.70 42.41 32.01 40.64 29.35 C 38.65 25.95 38.69 21.70 36.52 18.39 C 33.83 15.55 30.11 18.15 27.03 18.68 C 24.10 18.16 20.82 15.77 18.04 18.01 C 15.14 21.37 15.76 26.51 13.02 29.99 C 11.54 31.51 9.31 31.69 7.34 32.07 C 6.15 25.97 4.59 19.74 5.26 13.50 Z" />
<path fill="#fca66d" opacity="1.00" d=" M 19.37 19.39 C 22.58 18.15 25.58 21.81 28.80 20.37 C 30.75 19.93 32.71 18.55 34.75 19.36 C 37.01 22.86 36.82 27.42 39.24 30.85 C 41.33 33.53 44.95 33.96 48.11 34.13 C 46.42 39.56 44.54 45.31 40.36 49.37 C 38.65 51.19 35.13 51.84 33.54 49.57 C 32.29 46.60 32.57 42.55 29.55 40.61 C 27.77 39.33 25.59 40.81 24.68 42.44 C 23.56 44.67 23.38 47.22 22.48 49.54 C 20.94 51.83 17.40 51.21 15.70 49.40 C 11.48 45.33 9.57 39.56 7.90 34.08 C 10.43 33.66 13.25 33.06 14.89 30.89 C 17.32 27.47 17.17 22.92 19.37 19.39 Z" />
</g>
<g id="#fffdfcff">
<path fill="#fffdfc" opacity="1.00" d=" M 18.04 18.01 C 20.82 15.77 24.10 18.16 27.03 18.68 C 30.11 18.15 33.83 15.55 36.52 18.39 C 38.69 21.70 38.65 25.95 40.64 29.35 C 42.41 32.01 45.95 31.70 48.70 32.24 L 49.16 33.41 L 48.11 34.13 C 44.95 33.96 41.33 33.53 39.24 30.85 C 36.82 27.42 37.01 22.86 34.75 19.36 C 32.71 18.55 30.75 19.93 28.80 20.37 C 25.58 21.81 22.58 18.15 19.37 19.39 C 17.17 22.92 17.32 27.47 14.89 30.89 C 13.25 33.06 10.43 33.66 7.90 34.08 C 6.56 34.24 5.92 33.64 5.98 32.28 L 7.34 32.07 C 9.31 31.69 11.54 31.51 13.02 29.99 C 15.76 26.51 15.14 21.37 18.04 18.01 Z" />
</g>
</svg>
