<?xml version="1.0" encoding="UTF-8" ?>
<!DOCTYPE svg PUBLIC "-//W3C//DTD SVG 1.1//EN" "http://www.w3.org/Graphics/SVG/1.1/DTD/svg11.dtd">
<svg width="56pt" height="56pt" viewBox="0 0 56 56" version="1.1" xmlns="http://www.w3.org/2000/svg">
<g id="#9ed969ff">
<path fill="#9ed969" opacity="1.00" d=" M 11.55 5.73 C 16.08 3.91 20.71 5.97 25.08 7.16 C 31.50 9.02 37.47 3.16 43.91 5.54 C 48.91 6.74 51.38 12.14 50.95 16.94 C 50.17 26.95 48.32 37.25 43.13 46.00 C 41.39 48.87 38.06 52.42 34.40 50.45 C 31.87 47.93 33.08 43.26 30.04 40.96 C 28.96 39.88 27.10 39.87 26.00 40.93 C 23.42 43.04 23.69 46.74 22.46 49.58 C 21.06 51.60 17.87 51.33 16.17 49.80 C 13.08 47.27 11.35 43.51 9.85 39.90 C 7.03 32.61 5.61 24.82 5.05 17.04 C 4.66 12.43 6.80 7.17 11.55 5.73 Z" />
</g>
</svg>
