<?xml version="1.0" encoding="UTF-8" ?>
<!DOCTYPE svg PUBLIC "-//W3C//DTD SVG 1.1//EN" "http://www.w3.org/Graphics/SVG/1.1/DTD/svg11.dtd">
<svg width="56pt" height="56pt" viewBox="0 0 56 56" version="1.1" xmlns="http://www.w3.org/2000/svg">
<g id="#80daeaff">
<path fill="#80daea" opacity="1.00" d=" M 28.96 3.12 C 29.51 1.92 30.64 0.97 32.02 1.03 C 35.81 1.01 38.94 3.42 42.01 5.33 C 38.97 5.06 35.95 5.48 32.95 5.90 C 31.17 6.36 29.01 5.04 28.96 3.12 Z" />
<path fill="#80daea" opacity="1.00" d=" M 0.00 18.38 C 0.15 14.02 2.70 9.59 7.16 8.53 C 13.56 6.17 19.51 12.00 25.90 10.15 C 30.49 8.86 35.50 6.78 40.17 9.00 C 44.87 10.81 46.42 16.36 45.92 20.96 C 45.01 30.43 43.24 40.12 38.46 48.47 C 36.82 51.04 34.56 54.28 31.11 53.98 C 27.81 53.88 28.00 49.91 27.15 47.62 C 26.69 45.40 24.77 42.51 22.17 43.29 C 18.73 44.61 18.82 48.85 17.72 51.78 C 17.24 54.10 14.24 54.45 12.43 53.58 C 9.83 52.26 8.22 49.67 6.83 47.21 C 2.54 38.99 0.98 29.69 0.00 20.56 L 0.00 18.38 M 28.18 20.25 C 26.23 23.41 26.64 28.05 29.63 30.42 C 32.94 33.23 39.36 32.31 40.65 27.79 C 41.90 24.37 39.44 21.26 38.85 18.00 C 38.66 15.92 39.47 13.91 39.83 11.89 C 35.45 13.81 30.73 15.98 28.18 20.25 Z" />
<path fill="#80daea" opacity="1.00" d=" M 44.60 8.81 C 47.44 9.15 50.71 8.84 53.04 10.84 C 54.99 12.40 55.65 14.94 56.00 17.31 L 56.00 18.08 C 55.04 21.95 49.07 21.89 47.78 18.31 C 46.75 15.09 47.88 10.97 44.60 8.81 Z" />
<path fill="#80daea" opacity="1.00" d=" M 29.16 25.98 C 28.16 20.96 32.89 17.68 36.58 15.40 C 36.24 19.45 39.31 22.93 38.79 26.89 C 37.67 31.68 29.76 30.63 29.16 25.98 Z" />
</g>
<g id="#feffffff">
<path fill="#feffff" opacity="1.00" d=" M 28.18 20.25 C 30.73 15.98 35.45 13.81 39.83 11.89 C 39.47 13.91 38.66 15.92 38.85 18.00 C 39.44 21.26 41.90 24.37 40.65 27.79 C 39.36 32.31 32.94 33.23 29.63 30.42 C 26.64 28.05 26.23 23.41 28.18 20.25 M 29.16 25.98 C 29.76 30.63 37.67 31.68 38.79 26.89 C 39.31 22.93 36.24 19.45 36.58 15.40 C 32.89 17.68 28.16 20.96 29.16 25.98 Z" />
</g>
</svg>
