<?xml version="1.0" encoding="UTF-8" ?>
<!DOCTYPE svg PUBLIC "-//W3C//DTD SVG 1.1//EN" "http://www.w3.org/Graphics/SVG/1.1/DTD/svg11.dtd">
<svg width="56pt" height="56pt" viewBox="0 0 56 56" version="1.1" xmlns="http://www.w3.org/2000/svg">
<g id="#fccb46ff">
<path fill="#fccb46" opacity="1.00" d=" M 11.47 6.75 C 16.01 4.88 20.67 6.95 25.06 8.14 C 30.58 9.84 35.60 5.57 41.10 6.03 C 44.62 6.22 48.26 8.03 49.77 11.35 C 51.60 15.26 50.93 19.72 50.38 23.84 C 49.05 32.54 47.15 41.62 41.82 48.83 C 40.16 51.22 36.61 53.26 33.97 51.12 C 31.97 47.88 32.75 41.91 27.95 41.06 C 23.87 41.86 23.80 46.72 22.69 49.87 C 22.06 52.41 18.54 52.49 16.73 51.20 C 13.48 48.92 11.69 45.17 10.14 41.63 C 7.13 34.13 5.63 26.08 5.06 18.05 C 4.68 13.46 6.75 8.22 11.47 6.75 M 16.72 12.81 C 16.66 16.00 14.10 17.51 11.17 17.71 C 12.33 18.04 13.49 18.33 14.67 18.57 C 15.06 18.93 15.85 19.67 16.24 20.04 C 16.36 20.88 16.60 22.57 16.72 23.42 C 17.18 22.31 17.56 21.18 17.91 20.03 C 18.26 19.66 18.94 18.91 19.29 18.54 C 20.46 18.34 21.62 18.07 22.77 17.73 C 19.90 17.44 17.27 16.04 17.20 12.83 C 17.08 12.82 16.84 12.81 16.72 12.81 M 35.95 17.82 C 35.27 18.59 34.58 19.35 33.89 20.10 C 32.34 20.17 30.72 20.17 29.65 21.46 C 31.38 21.99 33.57 21.57 34.93 22.99 C 36.43 24.30 36.16 26.46 36.55 28.22 C 38.02 27.31 37.77 25.54 37.96 24.06 C 39.57 22.12 41.99 21.76 44.34 21.39 C 42.76 20.13 40.53 20.28 38.96 19.06 C 37.68 17.45 37.68 15.25 36.93 13.39 C 36.54 14.85 36.22 16.33 35.95 17.82 Z" />
</g>
</svg>
