<?xml version="1.0" encoding="UTF-8" ?>
<!DOCTYPE svg PUBLIC "-//W3C//DTD SVG 1.1//EN" "http://www.w3.org/Graphics/SVG/1.1/DTD/svg11.dtd">
<svg width="56pt" height="56pt" viewBox="0 0 56 56" version="1.1" xmlns="http://www.w3.org/2000/svg">
<g id="#fc896fff">
<path fill="#fc896f" opacity="1.00" d=" M 11.48 6.76 C 15.99 4.91 20.65 6.93 25.01 8.15 C 31.44 10.05 37.42 4.18 43.87 6.53 C 48.91 7.73 51.43 13.18 50.96 18.02 C 50.11 28.23 48.26 38.82 42.72 47.62 C 41.02 50.42 37.25 53.61 34.01 51.14 C 32.21 48.56 32.80 44.80 30.54 42.42 C 29.59 41.32 27.87 40.63 26.55 41.55 C 23.42 43.44 23.76 47.60 22.45 50.59 C 21.06 52.59 17.90 52.33 16.21 50.83 C 12.90 48.11 11.11 44.04 9.56 40.15 C 6.94 33.04 5.57 25.50 5.05 17.95 C 4.69 13.39 6.80 8.21 11.48 6.76 M 15.35 9.29 C 12.40 10.63 14.92 15.38 17.65 13.68 C 20.65 12.37 18.10 7.68 15.35 9.29 M 11.37 16.37 C 8.64 22.27 10.37 29.09 12.94 34.73 C 12.68 30.84 12.04 26.91 12.58 23.02 C 12.81 20.53 14.42 18.50 15.03 16.13 C 14.26 14.53 11.93 14.73 11.37 16.37 Z" />
</g>
<g id="#ffffffff">
<path fill="#ffffff" opacity="1.00" d=" M 15.35 9.29 C 18.10 7.68 20.65 12.37 17.65 13.68 C 14.92 15.38 12.40 10.63 15.35 9.29 Z" />
<path fill="#ffffff" opacity="1.00" d=" M 11.37 16.37 C 11.93 14.73 14.26 14.53 15.03 16.13 C 14.42 18.50 12.81 20.53 12.58 23.02 C 12.04 26.91 12.68 30.84 12.94 34.73 C 10.37 29.09 8.64 22.27 11.37 16.37 Z" />
</g>
</svg>
