<?xml version="1.0" encoding="UTF-8" ?>
<!DOCTYPE svg PUBLIC "-//W3C//DTD SVG 1.1//EN" "http://www.w3.org/Graphics/SVG/1.1/DTD/svg11.dtd">
<svg width="56pt" height="56pt" viewBox="0 0 56 56" version="1.1" xmlns="http://www.w3.org/2000/svg">
<g id="#fca66dff">
<path fill="#fca66d" opacity="1.00" d=" M 14.35 6.54 C 17.99 5.13 21.68 6.84 25.19 7.75 C 29.98 9.11 34.32 5.16 39.10 6.16 C 41.71 6.57 44.25 8.19 45.20 10.75 C 46.72 14.68 45.61 18.95 45.07 22.96 C 43.94 29.12 42.39 35.51 38.51 40.58 C 37.17 42.41 34.63 43.82 32.45 42.48 C 30.60 39.95 31.47 35.44 27.89 34.23 C 22.35 34.20 25.61 43.51 20.07 42.99 C 17.59 42.52 16.08 40.21 14.85 38.20 C 11.13 31.41 9.67 23.63 9.03 15.99 C 8.61 12.15 10.36 7.70 14.35 6.54 Z" />
<path fill="#fca66d" opacity="1.00" d=" M 6.07 25.25 C 7.41 24.18 9.52 26.21 7.92 27.36 C 6.61 28.54 4.46 26.30 6.07 25.25 Z" />
<path fill="#fca66d" opacity="1.00" d=" M 6.99 29.42 C 8.61 28.94 9.16 29.51 8.63 31.13 C 7.01 31.60 6.46 31.03 6.99 29.42 Z" />
<path fill="#fca66d" opacity="1.00" d=" M 46.41 29.12 C 48.01 28.59 48.55 29.15 48.04 30.80 C 46.44 31.33 45.90 30.77 46.41 29.12 Z" />
<path fill="#fca66d" opacity="1.00" d=" M 7.99 33.31 C 9.60 32.81 10.16 33.37 9.66 35.00 C 8.05 35.50 7.49 34.94 7.99 33.31 Z" />
<path fill="#fca66d" opacity="1.00" d=" M 45.36 33.02 C 46.95 32.46 47.52 33.00 47.06 34.64 C 45.46 35.21 44.89 34.66 45.36 33.02 Z" />
<path fill="#fca66d" opacity="1.00" d=" M 44.10 36.57 C 45.47 35.44 47.52 37.81 45.81 38.75 C 44.40 39.82 42.47 37.63 44.10 36.57 Z" />
<path fill="#fca66d" opacity="1.00" d=" M 10.64 40.56 C 11.80 39.29 14.15 41.33 12.67 42.53 C 11.42 43.85 9.42 41.83 10.64 40.56 Z" />
<path fill="#fca66d" opacity="1.00" d=" M 43.70 42.64 C 41.90 43.06 41.60 40.04 43.12 39.61 C 44.68 39.52 45.43 42.27 43.70 42.64 Z" />
<path fill="#fca66d" opacity="1.00" d=" M 12.60 44.08 C 15.54 41.38 15.50 48.66 12.61 45.87 C 12.61 45.42 12.60 44.53 12.60 44.08 Z" />
<path fill="#fca66d" opacity="1.00" d=" M 29.28 44.39 C 30.91 43.89 31.47 44.45 30.95 46.05 C 29.32 46.55 28.76 45.99 29.28 44.39 Z" />
<path fill="#fca66d" opacity="1.00" d=" M 40.54 44.09 C 41.29 42.79 43.34 44.13 42.44 45.34 C 41.68 46.65 39.63 45.29 40.54 44.09 Z" />
<path fill="#fca66d" opacity="1.00" d=" M 38.10 46.66 C 39.40 45.44 41.58 47.66 39.96 48.73 C 38.64 49.79 36.47 47.81 38.10 46.66 Z" />
<path fill="#fca66d" opacity="1.00" d=" M 21.24 47.12 C 22.21 45.44 24.56 47.49 23.39 48.85 C 22.33 50.53 20.20 48.50 21.24 47.12 Z" />
<path fill="#fca66d" opacity="1.00" d=" M 31.87 47.36 C 33.45 46.76 34.05 47.28 33.66 48.93 C 32.07 49.53 31.48 49.01 31.87 47.36 Z" />
</g>
<g id="#dc905fdf">
<path fill="#dc905f" opacity="0.87" d=" M 47.19 25.19 C 48.81 24.67 49.36 25.22 48.84 26.85 C 47.21 27.38 46.66 26.82 47.19 25.19 Z" />
</g>
<g id="#ad724bb0">
<path fill="#ad724b" opacity="0.69" d=" M 9.23 37.11 C 10.87 36.62 11.43 37.18 10.91 38.82 C 9.28 39.29 8.72 38.72 9.23 37.11 Z" />
<path fill="#ad724b" opacity="0.69" d=" M 24.25 44.17 C 25.89 43.63 26.44 44.18 25.91 45.82 C 24.27 46.33 23.72 45.78 24.25 44.17 Z" />
<path fill="#ad724b" opacity="0.69" d=" M 15.20 47.07 C 16.82 46.56 17.40 47.12 16.92 48.76 C 15.32 49.26 14.74 48.69 15.20 47.07 Z" />
<path fill="#ad724b" opacity="0.69" d=" M 18.24 48.20 C 19.87 47.65 20.44 48.20 19.92 49.84 C 18.29 50.36 17.73 49.81 18.24 48.20 Z" />
<path fill="#ad724b" opacity="0.69" d=" M 35.21 48.18 C 36.83 47.66 37.38 48.21 36.87 49.86 C 35.24 50.37 34.69 49.81 35.21 48.18 Z" />
</g>
</svg>
