<?xml version="1.0" encoding="UTF-8" ?>
<!DOCTYPE svg PUBLIC "-//W3C//DTD SVG 1.1//EN" "http://www.w3.org/Graphics/SVG/1.1/DTD/svg11.dtd">
<svg width="56pt" height="56pt" viewBox="0 0 56 56" version="1.1" xmlns="http://www.w3.org/2000/svg">
<g id="#fccb46ff">
<path fill="#fccb46" opacity="1.00" d=" M 13.35 1.55 C 17.66 -0.06 21.91 2.25 26.07 3.19 C 30.92 4.28 35.21 0.54 40.05 1.04 C 43.03 1.27 46.16 2.72 47.59 5.47 C 49.15 8.33 49.12 11.72 48.77 14.87 C 48.05 20.99 46.95 27.11 44.87 32.92 C 44.55 34.70 41.89 35.59 40.86 33.92 C 39.44 29.33 38.82 24.48 36.97 20.01 C 34.09 18.10 30.29 19.34 27.04 18.99 C 24.50 19.28 21.30 18.21 19.25 20.12 C 17.21 24.81 17.03 30.14 14.88 34.74 C 12.87 35.74 11.07 33.93 10.82 32.00 C 8.83 25.16 7.13 18.12 7.04 10.96 C 7.03 6.94 9.22 2.63 13.35 1.55 Z" />
<path fill="#fccb46" opacity="1.00" d=" M 21.19 25.25 C 25.76 24.79 30.42 24.91 35.00 25.17 C 39.11 26.18 37.75 31.27 37.94 34.35 C 37.45 34.35 36.46 34.36 35.97 34.36 C 35.61 32.03 36.83 28.99 34.96 27.16 C 30.42 27.04 25.67 26.55 21.22 27.41 C 19.56 29.56 19.69 32.67 18.82 35.20 C 24.71 36.16 30.74 34.83 36.60 36.03 C 33.61 42.24 25.62 41.52 19.86 42.29 C 19.94 43.36 20.47 44.06 21.44 44.38 C 25.91 46.05 31.00 44.71 35.29 47.05 C 34.76 48.86 33.20 49.78 31.55 50.41 C 31.02 57.18 21.15 55.69 18.91 50.91 C 18.09 48.73 20.40 47.37 21.63 45.98 C 18.49 46.88 16.14 41.85 19.40 40.59 C 23.93 39.44 28.96 40.17 33.12 37.62 C 28.74 37.38 24.35 37.72 19.98 37.44 C 17.82 37.55 16.44 35.17 17.22 33.27 C 18.07 30.50 17.90 26.34 21.19 25.25 M 22.08 47.88 C 25.46 48.06 28.87 48.71 32.25 48.08 C 28.95 47.58 25.23 46.26 22.08 47.88 M 20.48 49.34 C 21.71 52.97 28.03 54.76 29.85 50.71 C 26.73 50.23 23.62 49.72 20.48 49.34 Z" />
</g>
</svg>
