<?xml version="1.0" encoding="UTF-8" ?>
<!DOCTYPE svg PUBLIC "-//W3C//DTD SVG 1.1//EN" "http://www.w3.org/Graphics/SVG/1.1/DTD/svg11.dtd">
<svg width="78pt" height="78pt" viewBox="0 0 78 78" version="1.1" xmlns="http://www.w3.org/2000/svg">
<g id="#00a0e9ff">
<path fill="#00a0e9" opacity="1.00" d=" M 4.15 0.00 L 73.80 0.00 C 75.64 0.75 77.04 2.19 78.00 3.90 L 78.00 52.46 C 69.34 49.99 60.93 46.75 52.37 43.97 C 55.31 38.77 57.35 33.11 58.70 27.29 C 53.41 27.12 48.13 27.25 42.84 27.21 C 42.85 25.88 42.85 24.55 42.85 23.23 C 49.42 23.23 56.00 23.20 62.58 23.25 C 62.62 21.95 62.68 20.64 62.71 19.34 C 56.09 19.26 49.46 19.33 42.84 19.30 C 42.85 16.67 42.88 14.04 42.95 11.41 C 40.27 11.38 37.60 11.38 34.92 11.39 C 34.93 14.03 34.95 16.66 35.02 19.29 C 28.41 19.34 21.80 19.25 15.19 19.35 C 15.22 20.64 15.24 21.92 15.25 23.21 C 21.85 23.25 28.45 23.18 35.04 23.26 C 35.04 24.57 35.04 25.89 35.04 27.20 C 29.75 27.24 24.46 27.17 19.17 27.25 C 19.20 28.55 19.23 29.85 19.26 31.14 C 29.09 31.17 38.93 31.10 48.76 31.18 C 47.85 34.69 46.61 38.12 44.96 41.35 C 38.43 39.47 31.79 37.80 25.00 37.28 C 18.76 36.78 12.24 39.37 8.18 44.16 C 3.24 50.04 5.64 60.23 12.71 63.27 C 21.63 67.11 32.73 65.46 40.13 59.14 C 43.15 56.69 45.58 53.62 47.83 50.47 C 57.97 55.06 67.95 59.97 78.00 64.74 L 78.00 74.20 C 77.04 75.81 75.75 77.22 74.01 78.00 L 4.10 78.00 C 2.28 77.25 1.04 75.71 0.00 74.10 L 0.00 3.97 C 1.04 2.33 2.36 0.84 4.15 0.00 Z" />
<path fill="#00a0e9" opacity="1.00" d=" M 10.10 47.14 C 12.90 44.19 17.07 42.98 21.01 42.60 C 27.99 41.93 34.62 44.77 40.77 47.70 C 36.21 52.46 31.74 58.33 24.90 59.68 C 20.04 60.09 14.66 59.38 10.77 56.21 C 8.02 54.08 7.64 49.63 10.10 47.14 Z" />
</g>
</svg>
