<?xml version="1.0" encoding="UTF-8" ?>
<!DOCTYPE svg PUBLIC "-//W3C//DTD SVG 1.1//EN" "http://www.w3.org/Graphics/SVG/1.1/DTD/svg11.dtd">
<svg width="165pt" height="165pt" viewBox="0 0 165 165" version="1.1" xmlns="http://www.w3.org/2000/svg">
<g id="#ff5858ff">
<path fill="#ff5858" opacity="1.00" d=" M 78.62 0.00 L 86.14 0.00 C 105.13 0.97 123.75 8.44 137.80 21.30 C 154.22 35.98 164.19 57.44 165.00 79.44 L 165.00 85.53 C 164.27 103.74 157.46 121.64 145.67 135.55 C 131.12 153.07 109.09 163.86 86.38 165.00 L 78.76 165.00 C 60.55 164.04 42.67 157.13 28.87 145.17 C 11.48 130.45 0.82 108.29 0.00 85.54 L 0.00 79.44 C 0.82 56.94 11.26 35.01 28.32 20.30 C 42.17 8.08 60.23 1.03 78.62 0.00 M 76.17 42.28 C 60.68 43.92 46.66 54.95 41.53 69.67 C 37.25 81.20 38.48 94.61 44.78 105.19 C 51.53 116.97 64.35 124.98 77.91 125.88 C 88.01 126.65 98.42 123.57 106.37 117.26 C 108.45 115.33 105.13 111.88 103.10 113.92 C 98.06 117.46 92.29 120.09 86.13 120.85 C 72.36 122.93 57.83 116.31 50.25 104.65 C 43.62 94.80 42.24 81.68 46.74 70.68 C 49.87 62.60 56.05 55.83 63.64 51.71 C 72.48 46.94 83.29 46.05 92.80 49.27 C 103.44 52.81 112.24 61.50 115.88 72.11 C 119.24 81.51 118.48 92.21 114.04 101.13 C 112.23 103.52 116.26 106.29 117.86 103.83 C 126.52 88.81 123.91 68.53 112.16 55.87 C 103.28 45.89 89.44 40.67 76.17 42.28 M 75.45 59.51 C 68.60 61.07 62.41 67.60 63.35 74.94 C 63.40 77.45 67.13 78.59 68.41 76.30 C 69.16 74.28 68.44 71.88 69.74 70.02 C 73.47 63.49 83.22 62.85 88.87 67.15 C 92.01 69.46 92.89 74.89 89.59 77.45 C 85.62 80.53 79.81 81.64 77.53 86.58 C 76.29 89.88 76.72 93.56 76.96 97.01 C 78.05 98.96 80.94 98.97 82.05 97.03 C 82.71 94.11 81.46 90.78 83.00 88.10 C 86.30 84.87 91.33 84.01 94.40 80.42 C 98.18 76.35 97.95 69.67 94.77 65.32 C 90.40 59.53 82.22 57.95 75.45 59.51 M 78.38 101.44 C 75.59 102.15 74.68 106.19 76.95 108.00 C 78.94 109.95 82.72 108.76 83.25 106.02 C 84.05 103.27 81.07 100.48 78.38 101.44 Z" />
</g>
<g id="#ffffffff">
<path fill="#ffffff" opacity="1.00" d=" M 76.17 42.28 C 89.44 40.67 103.28 45.89 112.16 55.87 C 123.91 68.53 126.52 88.81 117.86 103.83 C 116.26 106.29 112.23 103.52 114.04 101.13 C 118.48 92.21 119.24 81.51 115.88 72.11 C 112.24 61.50 103.44 52.81 92.80 49.27 C 83.29 46.05 72.48 46.94 63.64 51.71 C 56.05 55.83 49.87 62.60 46.74 70.68 C 42.24 81.68 43.62 94.80 50.25 104.65 C 57.83 116.31 72.36 122.93 86.13 120.85 C 92.29 120.09 98.06 117.46 103.10 113.92 C 105.13 111.88 108.45 115.33 106.37 117.26 C 98.42 123.57 88.01 126.65 77.91 125.88 C 64.35 124.98 51.53 116.97 44.78 105.19 C 38.48 94.61 37.25 81.20 41.53 69.67 C 46.66 54.95 60.68 43.92 76.17 42.28 Z" />
<path fill="#ffffff" opacity="1.00" d=" M 75.45 59.51 C 82.22 57.95 90.40 59.53 94.77 65.32 C 97.95 69.67 98.18 76.35 94.40 80.42 C 91.33 84.01 86.30 84.87 83.00 88.10 C 81.46 90.78 82.71 94.11 82.05 97.03 C 80.94 98.97 78.05 98.96 76.96 97.01 C 76.72 93.56 76.29 89.88 77.53 86.58 C 79.81 81.64 85.62 80.53 89.59 77.45 C 92.89 74.89 92.01 69.46 88.87 67.15 C 83.22 62.85 73.47 63.49 69.74 70.02 C 68.44 71.88 69.16 74.28 68.41 76.30 C 67.13 78.59 63.40 77.45 63.35 74.94 C 62.41 67.60 68.60 61.07 75.45 59.51 Z" />
<path fill="#ffffff" opacity="1.00" d=" M 78.38 101.44 C 81.07 100.48 84.05 103.27 83.25 106.02 C 82.72 108.76 78.94 109.95 76.95 108.00 C 74.68 106.19 75.59 102.15 78.38 101.44 Z" />
</g>
</svg>
