<?xml version="1.0" standalone="no"?><!DOCTYPE svg PUBLIC "-//W3C//DTD SVG 1.1//EN" "http://www.w3.org/Graphics/SVG/1.1/DTD/svg11.dtd"><svg width="200" height="200" viewBox="0 0 200 200" version="1.1" xmlns="http://www.w3.org/2000/svg" xmlns:xlink="http://www.w3.org/1999/xlink"><defs><style type="text/css"><![CDATA[
@font-face { font-family: ifont; src: url("http://at.alicdn.com/t/font_1442373896_4754455.eot?#iefix") format("embedded-opentype"), url("http://at.alicdn.com/t/font_1442373896_4754455.woff") format("woff"), url("http://at.alicdn.com/t/font_1442373896_4754455.ttf") format("truetype"), url("http://at.alicdn.com/t/font_1442373896_4754455.svg#ifont") format("svg"); }

]]></style></defs><g class="transform-group"><g transform="scale(0.1953125, 0.1953125)"><path d="M342.677 595.002M512 927C282.804 927 97 741.2 97 512 97 282.804 282.804 97 512 97c229.2 0 415 185.804 415 415C927 741.2 741.2 927 512 927zM744.919 390.243l-29.112-28.502c-16.081-15.741-42.152-15.741-58.229 0L453.771 561.252l-87.345-85.507c-16.081-15.741-42.152-15.741-58.229 0l-29.116 28.502c-16.081 15.741-16.081 41.263 0 57.004l116.457 114c0 0.004 0 0.004 0 0.004l29.116 28.502c16.081 15.741 42.152 15.741 58.233 0l262.031-256.511C761 431.502 761 405.984 744.919 390.243z" fill="#999"></path></g></g></svg>