<?xml version="1.0" encoding="UTF-8" ?>
<!DOCTYPE svg PUBLIC "-//W3C//DTD SVG 1.1//EN" "http://www.w3.org/Graphics/SVG/1.1/DTD/svg11.dtd">
<svg width="20pt" height="20pt" viewBox="0 0 20 20" version="1.1" xmlns="http://www.w3.org/2000/svg">
<g id="#5fcd5cff">
<path fill="#5fcd5c" opacity="1.00" d=" M 8.72 0.00 L 10.54 0.00 C 15.26 0.30 19.23 4.03 20.00 8.66 L 20.00 11.10 C 19.43 15.61 15.79 19.22 11.35 20.00 L 8.93 20.00 C 4.22 19.40 0.34 15.44 0.00 10.69 L 0.00 8.90 C 0.58 4.37 4.26 0.77 8.72 0.00 M 3.53 8.01 C 3.53 8.75 3.53 10.24 3.53 10.99 C 7.85 11.01 12.18 11.00 16.51 11.00 C 16.54 10.01 16.55 9.02 16.55 8.02 C 12.21 7.98 7.87 8.00 3.53 8.01 Z" />
</g>
<g id="#ffffffff">
<path fill="#ffffff" opacity="1.00" d=" M 3.53 8.01 C 7.87 8.00 12.21 7.98 16.55 8.02 C 16.55 9.02 16.54 10.01 16.51 11.00 C 12.18 11.00 7.85 11.01 3.53 10.99 C 3.53 10.24 3.53 8.75 3.53 8.01 Z" />
</g>
</svg>
