<?xml version="1.0" encoding="UTF-8" ?>
<!DOCTYPE svg PUBLIC "-//W3C//DTD SVG 1.1//EN" "http://www.w3.org/Graphics/SVG/1.1/DTD/svg11.dtd">
<svg width="40pt" height="40pt" viewBox="0 0 40 40" version="1.1" xmlns="http://www.w3.org/2000/svg">
<g id="#ff8888ff">
<path fill="#ff8888" opacity="1.00" d=" M 14.01 0.97 C 17.51 -0.06 21.33 0.35 24.93 0.61 C 26.90 0.79 27.19 3.73 25.32 4.41 C 21.79 4.78 18.18 4.79 14.64 4.39 C 13.23 3.51 13.02 2.37 14.01 0.97 Z" />
<path fill="#ff8888" opacity="1.00" d=" M 1.26 5.20 C 1.74 1.04 6.79 1.93 9.76 1.80 C 10.43 3.36 10.70 5.95 12.94 5.94 C 17.64 6.24 22.38 6.24 27.08 5.94 C 29.31 5.95 29.54 3.34 30.21 1.80 C 33.14 1.96 37.95 1.11 38.84 4.91 C 39.21 15.68 38.67 26.49 39.09 37.27 C 37.73 38.66 36.08 39.86 34.02 39.62 C 24.34 39.61 14.66 39.78 4.99 39.54 C 2.05 39.69 0.86 36.49 1.06 34.05 C 1.20 24.44 0.80 14.79 1.26 5.20 M 9.35 12.18 C 9.22 12.65 8.97 13.59 8.84 14.06 C 13.80 15.18 18.94 14.26 23.98 14.58 C 26.09 14.24 32.11 15.83 30.90 12.15 C 26.99 11.27 22.95 11.92 18.98 11.75 C 15.78 11.86 12.48 11.31 9.35 12.18 M 10.35 19.61 C 7.94 19.32 8.97 22.84 10.99 22.21 C 17.28 22.27 23.60 22.46 29.88 22.11 C 32.69 21.84 30.81 18.93 28.92 19.43 C 22.73 19.52 16.51 19.15 10.35 19.61 M 9.21 27.34 C 9.29 27.88 9.45 28.96 9.53 29.50 C 13.98 30.03 18.50 29.54 22.97 29.72 C 25.73 29.64 28.65 30.17 31.24 28.97 C 30.73 25.91 27.17 27.10 25.02 26.86 C 19.77 27.23 14.36 26.25 9.21 27.34 Z" />
</g>
</svg>
