<?xml version="1.0" encoding="UTF-8" ?>
<!DOCTYPE svg PUBLIC "-//W3C//DTD SVG 1.1//EN" "http://www.w3.org/Graphics/SVG/1.1/DTD/svg11.dtd">
<svg width="40pt" height="40pt" viewBox="0 0 40 40" version="1.1" xmlns="http://www.w3.org/2000/svg">
<g id="#fccb46ff">
<path fill="#fccb46" opacity="1.00" d=" M 1.05 0.00 L 38.93 0.00 C 38.99 13.33 38.90 26.67 38.97 40.00 L 38.45 40.00 C 36.26 38.74 34.16 37.31 32.02 35.95 C 30.46 37.32 28.88 38.67 27.29 40.00 L 25.76 40.00 C 23.69 38.74 21.69 37.37 19.71 35.99 C 17.84 37.31 16.05 38.76 14.12 40.00 L 12.68 40.00 C 10.89 38.82 9.18 37.54 7.45 36.28 C 5.59 37.55 3.73 38.81 1.82 40.00 L 1.05 40.00 C 1.06 26.67 1.07 13.33 1.05 0.00 M 17.92 4.82 C 17.99 6.12 18.04 7.43 18.09 8.73 C 17.32 8.74 15.76 8.75 14.99 8.76 C 14.69 7.73 14.40 6.70 14.10 5.67 C 13.27 5.67 11.60 5.66 10.77 5.66 C 11.20 6.65 11.63 7.64 12.05 8.63 C 11.26 8.68 9.68 8.77 8.89 8.82 C 8.89 9.33 8.90 10.37 8.91 10.88 C 11.83 10.89 14.76 10.87 17.68 10.89 C 17.48 11.46 17.07 12.59 16.87 13.16 C 13.86 13.19 10.85 13.17 7.85 13.17 C 7.83 13.71 7.80 14.77 7.78 15.30 C 10.27 15.29 12.75 15.23 15.23 15.22 C 13.63 18.62 7.57 17.73 7.63 21.89 C 10.01 20.84 12.56 20.76 15.04 21.51 C 15.12 23.75 13.74 25.89 11.55 26.55 C 10.29 27.40 7.48 27.24 8.44 29.69 C 12.94 29.14 18.78 26.89 18.44 21.38 C 20.44 21.38 22.45 21.37 24.45 21.39 C 24.45 22.78 24.47 24.17 24.39 25.55 C 24.44 27.32 22.00 26.56 20.94 26.91 C 20.94 27.47 20.95 28.59 20.95 29.15 C 22.87 29.02 24.96 29.41 26.72 28.46 C 28.80 26.33 27.44 23.02 27.75 20.39 C 29.29 20.90 30.84 21.39 32.40 21.86 C 32.53 17.86 26.52 18.73 25.26 15.20 C 27.60 15.25 29.94 15.28 32.29 15.31 C 32.26 14.77 32.22 13.71 32.20 13.17 C 28.26 13.16 24.33 13.21 20.39 13.18 C 20.65 12.64 21.17 11.56 21.44 11.02 C 24.66 10.72 27.91 10.94 31.14 10.90 C 31.15 10.37 31.18 9.31 31.19 8.78 C 30.34 8.76 28.63 8.73 27.77 8.72 C 28.09 7.95 28.74 6.41 29.06 5.64 C 26.34 4.85 25.17 6.32 24.83 8.75 C 23.72 8.75 22.62 8.75 21.51 8.74 C 21.60 7.43 21.66 6.12 21.70 4.81 C 20.76 4.81 18.87 4.82 17.92 4.82 Z" />
<path fill="#fccb46" opacity="1.00" d=" M 19.64 15.26 C 20.05 15.29 20.88 15.35 21.29 15.38 C 22.58 16.77 24.00 18.03 25.41 19.30 C 21.83 19.09 18.25 19.11 14.67 19.30 C 16.37 18.01 18.13 16.78 19.64 15.26 Z" />
</g>
</svg>
