<?xml version="1.0" encoding="UTF-8" ?>
<!DOCTYPE svg PUBLIC "-//W3C//DTD SVG 1.1//EN" "http://www.w3.org/Graphics/SVG/1.1/DTD/svg11.dtd">
<svg width="50pt" height="50pt" viewBox="0 0 50 50" version="1.1" xmlns="http://www.w3.org/2000/svg">
<g id="#a0a0a0fe">
<path fill="#a0a0a0" opacity="1.00" d=" M 20.68 0.00 L 30.03 0.00 C 32.61 0.68 35.08 2.40 35.73 5.12 C 36.53 12.14 36.65 20.55 30.63 25.45 C 39.20 26.87 48.73 32.18 50.00 41.60 L 50.00 44.59 C 49.44 47.37 47.25 49.38 44.52 50.00 L 5.73 50.00 C 2.94 49.55 0.79 47.55 0.00 44.87 L 0.00 41.78 C 1.19 31.95 11.29 26.56 20.19 25.31 C 14.34 20.34 14.47 12.04 15.29 5.07 C 15.91 2.45 18.28 0.84 20.68 0.00 M 17.00 12.00 C 22.67 12.00 28.33 12.00 34.00 12.00 C 33.99 8.68 34.79 3.94 30.93 2.39 C 27.39 1.74 23.58 1.74 20.05 2.40 C 16.21 3.98 17.01 8.67 17.00 12.00 M 16.88 13.00 C 17.22 15.25 17.29 17.60 18.38 19.66 C 19.67 22.80 22.79 24.52 25.41 26.41 C 28.11 24.56 31.32 22.88 32.62 19.68 C 33.71 17.61 33.78 15.25 34.12 13.00 C 28.37 13.00 22.63 13.00 16.88 13.00 M 18.51 27.68 C 10.87 29.08 2.21 34.36 1.98 42.97 C 1.57 45.80 4.13 48.29 6.93 47.99 C 19.00 48.01 31.09 48.02 43.17 47.98 C 45.42 48.15 47.79 46.54 47.96 44.18 C 48.67 37.99 43.93 32.75 38.72 30.18 C 32.51 27.17 25.26 25.91 18.51 27.68 Z" />
<path fill="#a0a0a0" opacity="1.00" d=" M 25.00 3.00 L 26.00 3.00 C 26.00 3.75 26.00 5.25 26.00 6.00 C 26.75 6.00 28.25 6.00 29.00 6.00 L 29.00 7.00 C 28.25 7.00 26.75 7.00 26.00 7.00 C 26.00 7.75 26.00 9.25 26.00 10.00 L 25.00 10.00 C 25.00 9.25 25.00 7.75 25.00 7.00 C 24.25 7.00 22.75 7.00 22.00 7.00 L 22.00 6.00 C 22.75 6.00 24.25 6.00 25.00 6.00 C 25.00 5.25 25.00 3.75 25.00 3.00 Z" />
</g>
</svg>
