<?xml version="1.0" encoding="UTF-8" ?>
<!DOCTYPE svg PUBLIC "-//W3C//DTD SVG 1.1//EN" "http://www.w3.org/Graphics/SVG/1.1/DTD/svg11.dtd">
<svg width="50pt" height="50pt" viewBox="0 0 50 50" version="1.1" xmlns="http://www.w3.org/2000/svg">
<g id="#29c1d7ff">
<path fill="#29c1d7" opacity="1.00" d=" M 20.59 0.00 L 30.09 0.00 C 31.63 0.63 33.35 1.18 34.40 2.57 C 36.44 4.88 35.87 8.17 36.09 11.00 C 29.03 11.00 21.97 11.00 14.91 11.00 C 15.13 8.39 14.63 5.48 16.15 3.18 C 17.13 1.55 18.95 0.78 20.59 0.00 M 25.00 2.00 C 25.00 2.75 25.00 4.25 25.00 5.00 C 24.25 5.00 22.75 5.00 22.00 5.00 L 22.00 6.00 C 22.75 6.00 24.25 6.00 25.00 6.00 C 25.00 6.75 25.00 8.25 25.00 9.00 L 26.00 9.00 C 26.00 8.25 26.00 6.75 26.00 6.00 C 26.75 6.00 28.25 6.00 29.00 6.00 L 29.00 5.00 C 28.25 5.00 26.75 5.00 26.00 5.00 C 26.00 4.25 26.00 2.75 26.00 2.00 L 25.00 2.00 Z" />
<path fill="#29c1d7" opacity="1.00" d=" M 14.84 12.01 C 21.95 11.99 29.05 11.99 36.16 12.01 C 36.06 17.03 34.67 22.33 30.45 25.47 C 39.28 26.72 49.24 32.44 50.00 42.24 L 50.00 44.68 C 49.36 47.38 47.26 49.31 44.61 50.00 L 5.62 50.00 C 2.89 49.47 0.81 47.51 0.00 44.88 L 0.00 41.58 C 1.39 31.86 11.38 26.44 20.31 25.34 C 16.31 22.10 14.92 16.96 14.84 12.01 Z" />
</g>
</svg>
