<?xml version="1.0" encoding="UTF-8" ?>
<!DOCTYPE svg PUBLIC "-//W3C//DTD SVG 1.1//EN" "http://www.w3.org/Graphics/SVG/1.1/DTD/svg11.dtd">
<svg width="75pt" height="72pt" viewBox="0 0 75 72" version="1.1" xmlns="http://www.w3.org/2000/svg">
<g id="#fffff">
<path fill="#fff" opacity="1.00" d=" M 6.63 0.00 L 46.52 0.00 C 48.34 0.94 48.47 4.28 46.06 4.33 C 33.44 4.73 20.79 4.26 8.17 4.53 C 5.80 4.38 4.25 6.72 4.54 8.92 C 4.49 26.61 4.56 44.30 4.51 61.99 C 4.57 63.74 4.44 65.99 6.24 66.96 C 7.73 67.64 9.43 67.41 11.02 67.50 C 29.38 67.40 47.74 67.55 66.09 67.43 C 68.04 67.66 70.07 66.17 69.98 64.11 C 70.36 52.28 69.65 40.40 70.30 28.59 C 70.74 28.24 71.62 27.53 72.06 27.18 L 74.32 28.42 L 74.97 36.50 L 75.00 29.93 L 75.00 62.38 L 74.17 56.58 C 76.11 62.20 74.87 70.88 67.96 72.00 L 6.91 72.00 C 3.40 71.54 0.62 68.80 0.00 65.33 L 0.00 6.80 C 0.51 3.34 3.23 0.66 6.63 0.00 Z" />
<path fill="#fff" opacity="1.00" d=" M 59.95 3.78 C 61.84 1.65 65.12 0.91 67.62 2.40 C 70.70 4.50 73.57 7.24 75.00 10.75 L 75.00 12.90 C 74.00 15.97 71.35 17.95 69.18 20.17 C 58.79 30.45 48.41 40.74 38.07 51.07 C 37.11 52.05 35.99 52.91 34.62 53.21 C 30.06 54.39 25.55 55.87 20.89 56.63 C 20.56 56.24 19.90 55.47 19.56 55.08 C 20.27 50.86 21.67 46.79 22.73 42.65 C 23.10 40.96 23.91 39.42 25.20 38.26 C 36.82 26.80 48.36 15.26 59.95 3.78 M 59.95 10.21 C 62.08 12.33 64.19 14.46 66.30 16.61 C 67.85 15.06 69.41 13.52 70.97 11.97 C 69.69 9.47 67.70 6.98 65.07 5.89 C 62.89 6.57 61.60 8.73 59.95 10.21 M 56.57 13.54 C 47.54 22.51 38.53 31.50 29.46 40.43 C 31.58 42.59 33.73 44.72 35.89 46.85 C 44.92 37.89 53.94 28.93 62.97 19.97 C 60.84 17.82 58.72 15.67 56.57 13.54 M 26.78 43.61 C 26.04 46.27 25.33 48.94 24.59 51.59 C 27.28 50.91 29.95 50.18 32.63 49.45 C 30.68 47.50 28.72 45.57 26.78 43.61 Z" />
</g>
</svg>
