<?xml version="1.0" encoding="UTF-8" ?>
<!DOCTYPE svg PUBLIC "-//W3C//DTD SVG 1.1//EN" "http://www.w3.org/Graphics/SVG/1.1/DTD/svg11.dtd">
<svg width="110pt" height="110pt" viewBox="0 0 110 110" version="1.1" xmlns="http://www.w3.org/2000/svg">
<g id="#1fc1d9ff">
<path fill="#1fc1d9" opacity="1.00" d=" M 23.76 6.79 C 37.86 -0.34 54.44 -0.76 69.80 1.46 C 83.83 3.38 97.54 11.41 103.75 24.52 C 110.54 38.40 110.68 54.54 108.95 69.58 C 106.44 72.33 104.79 75.67 102.84 78.80 C 100.17 82.98 95.42 84.87 91.45 87.51 C 88.97 88.86 89.10 92.01 88.29 94.37 C 87.44 98.78 84.22 102.08 81.71 105.62 C 80.48 106.08 79.22 106.48 77.98 106.89 C 75.27 102.72 72.46 98.56 68.93 95.03 C 67.52 93.52 65.82 92.17 64.99 90.22 C 69.56 86.47 75.11 82.54 75.73 76.13 C 76.60 68.27 70.51 62.19 65.14 57.38 C 65.48 55.28 67.06 52.66 65.10 50.90 C 60.45 46.75 54.74 43.58 51.59 37.98 C 52.36 37.30 53.13 36.61 53.90 35.93 C 56.49 36.97 59.58 39.33 62.28 37.32 C 65.21 34.85 67.29 31.56 69.59 28.55 C 71.83 25.64 72.66 21.41 71.04 18.04 C 69.26 15.17 66.46 13.09 63.61 11.37 C 59.56 8.85 53.62 9.80 50.66 13.58 C 48.02 16.82 46.34 20.70 44.68 24.50 C 41.70 32.23 31.50 34.59 29.72 43.01 C 28.72 46.52 31.66 49.46 31.86 52.83 C 30.17 56.84 27.06 60.45 27.04 65.00 C 27.00 67.41 28.95 69.17 30.94 70.15 C 35.59 72.53 40.57 74.16 45.48 75.91 C 44.36 82.36 38.50 87.18 38.82 94.02 C 39.76 99.51 42.58 104.46 44.55 109.63 C 40.67 108.47 36.62 108.08 32.75 106.92 C 20.26 103.54 9.47 94.32 4.79 82.18 C -0.44 68.57 -0.76 53.44 1.57 39.19 C 3.70 25.85 11.39 12.92 23.76 6.79 Z" />
<path fill="#1fc1d9" opacity="1.00" d=" M 39.74 57.88 C 41.54 60.88 43.05 64.06 44.17 67.39 C 41.50 66.24 39.18 64.49 37.06 62.53 C 37.93 60.97 38.87 59.45 39.74 57.88 Z" />
</g>
<g id="#ffffffff">
<path fill="#ffffff" opacity="1.00" d=" M 50.66 13.58 C 53.62 9.80 59.56 8.85 63.61 11.37 C 66.46 13.09 69.26 15.17 71.04 18.04 C 72.66 21.41 71.83 25.64 69.59 28.55 C 67.29 31.56 65.21 34.85 62.28 37.32 C 59.58 39.33 56.49 36.97 53.90 35.93 C 53.13 36.61 52.36 37.30 51.59 37.98 C 54.74 43.58 60.45 46.75 65.10 50.90 C 67.06 52.66 65.48 55.28 65.14 57.38 C 70.51 62.19 76.60 68.27 75.73 76.13 C 75.11 82.54 69.56 86.47 64.99 90.22 C 65.82 92.17 67.52 93.52 68.93 95.03 C 72.46 98.56 75.27 102.72 77.98 106.89 C 78.67 107.94 79.38 108.98 80.13 110.00 L 45.55 110.00 C 45.30 109.91 44.80 109.72 44.55 109.63 C 42.58 104.46 39.76 99.51 38.82 94.02 C 38.50 87.18 44.36 82.36 45.48 75.91 C 40.57 74.16 35.59 72.53 30.94 70.15 C 28.95 69.17 27.00 67.41 27.04 65.00 C 27.06 60.45 30.17 56.84 31.86 52.83 C 31.66 49.46 28.72 46.52 29.72 43.01 C 31.50 34.59 41.70 32.23 44.68 24.50 C 46.34 20.70 48.02 16.82 50.66 13.58 M 39.74 57.88 C 38.87 59.45 37.93 60.97 37.06 62.53 C 39.18 64.49 41.50 66.24 44.17 67.39 C 43.05 64.06 41.54 60.88 39.74 57.88 Z" />
</g>
<g id="#51d6eaff">
<path fill="#51d6ea" opacity="1.00" d=" M 102.84 78.80 C 104.79 75.67 106.44 72.33 108.95 69.58 C 106.99 85.26 96.91 100.20 81.71 105.62 C 84.22 102.08 87.44 98.78 88.29 94.37 C 89.10 92.01 88.97 88.86 91.45 87.51 C 95.42 84.87 100.17 82.98 102.84 78.80 Z" />
</g>
</svg>
