<?xml version="1.0" encoding="UTF-8" ?>
<!DOCTYPE svg PUBLIC "-//W3C//DTD SVG 1.1//EN" "http://www.w3.org/Graphics/SVG/1.1/DTD/svg11.dtd">
<svg width="52pt" height="52pt" viewBox="0 0 52 52" version="1.1" xmlns="http://www.w3.org/2000/svg">
<g id="#5cc4e2ff">
<path fill="#5cc4e2" opacity="1.00" d=" M 24.12 0.00 L 27.40 0.00 C 40.14 0.53 51.16 11.41 52.00 24.10 L 52.00 27.26 C 51.57 40.05 40.64 51.16 27.89 52.00 L 24.40 52.00 C 11.63 51.35 0.60 40.31 0.00 27.53 L 0.00 24.26 C 0.73 11.65 11.53 0.83 24.12 0.00 M 8.60 10.45 C 13.47 15.32 18.15 20.38 23.04 25.24 C 18.07 30.49 13.00 35.66 8.14 41.02 C 9.97 40.99 11.80 40.97 13.62 40.92 C 17.67 36.50 21.70 32.06 25.84 27.73 C 29.91 32.20 34.15 36.51 38.22 40.98 C 40.09 40.98 41.96 40.98 43.83 40.99 C 38.70 35.85 33.80 30.49 28.59 25.44 C 33.19 20.36 38.06 15.55 42.62 10.44 C 40.85 10.44 39.09 10.46 37.34 10.45 C 33.43 14.51 29.72 18.76 25.81 22.82 C 21.97 18.71 18.05 14.67 14.27 10.50 C 12.38 10.45 10.49 10.46 8.60 10.45 Z" />
</g>
<g id="#e2f9f5ff">
<path fill="#e2f9f5" opacity="1.00" d=" M 8.60 10.45 C 10.49 10.46 12.38 10.45 14.27 10.50 C 18.05 14.67 21.97 18.71 25.81 22.82 C 29.72 18.76 33.43 14.51 37.34 10.45 C 39.09 10.46 40.85 10.44 42.62 10.44 C 38.06 15.55 33.19 20.36 28.59 25.44 C 33.80 30.49 38.70 35.85 43.83 40.99 C 41.96 40.98 40.09 40.98 38.22 40.98 C 34.15 36.51 29.91 32.20 25.84 27.73 C 21.70 32.06 17.67 36.50 13.62 40.92 C 11.80 40.97 9.97 40.99 8.14 41.02 C 13.00 35.66 18.07 30.49 23.04 25.24 C 18.15 20.38 13.47 15.32 8.60 10.45 Z" />
</g>
</svg>
