<?xml version="1.0" encoding="UTF-8" ?>
<!DOCTYPE svg PUBLIC "-//W3C//DTD SVG 1.1//EN" "http://www.w3.org/Graphics/SVG/1.1/DTD/svg11.dtd">
<svg width="132pt" height="52pt" viewBox="0 0 132 52" version="1.1" xmlns="http://www.w3.org/2000/svg">
<g id="#ba0f17ff">
<path fill="#ba0f17" opacity="1.00" d=" M 6.53 0.00 L 125.28 0.00 C 128.57 0.79 131.04 3.29 132.00 6.50 L 132.00 42.88 C 130.22 44.69 128.65 47.21 125.94 47.64 C 121.68 48.33 117.35 48.00 113.05 48.02 C 78.34 47.94 43.63 48.05 8.93 47.99 C 5.12 48.37 2.29 45.72 0.00 43.07 L 0.00 6.70 C 0.81 3.42 3.31 0.95 6.53 0.00 M 47.47 12.04 C 44.68 16.54 41.16 20.55 36.98 23.81 C 37.59 24.53 38.21 25.24 38.83 25.96 C 43.00 22.45 46.53 18.26 49.37 13.60 C 48.74 13.08 48.10 12.56 47.47 12.04 M 52.47 12.57 C 54.91 18.04 58.96 22.65 64.10 25.73 C 64.73 24.95 65.37 24.17 66.00 23.39 C 61.11 20.81 57.02 16.85 54.72 11.78 C 54.16 11.97 53.03 12.37 52.47 12.57 M 77.87 12.83 C 78.29 13.41 79.14 14.58 79.56 15.16 C 75.25 15.18 70.93 15.17 66.62 15.17 C 66.63 15.72 66.63 16.82 66.63 17.37 C 76.03 17.39 85.44 17.39 94.85 17.37 C 94.84 16.82 94.83 15.72 94.82 15.17 C 90.74 15.17 86.66 15.17 82.57 15.18 C 81.71 13.86 80.84 12.55 79.97 11.24 C 79.45 11.64 78.40 12.43 77.87 12.83 M 70.61 19.00 C 70.61 21.47 70.62 23.95 70.67 26.42 C 71.42 26.09 72.91 25.42 73.66 25.08 C 78.24 24.97 82.82 24.96 87.40 25.08 C 88.45 25.52 89.51 25.95 90.58 26.35 C 90.62 23.90 90.63 21.45 90.63 19.00 C 83.96 19.00 77.29 19.00 70.61 19.00 M 40.99 24.62 C 40.99 25.21 41.00 26.40 41.00 27.00 C 42.86 27.00 44.73 27.01 46.59 27.04 C 46.42 32.52 42.72 37.04 37.68 38.89 C 38.15 39.41 39.10 40.45 39.58 40.98 C 41.92 39.62 44.41 38.33 46.12 36.16 C 48.27 33.61 48.67 30.17 49.17 27.00 C 51.92 27.00 54.67 27.00 57.42 27.01 C 57.32 29.93 57.54 32.93 56.79 35.78 C 55.51 38.71 51.46 36.72 49.03 37.17 C 49.48 38.66 50.07 40.16 51.95 39.80 C 54.78 40.19 58.66 39.64 59.38 36.31 C 60.09 32.46 59.87 28.51 60.04 24.62 C 53.69 24.62 47.34 24.62 40.99 24.62 M 69.00 27.00 C 69.00 27.50 69.00 28.50 69.00 29.00 C 74.77 29.05 80.56 28.85 86.32 29.26 C 83.69 29.89 80.73 30.10 78.82 32.28 C 74.66 32.44 70.50 32.36 66.34 32.39 L 66.39 34.62 C 70.86 34.63 75.32 34.62 79.78 34.63 C 79.60 35.80 79.41 36.97 79.22 38.13 C 77.47 37.98 75.72 37.83 73.97 37.65 C 74.05 38.36 74.20 39.78 74.28 40.49 C 76.75 40.42 79.23 40.28 81.64 39.72 C 81.83 38.02 81.99 36.31 82.14 34.61 C 86.42 34.63 90.71 34.62 94.99 34.63 C 95.00 34.07 95.01 32.94 95.01 32.38 C 90.58 32.37 86.14 32.34 81.71 32.44 C 84.75 31.51 87.80 30.61 90.82 29.63 C 90.83 28.97 90.84 27.66 90.84 27.00 C 83.56 26.99 76.28 27.00 69.00 27.00 Z" />
<path fill="#ba0f17" opacity="1.00" d=" M 73.00 21.00 C 78.06 21.00 83.11 21.00 88.17 21.00 C 88.17 21.50 88.17 22.50 88.17 23.00 C 83.11 23.00 78.06 23.00 73.00 23.00 C 73.00 22.50 73.00 21.50 73.00 21.00 Z" />
</g>
<g id="#fcfaf7ff">
<path fill="#fcfaf7" opacity="1.00" d=" M 47.47 12.04 C 48.10 12.56 48.74 13.08 49.37 13.60 C 46.53 18.26 43.00 22.45 38.83 25.96 C 38.21 25.24 37.59 24.53 36.98 23.81 C 41.16 20.55 44.68 16.54 47.47 12.04 Z" />
<path fill="#fcfaf7" opacity="1.00" d=" M 52.47 12.57 C 53.03 12.37 54.16 11.97 54.72 11.78 C 57.02 16.85 61.11 20.81 66.00 23.39 C 65.37 24.17 64.73 24.95 64.10 25.73 C 58.96 22.65 54.91 18.04 52.47 12.57 Z" />
<path fill="#fcfaf7" opacity="1.00" d=" M 77.87 12.83 C 78.40 12.43 79.45 11.64 79.97 11.24 C 80.84 12.55 81.71 13.86 82.57 15.18 C 86.66 15.17 90.74 15.17 94.82 15.17 C 94.83 15.72 94.84 16.82 94.85 17.37 C 85.44 17.39 76.03 17.39 66.63 17.37 C 66.63 16.82 66.63 15.72 66.62 15.17 C 70.93 15.17 75.25 15.18 79.56 15.16 C 79.14 14.58 78.29 13.41 77.87 12.83 Z" />
<path fill="#fcfaf7" opacity="1.00" d=" M 70.61 19.00 C 77.29 19.00 83.96 19.00 90.63 19.00 C 90.63 21.45 90.62 23.90 90.58 26.35 C 89.51 25.95 88.45 25.52 87.40 25.08 C 82.82 24.96 78.24 24.97 73.66 25.08 C 72.91 25.42 71.42 26.09 70.67 26.42 C 70.62 23.95 70.61 21.47 70.61 19.00 M 73.00 21.00 C 73.00 21.50 73.00 22.50 73.00 23.00 C 78.06 23.00 83.11 23.00 88.17 23.00 C 88.17 22.50 88.17 21.50 88.17 21.00 C 83.11 21.00 78.06 21.00 73.00 21.00 Z" />
<path fill="#fcfaf7" opacity="1.00" d=" M 40.99 24.62 C 47.34 24.62 53.69 24.62 60.04 24.62 C 59.87 28.51 60.09 32.46 59.38 36.31 C 58.66 39.64 54.78 40.19 51.95 39.80 C 50.07 40.16 49.48 38.66 49.03 37.17 C 51.46 36.72 55.51 38.71 56.79 35.78 C 57.54 32.93 57.32 29.93 57.42 27.01 C 54.67 27.00 51.92 27.00 49.17 27.00 C 48.67 30.17 48.27 33.61 46.12 36.16 C 44.41 38.33 41.92 39.62 39.58 40.98 C 39.10 40.45 38.15 39.41 37.68 38.89 C 42.72 37.04 46.42 32.52 46.59 27.04 C 44.73 27.01 42.86 27.00 41.00 27.00 C 41.00 26.40 40.99 25.21 40.99 24.62 Z" />
<path fill="#fcfaf7" opacity="1.00" d=" M 69.00 27.00 C 76.28 27.00 83.56 26.99 90.84 27.00 C 90.84 27.66 90.83 28.97 90.82 29.63 C 87.80 30.61 84.75 31.51 81.71 32.44 C 86.14 32.34 90.58 32.37 95.01 32.38 C 95.01 32.94 95.00 34.07 94.99 34.63 C 90.71 34.62 86.42 34.63 82.14 34.61 C 81.99 36.31 81.83 38.02 81.64 39.72 C 79.23 40.28 76.75 40.42 74.28 40.49 C 74.20 39.78 74.05 38.36 73.97 37.65 C 75.72 37.83 77.47 37.98 79.22 38.13 C 79.41 36.97 79.60 35.80 79.78 34.63 C 75.32 34.62 70.86 34.63 66.39 34.62 L 66.34 32.39 C 70.50 32.36 74.66 32.44 78.82 32.28 C 80.73 30.10 83.69 29.89 86.32 29.26 C 80.56 28.85 74.77 29.05 69.00 29.00 C 69.00 28.50 69.00 27.50 69.00 27.00 Z" />
</g>
<g id="#8a0007ff">
<path fill="#8a0007" opacity="1.00" d=" M 0.00 43.07 C 2.29 45.72 5.12 48.37 8.93 47.99 C 43.63 48.05 78.34 47.94 113.05 48.02 C 117.35 48.00 121.68 48.33 125.94 47.64 C 128.65 47.21 130.22 44.69 132.00 42.88 L 132.00 45.34 C 131.16 48.58 128.71 51.05 125.51 52.00 L 6.64 52.00 C 3.41 51.15 0.97 48.69 0.00 45.52 L 0.00 43.07 Z" />
</g>
</svg>
