<?xml version="1.0" encoding="UTF-8" ?>
<!DOCTYPE svg PUBLIC "-//W3C//DTD SVG 1.1//EN" "http://www.w3.org/Graphics/SVG/1.1/DTD/svg11.dtd">
<svg width="250pt" height="279pt" viewBox="0 0 250 279" version="1.1" xmlns="http://www.w3.org/2000/svg">
<g id="#d1f6f0ff">
<path fill="#d1f6f0" opacity="1.00" d=" M 230.77 2.83 C 233.30 0.77 237.31 1.14 238.90 4.15 C 242.93 10.95 244.35 18.90 246.62 26.39 C 247.21 29.49 249.23 32.65 247.79 35.80 C 246.36 35.55 244.03 36.33 243.45 34.47 C 240.76 27.06 239.52 19.17 236.49 11.86 C 230.91 40.34 220.18 67.73 205.89 92.94 C 195.64 111.35 179.23 125.88 160.51 135.31 C 157.97 136.76 154.40 137.39 153.42 140.56 C 148.46 151.31 141.82 161.22 134.40 170.43 C 118.47 190.37 99.44 207.59 79.82 223.82 C 56.19 242.93 31.37 260.59 5.52 276.58 C 4.41 277.28 2.18 278.35 1.40 276.71 C 1.05 275.58 0.86 273.83 2.13 273.19 C 32.52 254.22 61.79 233.34 88.95 209.94 C 101.11 199.49 112.51 188.17 123.35 176.35 C 132.66 165.45 141.63 154.04 147.93 141.08 C 137.97 143.57 127.67 146.51 117.32 144.78 C 106.30 143.68 95.88 137.42 90.02 127.99 C 86.33 122.08 83.87 114.95 85.01 107.93 C 87.03 92.47 99.35 80.15 113.24 74.24 C 120.12 71.11 127.85 70.58 135.27 71.59 C 143.27 73.23 150.32 78.71 154.09 85.92 C 158.20 93.28 159.61 101.76 160.33 110.05 C 160.79 117.47 158.88 124.71 157.13 131.84 C 173.82 123.29 189.16 111.14 199.06 95.01 C 213.24 71.63 223.70 45.97 230.09 19.39 C 230.88 15.88 231.63 12.35 231.86 8.75 C 224.57 13.71 218.78 20.46 212.34 26.41 C 211.24 27.40 209.41 28.24 208.41 26.59 C 206.26 25.12 208.34 22.81 209.57 21.54 C 216.27 14.93 222.93 8.10 230.77 2.83 M 121.39 76.58 C 107.74 79.93 95.25 90.09 90.78 103.62 C 85.89 117.67 96.00 132.95 109.12 137.97 C 122.21 142.85 136.61 140.03 149.29 135.21 C 150.32 134.90 151.00 134.24 151.33 133.22 C 155.29 123.56 156.58 112.80 154.66 102.51 C 153.35 94.77 150.65 86.72 144.56 81.41 C 138.40 75.78 129.28 74.44 121.39 76.58 Z" />
</g>
</svg>
