<?xml version="1.0" encoding="UTF-8" ?>
<!DOCTYPE svg PUBLIC "-//W3C//DTD SVG 1.1//EN" "http://www.w3.org/Graphics/SVG/1.1/DTD/svg11.dtd">
<svg width="50pt" height="50pt" viewBox="0 0 50 50" version="1.1" xmlns="http://www.w3.org/2000/svg">
<g id="#29c1d7ff">
<path fill="#29c1d7" opacity="1.00" d=" M 24.00 0.00 L 25.91 0.00 C 28.85 1.25 30.65 4.01 32.84 6.18 C 38.53 12.33 44.52 18.21 50.00 24.55 L 50.00 26.16 C 47.86 26.71 45.64 26.88 43.44 26.76 C 43.29 33.17 43.40 39.59 43.35 46.00 C 43.59 47.65 42.70 49.02 41.44 50.00 L 31.92 50.00 C 31.51 49.68 30.70 49.03 30.29 48.71 C 28.77 44.54 30.51 39.87 29.36 35.59 C 26.47 35.12 23.48 35.10 20.59 35.62 C 19.09 40.26 22.36 46.37 18.37 50.00 L 8.78 50.00 C 7.29 49.21 6.44 47.73 6.65 46.04 C 6.54 39.61 6.61 33.19 6.59 26.76 C 4.37 26.90 2.17 26.65 0.00 26.22 L 0.00 24.65 C 5.05 18.54 10.83 13.07 16.18 7.22 C 18.72 4.76 20.74 1.60 24.00 0.00 Z" />
</g>
</svg>
