<?xml version="1.0" encoding="UTF-8" ?>
<!DOCTYPE svg PUBLIC "-//W3C//DTD SVG 1.1//EN" "http://www.w3.org/Graphics/SVG/1.1/DTD/svg11.dtd">
<svg width="50pt" height="50pt" viewBox="0 0 50 50" version="1.1" xmlns="http://www.w3.org/2000/svg">
<g id="#a0a0a0ff">
<path fill="#a0a0a0" opacity="1.00" d=" M 23.96 0.00 L 26.00 0.00 C 29.21 1.66 31.32 4.71 33.83 7.22 C 39.18 13.03 44.85 18.55 50.00 24.55 L 50.00 26.28 C 47.82 26.57 45.62 26.73 43.42 26.86 C 43.17 33.88 43.64 40.92 43.17 47.91 C 42.76 48.44 41.95 49.48 41.54 50.00 L 31.83 50.00 C 31.35 49.48 30.40 48.44 29.93 47.92 C 29.30 43.84 30.14 39.67 29.44 35.60 C 26.53 35.12 23.52 35.17 20.60 35.55 C 19.20 40.25 22.20 46.19 18.46 50.00 L 8.69 50.00 C 7.38 49.09 6.42 47.72 6.67 46.05 C 6.50 39.66 6.63 33.26 6.59 26.86 C 4.39 26.75 2.19 26.55 0.00 26.31 L 0.00 24.65 C 4.74 18.88 10.18 13.74 15.21 8.24 C 18.07 5.44 20.39 1.97 23.96 0.00 M 22.98 3.00 C 16.04 10.17 9.23 17.48 2.37 24.73 C 4.44 24.74 6.51 24.72 8.58 24.73 C 8.65 32.48 8.43 40.23 8.78 47.97 C 11.90 48.00 15.03 48.01 18.16 47.96 C 18.52 43.77 17.98 39.54 18.51 35.36 C 19.56 32.73 22.80 33.43 25.03 33.29 C 27.25 33.42 30.54 32.74 31.51 35.44 C 31.99 39.59 31.49 43.79 31.84 47.96 C 34.97 48.00 38.10 48.01 41.23 47.97 C 41.49 40.23 41.28 32.48 41.43 24.73 C 43.50 24.73 45.56 24.74 47.63 24.73 C 40.76 17.47 33.94 10.16 27.00 2.96 C 26.04 1.61 23.93 1.68 22.98 3.00 Z" />
</g>
</svg>
