<?xml version="1.0" standalone="no"?><!DOCTYPE svg PUBLIC "-//W3C//DTD SVG 1.1//EN" "http://www.w3.org/Graphics/SVG/1.1/DTD/svg11.dtd"><svg width="200" height="200" viewBox="0 0 200 200" version="1.1" xmlns="http://www.w3.org/2000/svg" xmlns:xlink="http://www.w3.org/1999/xlink"><defs><style type="text/css"><![CDATA[
@font-face { font-family: ifont; src: url("http://at.alicdn.com/t/font_1442373896_4754455.eot?#iefix") format("embedded-opentype"), url("http://at.alicdn.com/t/font_1442373896_4754455.woff") format("woff"), url("http://at.alicdn.com/t/font_1442373896_4754455.ttf") format("truetype"), url("http://at.alicdn.com/t/font_1442373896_4754455.svg#ifont") format("svg"); }

]]></style></defs><g class="transform-group"><g transform="scale(0.1953125, 0.1953125)"><path d="M691.2 588.8l-102.4 0 0 102.4c0 28.16-23.04 51.2-51.2 51.2L486.4 742.4c-28.16 0-51.2-23.04-51.2-51.2l0-102.4L332.8 588.8c-28.16 0-51.2-23.04-51.2-51.2L281.6 486.4c0-28.16 23.04-51.2 51.2-51.2l102.4 0 0-102.4c0-28.16 23.04-51.2 51.2-51.2l51.2 0c28.16 0 51.2 23.04 51.2 51.2l0 102.4 102.4 0c28.16 0 51.2 23.04 51.2 51.2l0 51.2C742.4 565.76 719.36 588.8 691.2 588.8zM783.36 151.04c49.152 0 89.6 39.936 89.6 89.6l0 542.72c0 49.152-39.936 89.6-89.6 89.6L240.64 872.96c-49.152 0-89.6-39.936-89.6-89.6L151.04 240.64c0-49.152 39.936-89.6 89.6-89.6L783.36 151.04M783.36 89.6 240.64 89.6c-82.944 0-151.04 68.096-151.04 151.04l0 542.72c0 82.944 68.096 151.04 151.04 151.04l542.72 0c82.944 0 151.04-68.096 151.04-151.04L934.4 240.64C934.4 157.696 866.304 89.6 783.36 89.6L783.36 89.6z" fill="#7C8085"></path></g></g></svg>
