<?xml version="1.0" encoding="UTF-8" ?>
<!DOCTYPE svg PUBLIC "-//W3C//DTD SVG 1.1//EN" "http://www.w3.org/Graphics/SVG/1.1/DTD/svg11.dtd">
<svg width="28pt" height="34pt" viewBox="0 0 28 34" version="1.1" xmlns="http://www.w3.org/2000/svg">
<g id="#fa4b58ff">
<path fill="#fa4b58" opacity="1.00" d=" M 7.21 0.01 C 14.11 1.32 18.93 7.49 20.38 14.09 C 21.67 12.71 22.62 11.05 22.62 9.11 C 24.93 12.95 27.40 16.84 28.00 21.39 L 28.00 23.62 C 27.23 29.60 21.31 33.47 15.66 34.00 L 13.30 34.00 C 7.73 33.58 0.70 31.06 0.00 24.63 L 0.00 22.27 C 0.30 19.91 1.40 17.70 3.07 16.01 C 7.07 11.90 9.27 5.56 7.21 0.01 M 14.37 14.98 C 14.17 16.40 14.22 18.00 13.23 19.15 C 12.28 20.18 10.68 20.59 10.24 22.06 C 9.41 24.03 11.29 26.03 13.08 26.56 C 15.89 27.12 19.42 25.15 19.43 22.02 C 19.54 18.80 16.70 16.68 14.37 14.98 Z" />
</g>
</svg>
