<?xml version="1.0" encoding="UTF-8" ?>
<!DOCTYPE svg PUBLIC "-//W3C//DTD SVG 1.1//EN" "http://www.w3.org/Graphics/SVG/1.1/DTD/svg11.dtd">
<svg width="100pt" height="100pt" viewBox="0 0 100 100" version="1.1" xmlns="http://www.w3.org/2000/svg">
<g id="#1fc1d8ff">
<path fill="#1fc1d8" opacity="1.00" d=" M 54.40 0.00 L 56.53 0.00 C 69.31 0.15 81.96 5.97 90.11 15.85 C 95.95 22.77 99.35 31.57 100.00 40.58 L 100.00 45.59 C 98.47 62.25 85.08 74.80 70.89 81.94 C 71.96 87.52 74.13 92.93 78.10 97.11 C 67.69 97.38 57.33 92.18 52.09 83.05 C 49.01 82.68 45.94 82.22 42.89 81.67 C 39.54 87.20 33.56 90.21 27.33 91.19 C 24.59 96.05 19.77 99.67 14.05 99.99 C 15.55 97.40 16.59 94.58 17.15 91.64 C 8.98 88.29 0.88 81.83 0.00 72.42 L 0.00 69.61 C 0.75 61.64 6.23 55.13 12.56 50.69 C 11.25 41.52 12.34 31.91 16.72 23.66 C 23.77 9.69 38.84 0.53 54.40 0.00 M 35.04 26.09 C 35.07 26.77 35.11 28.13 35.14 28.80 C 49.04 28.91 62.95 28.89 76.85 28.82 C 76.88 28.13 76.93 26.76 76.95 26.08 C 62.98 25.95 49.01 25.93 35.04 26.09 M 35.17 37.79 C 35.09 38.42 34.94 39.68 34.87 40.31 C 48.84 40.50 62.87 40.71 76.83 40.22 C 76.91 39.59 77.06 38.32 77.13 37.69 C 63.15 37.51 49.13 37.28 35.17 37.79 M 35.05 49.17 C 35.06 49.86 35.08 51.23 35.08 51.91 C 49.04 52.05 63.00 52.09 76.96 51.89 C 76.94 51.20 76.91 49.83 76.90 49.15 C 62.95 49.03 49.00 48.98 35.05 49.17 M 2.32 74.12 C 4.05 82.41 11.87 87.46 19.26 90.29 C 18.87 92.64 18.40 94.98 17.90 97.31 C 21.43 95.68 24.26 92.89 25.90 89.35 C 31.58 88.56 37.37 86.36 40.66 81.38 C 27.29 77.42 16.34 66.58 12.52 53.14 C 6.20 58.01 0.55 65.71 2.32 74.12 Z" />
</g>
<g id="#ffffffff">
<path fill="#ffffff" opacity="1.00" d=" M 35.04 26.09 C 49.01 25.93 62.98 25.95 76.95 26.08 C 76.93 26.76 76.88 28.13 76.85 28.82 C 62.95 28.89 49.04 28.91 35.14 28.80 C 35.11 28.13 35.07 26.77 35.04 26.09 Z" />
<path fill="#ffffff" opacity="1.00" d=" M 35.17 37.79 C 49.13 37.28 63.15 37.51 77.13 37.69 C 77.06 38.32 76.91 39.59 76.83 40.22 C 62.87 40.71 48.84 40.50 34.87 40.31 C 34.94 39.68 35.09 38.42 35.17 37.79 Z" />
<path fill="#ffffff" opacity="1.00" d=" M 35.05 49.17 C 49.00 48.98 62.95 49.03 76.90 49.15 C 76.91 49.83 76.94 51.20 76.96 51.89 C 63.00 52.09 49.04 52.05 35.08 51.91 C 35.08 51.23 35.06 49.86 35.05 49.17 Z" />
</g>
</svg>
