<?xml version="1.0" encoding="UTF-8" ?>
<!DOCTYPE svg PUBLIC "-//W3C//DTD SVG 1.1//EN" "http://www.w3.org/Graphics/SVG/1.1/DTD/svg11.dtd">
<svg width="100pt" height="100pt" viewBox="0 0 100 100" version="1.1" xmlns="http://www.w3.org/2000/svg">
<g id="#a0a0a0fe">
<path fill="#a0a0a0" opacity="1.00" d=" M 53.53 0.00 L 57.44 0.00 C 69.91 0.45 82.16 6.20 90.12 15.87 C 95.93 22.74 99.32 31.50 100.00 40.45 L 100.00 45.77 C 98.37 62.40 84.97 74.80 70.86 82.02 C 72.03 87.55 74.10 92.97 78.11 97.09 C 67.70 97.41 57.31 92.18 52.09 83.04 C 49.00 82.69 45.93 82.24 42.87 81.65 C 39.57 87.22 33.55 90.23 27.31 91.17 C 24.61 96.10 19.68 99.72 13.94 99.99 C 15.63 97.46 16.63 94.59 17.10 91.61 C 8.96 88.29 0.93 81.84 0.00 72.51 L 0.00 69.54 C 0.80 61.62 6.22 55.09 12.57 50.72 C 10.90 39.89 13.00 28.42 19.28 19.35 C 26.83 7.97 39.97 0.87 53.53 0.00 M 33.61 9.57 C 23.47 15.92 16.39 27.02 15.23 38.96 C 14.05 49.45 17.29 60.55 24.72 68.19 C 32.21 76.10 43.22 79.70 53.90 80.10 C 57.46 86.99 64.04 92.05 71.66 93.58 C 69.48 89.43 68.48 84.82 67.51 80.28 C 78.13 75.03 88.42 67.59 93.77 56.72 C 98.87 46.68 97.57 34.35 92.39 24.61 C 86.27 13.00 74.18 4.88 61.17 3.37 C 51.64 2.17 41.69 4.34 33.61 9.57 M 3.90 76.03 C 6.56 83.10 13.62 87.10 20.34 89.61 C 20.03 91.53 19.72 93.45 19.45 95.38 C 22.07 93.70 23.94 91.20 25.23 88.41 C 30.37 87.68 35.78 86.14 39.11 81.86 C 26.67 77.63 16.26 67.57 12.18 55.01 C 5.71 59.50 0.96 68.16 3.90 76.03 Z" />
<path fill="#a0a0a0" opacity="1.00" d=" M 35.03 26.10 C 49.02 25.96 63.03 25.87 77.02 26.15 C 76.97 26.81 76.89 28.14 76.85 28.81 C 62.96 28.92 49.07 28.87 35.19 28.84 C 35.15 28.15 35.07 26.78 35.03 26.10 Z" />
<path fill="#a0a0a0" opacity="1.00" d=" M 35.12 37.82 C 47.37 37.13 59.71 37.76 72.00 37.51 C 74.20 37.60 78.03 36.74 77.08 40.27 C 63.04 40.59 48.96 40.59 34.92 40.27 C 34.97 39.66 35.07 38.43 35.12 37.82 Z" />
<path fill="#a0a0a0" opacity="1.00" d=" M 35.10 49.16 C 49.04 49.02 62.99 48.98 76.94 49.18 C 76.94 49.86 76.93 51.21 76.93 51.89 C 62.97 52.06 48.99 52.10 35.03 51.87 C 35.05 51.19 35.08 49.83 35.10 49.16 Z" />
</g>
</svg>
