<?xml version="1.0" encoding="UTF-8" ?>
<!DOCTYPE svg PUBLIC "-//W3C//DTD SVG 1.1//EN" "http://www.w3.org/Graphics/SVG/1.1/DTD/svg11.dtd">
<svg width="41pt" height="53pt" viewBox="0 0 41 53" version="1.1" xmlns="http://www.w3.org/2000/svg">
<g id="#9b9b9bfe">
<path fill="#9b9b9b" opacity="1.00" d=" M 17.39 0.00 L 21.46 0.00 C 23.88 0.28 26.24 0.88 28.61 1.42 C 33.88 10.72 33.54 23.89 25.43 31.49 C 32.53 33.37 38.55 38.71 41.00 45.66 L 41.00 48.39 C 40.36 49.91 39.70 51.80 37.89 52.23 C 33.79 53.06 29.56 52.74 25.40 53.00 L 15.69 53.00 C 11.52 52.74 7.28 53.06 3.16 52.25 C 1.42 51.86 0.77 50.05 0.00 48.67 L 0.00 45.88 C 2.16 39.09 7.90 33.92 14.59 31.73 C 6.08 24.32 5.74 10.75 11.12 1.41 C 13.20 0.91 15.29 0.41 17.39 0.00 M 12.92 3.79 C 11.49 6.86 10.75 10.16 10.33 13.51 C 16.63 12.50 23.05 12.49 29.34 13.52 C 28.74 10.24 28.63 6.43 26.34 3.82 C 22.03 2.22 17.29 2.70 12.92 3.79 M 10.34 16.45 C 11.09 22.07 13.25 29.89 19.97 30.49 C 26.52 29.61 28.61 21.99 29.37 16.42 C 23.09 15.25 16.62 15.25 10.34 16.45 M 14.50 34.76 C 9.26 36.56 4.88 40.79 2.96 45.99 C 2.49 47.43 2.86 49.80 4.79 49.75 C 15.21 50.33 25.69 50.32 36.12 49.77 C 38.07 49.88 38.52 47.53 38.06 46.06 C 34.86 36.81 23.76 31.34 14.50 34.76 Z" />
<path fill="#9b9b9b" opacity="1.00" d=" M 16.35 7.17 C 18.41 7.12 19.38 5.53 20.14 3.87 C 20.48 4.50 21.14 5.77 21.48 6.40 C 21.95 6.72 22.90 7.37 23.37 7.69 C 22.24 8.71 21.03 9.67 20.09 10.87 C 18.88 9.60 17.62 8.38 16.35 7.17 Z" />
</g>
</svg>
