<?xml version="1.0" encoding="UTF-8" ?>
<!DOCTYPE svg PUBLIC "-//W3C//DTD SVG 1.1//EN" "http://www.w3.org/Graphics/SVG/1.1/DTD/svg11.dtd">
<svg width="45pt" height="54pt" viewBox="0 0 45 54" version="1.1" xmlns="http://www.w3.org/2000/svg">
<g id="#8e8e8eea">
<path fill="#9b9b9b" opacity="0.92" d=" M 22.24 0.00 L 23.92 0.00 C 23.99 1.64 24.06 3.28 24.13 4.92 C 26.14 5.19 28.40 5.20 29.80 6.93 C 27.94 7.18 26.07 7.34 24.20 7.47 C 24.05 9.47 23.86 11.47 23.62 13.46 C 27.97 13.46 32.31 13.44 36.66 13.63 C 37.73 26.02 36.83 38.51 37.14 50.94 C 37.84 50.95 39.25 50.99 39.95 51.00 C 39.95 45.35 40.10 39.69 39.92 34.04 C 39.89 32.36 38.67 31.06 37.97 29.63 C 39.30 29.66 40.64 29.70 41.97 29.75 C 42.04 36.73 41.99 43.71 42.02 50.68 C 42.76 50.86 44.25 51.21 45.00 51.39 L 45.00 52.91 C 41.73 52.97 38.46 52.94 35.20 52.83 C 34.96 40.43 35.21 28.03 35.07 15.63 C 26.73 15.53 18.39 15.52 10.05 15.64 C 10.06 27.40 10.00 39.17 10.06 50.94 C 16.67 51.09 23.30 50.71 29.91 51.09 C 31.81 51.11 32.82 52.93 34.14 54.00 L 32.03 54.00 C 29.77 53.28 27.41 52.88 25.03 52.92 C 16.69 52.94 8.34 52.96 0.00 52.94 L 0.00 51.31 C 0.79 51.15 2.38 50.84 3.17 50.68 C 3.31 43.77 3.16 36.86 3.28 29.95 C 4.55 29.86 5.81 29.79 7.08 29.72 C 3.61 36.21 5.89 43.87 5.25 50.89 C 5.93 50.92 7.29 50.98 7.96 51.01 C 8.39 38.56 7.47 26.07 8.46 13.66 C 13.13 13.42 17.80 13.46 22.48 13.47 C 22.23 11.47 22.02 9.48 21.84 7.47 C 20.01 7.34 18.17 7.17 16.35 6.92 C 17.69 5.18 19.91 5.19 21.89 4.95 C 22.01 3.30 22.12 1.65 22.24 0.00 Z" />
<path fill="#8e8e8e" opacity="0.92" d=" M 11.94 19.03 C 18.71 18.95 25.48 19.02 32.25 18.99 C 32.26 19.50 32.27 20.51 32.27 21.01 C 25.48 21.00 18.69 21.00 11.90 21.01 C 11.91 20.52 11.93 19.53 11.94 19.03 Z" />
<path fill="#8e8e8e" opacity="0.92" d=" M 12.28 24.33 C 18.81 24.12 25.38 24.06 31.91 24.36 L 32.64 25.09 L 32.14 26.04 C 25.30 26.43 18.43 26.23 11.59 26.09 C 11.76 25.65 12.11 24.77 12.28 24.33 Z" />
<path fill="#8e8e8e" opacity="0.92" d=" M 12.36 29.47 C 18.81 29.22 25.29 29.27 31.74 29.45 C 31.97 29.90 32.43 30.80 32.66 31.25 C 25.64 31.55 18.60 31.56 11.58 31.24 C 11.77 30.80 12.16 29.92 12.36 29.47 Z" />
</g>
</svg>
