<?xml version="1.0" encoding="UTF-8" ?>
<!DOCTYPE svg PUBLIC "-//W3C//DTD SVG 1.1//EN" "http://www.w3.org/Graphics/SVG/1.1/DTD/svg11.dtd">
<svg width="40pt" height="40pt" viewBox="0 0 40 40" version="1.1" xmlns="http://www.w3.org/2000/svg">
<g id="#fca66dff">
<path fill="#fca66d" opacity="1.00" d=" M 18.44 0.00 L 20.51 0.00 C 25.86 0.33 31.82 1.21 35.68 5.29 C 37.63 7.18 37.56 10.71 35.52 12.50 C 32.21 15.77 27.41 16.88 22.94 17.37 C 16.93 17.82 10.44 17.19 5.33 13.74 C 3.19 12.24 0.98 9.26 2.76 6.69 C 5.99 1.47 12.83 0.49 18.44 0.00 Z" />
<path fill="#fca66d" opacity="1.00" d=" M 2.41 14.25 C 3.85 13.97 4.45 15.70 5.54 16.31 C 11.24 20.31 18.57 20.32 25.21 19.62 C 29.69 19.16 33.62 16.77 36.92 13.84 C 38.54 19.51 32.67 22.86 28.03 23.96 C 21.07 25.59 13.32 25.48 6.84 22.19 C 3.99 20.78 1.12 17.65 2.41 14.25 Z" />
<path fill="#fca66d" opacity="1.00" d=" M 8.51 30.49 C 4.85 29.15 0.60 25.48 2.70 21.22 C 8.17 27.48 17.24 28.13 24.96 27.17 C 29.54 26.69 33.63 24.35 36.98 21.30 C 37.52 24.25 36.67 27.28 33.98 28.84 C 26.45 33.44 16.64 33.50 8.51 30.49 Z" />
<path fill="#fca66d" opacity="1.00" d=" M 3.98 35.10 C 2.11 33.46 1.80 30.94 2.67 28.69 C 5.26 31.53 8.69 33.50 12.45 34.32 C 20.88 35.84 30.61 35.23 36.98 28.80 C 36.87 30.81 37.48 33.23 35.75 34.74 C 31.89 38.75 26.01 39.71 20.69 40.00 L 18.48 40.00 C 13.38 39.68 7.83 38.74 3.98 35.10 Z" />
</g>
</svg>
