<?xml version="1.0" encoding="UTF-8" ?>
<!DOCTYPE svg PUBLIC "-//W3C//DTD SVG 1.1//EN" "http://www.w3.org/Graphics/SVG/1.1/DTD/svg11.dtd">
<svg width="28pt" height="31pt" viewBox="0 0 28 31" version="1.1" xmlns="http://www.w3.org/2000/svg">
<g id="#a4a4a4cd">
<path fill="#999" opacity="0.80" d=" M 18.95 0.00 L 21.26 0.00 C 25.46 2.45 23.20 7.60 21.62 10.95 C 23.79 11.15 26.60 10.26 28.00 12.50 L 28.00 15.57 C 26.93 21.11 26.07 27.62 20.94 31.00 L 15.32 31.00 C 12.57 30.18 9.91 28.43 6.93 28.94 C 4.55 29.08 1.34 30.00 0.00 27.32 L 0.00 12.97 C 1.59 9.73 5.46 11.44 8.27 10.97 C 13.33 9.37 18.62 5.82 18.95 0.00 M 20.34 1.63 C 19.85 8.36 12.64 11.41 7.14 13.44 C 7.18 17.84 7.23 22.25 7.31 26.65 C 11.93 27.27 16.12 30.19 20.97 28.98 C 24.86 24.48 25.84 18.61 26.15 12.86 C 23.61 12.82 21.07 12.84 18.53 12.82 C 19.76 9.45 24.15 4.66 20.34 1.63 M 2.01 12.93 C 1.69 17.71 1.69 22.52 2.00 27.31 C 2.83 27.33 4.49 27.37 5.32 27.39 C 5.36 22.56 5.34 17.72 5.33 12.88 C 4.50 12.89 2.84 12.92 2.01 12.93 Z" />
</g>
</svg>
