<?xml version="1.0" standalone="no"?><!DOCTYPE svg PUBLIC "-//W3C//DTD SVG 1.1//EN" "http://www.w3.org/Graphics/SVG/1.1/DTD/svg11.dtd"><svg width="200" height="200" viewBox="0 0 200 200" version="1.1" xmlns="http://www.w3.org/2000/svg" xmlns:xlink="http://www.w3.org/1999/xlink"><defs><style type="text/css"><![CDATA[

]]></style></defs><g class="transform-group"><g transform="scale(0.1953125, 0.1953125)"><path d="M987.677058 1023.999981l-24.454037 0c-13.505995 0-24.454037-10.948042-24.454037-24.454037l0-24.454037 0-73.157474c0 0 0-12.68745 0-46.964029l0-1.944045-0.204636 0c-2.455635-91.57474-199.111111-219.472422-424.82494-219.472422-180.693845 0-428.303757 109.275779-428.303757 217.630695 0 0.716227 0 1.1255 0 1.841727 0 33.355715 0 48.703437 0 48.703437l0 24.454037 0 73.157474c0 13.505995-10.948042 24.454037-24.454037 24.454037l-24.454037 0c-13.505995 0-24.454037-10.948042-24.454037-24.454037 0 0 0-2.046363 0-4.911271 0-10.027178 0-35.811351 0-68.246203 0-23.840128 0-51.056755 0-78.784972l0-13.81295c0 1.534772 0.511591 1.534772 1.1255 1.023181 9.413269-76.1247 100.98801-209.752198 331.101519-257.023181-82.77538-56.888889-137.106315-152.351719-137.106315-260.706635 0-175.066347 141.915268-316.879297 316.879297-316.879297s317.186251 141.81295 317.186251 316.879297c0 108.866507-54.944844 204.840927-138.538769 262.036771 193.074341 42.359712 279.226219 150.100719 302.35012 222.439648 4.39968 9.92486 6.855316 20.770584 6.855316 32.53717l0 5.832134c0 49.11271 0 104.671463 0 135.571543 0 8.390088 0 15.45004 0 19.542766 0 2.967226 0 4.911271 0 4.911271C1011.926459 1013.05194 1001.080735 1023.999981 987.677058 1023.999981zM768.102318 316.879278C768.102318 182.228598 659.031175 73.157455 524.380496 73.157455S280.556355 182.228598 280.556355 316.879278s109.173461 243.824141 243.824141 243.824141S768.102318 451.632275 768.102318 316.879278z" fill="#272636"></path></g></g></svg>