<?xml version="1.0" standalone="no"?><!DOCTYPE svg PUBLIC "-//W3C//DTD SVG 1.1//EN" "http://www.w3.org/Graphics/SVG/1.1/DTD/svg11.dtd"><svg width="200" height="200" viewBox="0 0 200 200" version="1.1" xmlns="http://www.w3.org/2000/svg" xmlns:xlink="http://www.w3.org/1999/xlink"><defs><style type="text/css"><![CDATA[

]]></style></defs><g class="transform-group"><g transform="scale(0.1953125, 0.1953125)"><path d="M851.320869 1023.999981 172.576802 1023.999981c-59.964424 0-108.570399-48.91296-108.570399-109.184369L64.006404 450.551805c0-60.271409 48.605975-109.184369 108.570399-109.184369l552.675517 0 0-75.620664c0-111.435593-84.932546-201.689214-189.614466-201.689214l-47.378035 0c-101.61207 0-184.39572 85.137202-189.205153 191.968019l-64.466872 0c0-141.417805 112.86819-256.025577 252.137099-256.025577l50.447886 0c139.166581 0 252.137099 114.607772 252.137099 256.025577l0 85.341859 62.11332 0c59.964424 0 108.570399 48.91296 108.570399 109.184369l0 464.161478C959.891268 975.087021 911.387621 1023.999981 851.320869 1023.999981zM895.936038 458.226433c0-29.163585-23.740181-52.801438-53.006095-52.801438L180.967729 405.424995c-29.265913 0-53.006095 23.637853-53.006095 52.801438l0 449.01688c0 29.163585 23.740181 52.801438 53.006095 52.801438l661.962214 0c29.163585 0 53.006095-23.637853 53.006095-52.801438L895.936038 458.226433 895.936038 458.226433zM526.121315 852.599964c-1.125612 0.409313-2.251224 0.716299-3.581493 0.716299L479.971221 853.316263c-5.935045 0-10.744479-4.809433-10.744479-10.744479L469.226742 714.558996c0-5.935045 4.809433-10.744479 10.744479-10.744479l42.67093 0c5.935045 0 10.744479 4.809433 10.744479 10.744479l0 72.448485c48.708303-9.925852 85.341859-52.903766 85.341859-104.477264 0-58.94114-47.787348-106.728488-106.728488-106.728488S405.271512 623.589076 405.271512 682.530216c0 7.265314 0.716299 14.4283 2.148896 21.284301L405.271512 703.814517l0 10.744479c0 5.935045-4.809433 10.744479-10.744479 10.744479l-42.568601 0c-5.935045 0-10.744479-4.809433-10.744479-10.744479l0-42.67093c0-1.330269 0.306985-2.353552 0.716299-3.581493 7.265314-87.593083 80.532426-156.357747 169.96742-156.357747 94.346756 0 170.683718 76.439291 170.683718 170.683718C682.683718 772.067539 613.714398 845.33465 526.121315 852.599964z" fill="#272636"></path></g></g></svg>