<?xml version="1.0" encoding="UTF-8" ?>
<!DOCTYPE svg PUBLIC "-//W3C//DTD SVG 1.1//EN" "http://www.w3.org/Graphics/SVG/1.1/DTD/svg11.dtd">
<svg width="110pt" height="110pt" viewBox="0 0 110 110" version="1.1" xmlns="http://www.w3.org/2000/svg">
<g id="#ffffffff">
<path fill="#ffffff" opacity="1.00" d=" M 47.98 0.00 L 58.13 0.00 L 58.97 0.14 C 59.33 5.90 58.90 11.74 57.25 17.29 C 56.43 20.99 55.08 24.91 56.12 28.68 C 57.95 31.43 61.96 31.45 64.13 33.86 C 65.04 37.62 65.43 41.49 66.69 45.16 C 68.11 48.40 64.69 50.60 62.80 52.60 C 62.79 57.80 63.14 63.10 64.97 68.02 C 67.51 75.52 73.04 81.93 73.84 90.02 C 74.68 96.37 72.44 102.49 70.98 108.56 C 70.88 108.92 70.68 109.64 70.58 110.00 L 48.40 110.00 C 48.14 109.94 47.62 109.83 47.36 109.77 C 42.43 102.58 38.69 93.73 40.86 84.89 C 41.96 78.21 48.80 73.22 47.26 66.02 C 45.67 58.71 40.42 52.93 38.03 45.91 C 36.09 40.41 35.24 34.26 36.67 28.55 C 38.21 24.65 43.01 27.30 46.03 27.22 C 48.83 27.98 49.87 24.66 50.51 22.61 C 52.95 15.14 48.77 7.86 48.05 0.47 L 47.98 0.00 M 44.08 41.66 C 44.04 44.96 43.91 49.00 47.18 50.91 C 50.72 53.54 55.17 51.51 57.85 48.68 C 54.51 49.75 50.58 50.73 47.44 48.55 C 44.92 47.21 44.90 44.06 44.08 41.66 Z" />
</g>
<g id="#ff5ca9ff">
<path fill="#ff5ca9" opacity="1.00" d=" M 20.48 8.65 C 28.69 3.37 38.44 1.24 48.05 0.47 C 48.77 7.86 52.95 15.14 50.51 22.61 C 49.87 24.66 48.83 27.98 46.03 27.22 C 43.01 27.30 38.21 24.65 36.67 28.55 C 35.24 34.26 36.09 40.41 38.03 45.91 C 40.42 52.93 45.67 58.71 47.26 66.02 C 48.80 73.22 41.96 78.21 40.86 84.89 C 38.69 93.73 42.43 102.58 47.36 109.77 C 36.21 108.26 24.55 105.74 15.94 97.97 C 5.25 88.89 1.08 74.54 0.39 60.97 C -0.33 46.52 1.14 30.93 9.80 18.82 C 12.63 14.74 16.37 11.38 20.48 8.65 Z" />
<path fill="#ff5ca9" opacity="1.00" d=" M 58.97 0.14 C 65.61 0.91 72.37 1.41 78.75 3.58 C 88.89 6.76 98.00 13.64 103.00 23.12 C 110.16 36.23 110.44 51.77 109.41 66.31 C 106.25 72.24 104.18 79.37 98.31 83.28 C 95.61 85.26 92.29 86.41 89.97 88.87 C 88.44 92.26 88.33 96.19 86.29 99.37 C 84.70 101.81 82.68 103.94 80.63 106.01 C 77.48 107.11 74.17 107.63 70.98 108.56 C 72.44 102.49 74.68 96.37 73.84 90.02 C 73.04 81.93 67.51 75.52 64.97 68.02 C 63.14 63.10 62.79 57.80 62.80 52.60 C 64.69 50.60 68.11 48.40 66.69 45.16 C 65.43 41.49 65.04 37.62 64.13 33.86 C 61.96 31.45 57.95 31.43 56.12 28.68 C 55.08 24.91 56.43 20.99 57.25 17.29 C 58.90 11.74 59.33 5.90 58.97 0.14 Z" />
<path fill="#ff5ca9" opacity="1.00" d=" M 44.08 41.66 C 44.90 44.06 44.92 47.21 47.44 48.55 C 50.58 50.73 54.51 49.75 57.85 48.68 C 55.17 51.51 50.72 53.54 47.18 50.91 C 43.91 49.00 44.04 44.96 44.08 41.66 Z" />
</g>
<g id="#ff99c9ff">
<path fill="#ff99c9" opacity="1.00" d=" M 98.31 83.28 C 104.18 79.37 106.25 72.24 109.41 66.31 C 108.66 73.03 107.01 79.71 103.86 85.72 C 99.20 95.22 90.59 102.55 80.63 106.01 C 82.68 103.94 84.70 101.81 86.29 99.37 C 88.33 96.19 88.44 92.26 89.97 88.87 C 92.29 86.41 95.61 85.26 98.31 83.28 Z" />
</g>
</svg>
