<?xml version="1.0" encoding="UTF-8" ?>
<!DOCTYPE svg PUBLIC "-//W3C//DTD SVG 1.1//EN" "http://www.w3.org/Graphics/SVG/1.1/DTD/svg11.dtd">
<svg width="32pt" height="29pt" viewBox="0 0 32 29" version="1.1" xmlns="http://www.w3.org/2000/svg">
<g id="#999ff">
<path fill="#999" opacity="1.00" d=" M 3.32 0.00 L 28.61 0.00 C 29.66 1.18 30.78 2.29 32.00 3.31 L 32.00 19.55 C 31.04 24.41 25.50 23.93 21.74 23.72 C 20.00 25.48 18.31 27.29 16.52 29.00 L 15.54 29.00 C 13.65 27.33 11.89 25.52 10.12 23.73 C 6.41 23.93 1.19 24.35 0.00 19.75 L 0.00 3.39 C 1.18 2.33 2.30 1.21 3.32 0.00 M 1.99 5.99 C 2.12 10.63 1.74 15.30 2.19 19.92 C 3.88 23.09 8.12 21.39 10.98 21.79 C 12.64 23.47 14.32 25.13 15.98 26.81 C 17.58 25.10 19.24 23.44 20.91 21.78 C 23.80 21.38 28.11 23.12 29.80 19.91 C 30.24 14.93 29.93 9.91 29.98 4.91 C 30.13 3.32 28.71 1.77 27.07 1.99 C 19.67 1.89 12.26 1.88 4.87 1.99 C 2.68 1.75 1.68 4.17 1.99 5.99 Z" />
<path fill="#999" opacity="1.00" d=" M 7.42 10.63 C 9.29 9.29 11.51 12.17 9.73 13.62 C 7.84 15.41 5.31 12.04 7.42 10.63 Z" />
<path fill="#999" opacity="1.00" d=" M 15.39 10.47 C 17.39 9.51 18.93 12.92 16.91 13.86 C 14.61 15.23 12.86 11.16 15.39 10.47 Z" />
<path fill="#999" opacity="1.00" d=" M 22.48 10.66 C 24.22 9.26 26.49 12.15 24.77 13.58 C 22.94 15.53 20.22 11.96 22.48 10.66 Z" />
</g>
</svg>
