<?xml version="1.0" standalone="no"?><!DOCTYPE svg PUBLIC "-//W3C//DTD SVG 1.1//EN" "http://www.w3.org/Graphics/SVG/1.1/DTD/svg11.dtd"><svg width="200" height="200" viewBox="0 0 200 200" version="1.1" xmlns="http://www.w3.org/2000/svg" xmlns:xlink="http://www.w3.org/1999/xlink"><defs><style type="text/css"><![CDATA[
@font-face { font-family: ifont; src: url("http://at.alicdn.com/t/font_1442373896_4754455.eot?#iefix") format("embedded-opentype"), url("http://at.alicdn.com/t/font_1442373896_4754455.woff") format("woff"), url("http://at.alicdn.com/t/font_1442373896_4754455.ttf") format("truetype"), url("http://at.alicdn.com/t/font_1442373896_4754455.svg#ifont") format("svg"); }

]]></style></defs><g class="transform-group"><g transform="scale(0.1953125, 0.1953125)"><path d="M512.256 65.024c-246.4 0-446.976 200.512-446.976 446.976 0 246.464 200.512 446.976 446.976 446.976S959.232 758.464 959.232 512C959.232 265.536 758.72 65.024 512.256 65.024zM512.256 896.192c-211.84 0-384.192-172.352-384.192-384.192 0-211.84 172.352-384.192 384.192-384.192S896.384 300.16 896.384 512C896.384 723.84 724.096 896.192 512.256 896.192zM721.344 432.064 672.128 382.912 512.256 542.784 352.384 382.848 303.232 432.064 512.32 641.152Z" fill="#7C8085"></path></g></g></svg>