<?xml version="1.0" encoding="UTF-8" ?>
<!DOCTYPE svg PUBLIC "-//W3C//DTD SVG 1.1//EN" "http://www.w3.org/Graphics/SVG/1.1/DTD/svg11.dtd">
<svg width="40pt" height="40pt" viewBox="0 0 40 40" version="1.1" xmlns="http://www.w3.org/2000/svg">
<g id="#5ccae7ff">
<path fill="#5ccae7" opacity="1.00" d=" M 14.44 6.68 C 24.43 3.97 37.35 9.19 39.63 20.00 C 37.77 29.17 27.79 34.54 18.95 33.96 C 10.76 33.74 2.03 28.42 0.37 19.98 C 1.69 13.15 7.91 8.24 14.44 6.68 M 16.42 9.61 C 13.25 10.68 10.70 13.32 9.59 16.46 C 7.46 22.21 11.16 29.17 17.12 30.60 C 23.79 32.71 31.25 26.95 30.99 20.00 C 31.25 12.76 23.20 6.96 16.42 9.61 Z" />
<path fill="#5ccae7" opacity="1.00" d=" M 13.89 14.85 C 16.22 11.75 20.35 12.04 23.80 11.94 C 21.82 13.09 18.62 13.38 18.10 16.10 C 17.11 19.48 21.48 22.45 24.27 20.30 C 26.71 18.77 25.74 15.60 25.31 13.31 C 26.56 15.72 28.52 18.10 27.92 21.03 C 27.45 26.19 21.29 29.63 16.66 27.25 C 11.97 25.29 10.47 18.62 13.89 14.85 Z" />
</g>
<g id="#ffffffff">
<path fill="#ffffff" opacity="1.00" d=" M 16.42 9.61 C 23.20 6.96 31.25 12.76 30.99 20.00 C 31.25 26.95 23.79 32.71 17.12 30.60 C 11.16 29.17 7.46 22.21 9.59 16.46 C 10.70 13.32 13.25 10.68 16.42 9.61 M 13.89 14.85 C 10.47 18.62 11.97 25.29 16.66 27.25 C 21.29 29.63 27.45 26.19 27.92 21.03 C 28.52 18.10 26.56 15.72 25.31 13.31 C 25.74 15.60 26.71 18.77 24.27 20.30 C 21.48 22.45 17.11 19.48 18.10 16.10 C 18.62 13.38 21.82 13.09 23.80 11.94 C 20.35 12.04 16.22 11.75 13.89 14.85 Z" />
</g>
</svg>
