<?xml version="1.0" encoding="UTF-8" ?>
<!DOCTYPE svg PUBLIC "-//W3C//DTD SVG 1.1//EN" "http://www.w3.org/Graphics/SVG/1.1/DTD/svg11.dtd">
<svg width="100pt" height="100pt" viewBox="0 0 100 100" version="1.1" xmlns="http://www.w3.org/2000/svg">
<g id="#ffffffff">
<path fill="#ffffff" opacity="1.00" d=" M 0.00 0.00 L 100.00 0.00 L 100.00 15.61 C 90.08 26.14 80.00 36.53 70.05 47.03 C 80.01 57.52 90.06 67.93 100.00 78.44 L 100.00 100.00 L 0.00 100.00 L 0.00 78.46 C 9.93 67.93 20.01 57.53 29.97 47.02 C 20.00 36.53 9.94 26.12 0.00 15.60 L 0.00 0.00 M 4.11 14.01 C 18.24 28.83 32.38 43.65 46.56 58.42 C 48.26 60.49 51.70 60.52 53.42 58.47 C 67.60 43.68 81.76 28.87 95.88 14.02 C 65.29 13.99 34.70 14.00 4.11 14.01 M 3.22 80.99 C 34.40 81.00 65.58 81.02 96.75 80.98 C 86.96 70.60 77.06 60.32 67.20 50.00 C 63.39 53.91 59.71 57.95 55.85 61.82 C 52.81 64.99 47.27 65.01 44.21 61.86 C 40.33 57.98 36.64 53.93 32.81 50.01 C 22.94 60.32 13.06 70.64 3.22 80.99 Z" />
</g>
<g id="#97e92dff">
<path fill="#97e92d" opacity="1.00" d=" M 4.11 14.01 C 34.70 14.00 65.29 13.99 95.88 14.02 C 81.76 28.87 67.60 43.68 53.42 58.47 C 51.70 60.52 48.26 60.49 46.56 58.42 C 32.38 43.65 18.24 28.83 4.11 14.01 Z" />
<path fill="#97e92d" opacity="1.00" d=" M 0.00 15.60 C 9.94 26.12 20.00 36.53 29.97 47.02 C 20.01 57.53 9.93 67.93 0.00 78.46 L 0.00 15.60 Z" />
<path fill="#97e92d" opacity="1.00" d=" M 70.05 47.03 C 80.00 36.53 90.08 26.14 100.00 15.61 L 100.00 78.44 C 90.06 67.93 80.01 57.52 70.05 47.03 Z" />
<path fill="#97e92d" opacity="1.00" d=" M 3.22 80.99 C 13.06 70.64 22.94 60.32 32.81 50.01 C 36.64 53.93 40.33 57.98 44.21 61.86 C 47.27 65.01 52.81 64.99 55.85 61.82 C 59.71 57.95 63.39 53.91 67.20 50.00 C 77.06 60.32 86.96 70.60 96.75 80.98 C 65.58 81.02 34.40 81.00 3.22 80.99 Z" />
</g>
</svg>
