<?xml version="1.0" encoding="UTF-8" ?>
<!DOCTYPE svg PUBLIC "-//W3C//DTD SVG 1.1//EN" "http://www.w3.org/Graphics/SVG/1.1/DTD/svg11.dtd">
<svg width="100pt" height="100pt" viewBox="0 0 100 100" version="1.1" xmlns="http://www.w3.org/2000/svg">
<g id="#f97070ff">
<path fill="#f97070" opacity="1.00" d=" M 18.76 0.00 L 71.28 0.00 C 80.90 9.53 90.45 19.11 100.00 28.70 L 100.00 81.26 C 95.85 81.27 91.69 81.27 87.54 81.25 C 87.52 64.59 87.53 47.93 87.53 31.27 C 81.28 31.25 75.03 31.28 68.78 31.25 C 68.68 24.98 68.93 18.71 68.63 12.44 C 56.17 12.65 43.70 12.46 31.23 12.54 C 31.23 14.60 31.23 16.66 31.24 18.73 C 27.10 18.75 22.97 18.69 18.84 18.78 C 18.67 12.52 18.81 6.26 18.76 0.00 Z" />
<path fill="#f97070" opacity="1.00" d=" M 0.00 25.00 C 17.55 25.02 35.10 24.96 52.65 25.03 C 62.14 34.65 71.79 44.10 81.26 53.73 C 81.21 69.16 81.24 84.58 81.24 100.00 L 0.00 100.00 L 0.00 25.00 M 13.89 50.01 C 13.85 51.88 13.80 53.75 14.11 55.60 C 26.02 55.49 37.93 55.47 49.84 55.61 C 50.03 53.75 50.05 51.88 49.99 50.01 C 37.96 50.00 25.92 49.99 13.89 50.01 M 13.82 69.69 C 13.87 71.45 13.90 73.22 13.89 74.99 C 25.93 75.01 37.96 75.00 50.00 75.00 C 50.04 73.14 49.99 71.27 49.89 69.42 C 37.87 69.69 25.81 69.14 13.82 69.69 Z" />
</g>
<g id="#ffffffff">
<path fill="#ffffff" opacity="1.00" d=" M 13.89 50.01 C 25.92 49.99 37.96 50.00 49.99 50.01 C 50.05 51.88 50.03 53.75 49.84 55.61 C 37.93 55.47 26.02 55.49 14.11 55.60 C 13.80 53.75 13.85 51.88 13.89 50.01 Z" />
<path fill="#ffffff" opacity="1.00" d=" M 13.82 69.69 C 25.81 69.14 37.87 69.69 49.89 69.42 C 49.99 71.27 50.04 73.14 50.00 75.00 C 37.96 75.00 25.93 75.01 13.89 74.99 C 13.90 73.22 13.87 71.45 13.82 69.69 Z" />
</g>
</svg>
