<?xml version="1.0" encoding="UTF-8" ?>
<!DOCTYPE svg PUBLIC "-//W3C//DTD SVG 1.1//EN" "http://www.w3.org/Graphics/SVG/1.1/DTD/svg11.dtd">
<svg width="80pt" height="80pt" viewBox="0 0 80 80" version="1.1" xmlns="http://www.w3.org/2000/svg">
<g id="#00cc00ff">
<path fill="#00cc00" opacity="1.00" d=" M 77.28 0.00 L 78.50 0.00 C 78.14 9.84 75.22 20.68 80.00 29.80 L 80.00 30.47 C 75.29 32.19 71.20 35.21 67.52 38.55 C 54.74 50.70 43.24 64.74 34.67 80.00 L 34.30 80.00 C 34.68 78.58 32.42 78.17 31.99 76.95 C 25.03 68.29 16.74 60.66 7.45 54.57 C 5.07 53.26 2.81 51.38 0.00 51.17 L 0.00 50.87 C 7.06 46.25 14.36 42.01 21.43 37.41 C 21.72 37.35 22.29 37.24 22.57 37.18 C 25.88 43.97 29.37 50.67 32.71 57.45 C 32.90 57.59 33.27 57.86 33.46 57.99 C 39.13 44.62 46.58 32.01 55.43 20.50 C 61.83 12.89 68.77 5.07 77.90 0.79 L 77.28 0.00 Z" />
</g>
</svg>
