<?xml version="1.0" encoding="UTF-8" ?>
<!DOCTYPE svg PUBLIC "-//W3C//DTD SVG 1.1//EN" "http://www.w3.org/Graphics/SVG/1.1/DTD/svg11.dtd">
<svg width="120pt" height="120pt" viewBox="0 0 120 120" version="1.1" xmlns="http://www.w3.org/2000/svg">
<g id="#cf123eff">
<path fill="#cf123e" opacity="1.00" d=" M 58.29 2.46 C 73.71 1.95 89.21 7.98 100.18 18.82 C 109.80 28.06 115.94 40.79 117.28 54.05 C 119.02 70.29 113.48 87.23 102.21 99.09 C 92.42 109.79 78.42 116.50 63.95 117.42 C 48.29 118.58 32.28 112.92 20.84 102.16 C 11.14 93.29 4.75 80.97 2.97 67.96 C 0.72 52.45 5.23 36.12 15.11 23.96 C 25.49 10.98 41.65 2.87 58.29 2.46 M 28.31 41.90 C 34.33 47.94 40.38 53.96 46.39 60.00 C 40.38 66.05 34.33 72.06 28.31 78.10 C 32.85 82.62 37.36 87.17 41.91 91.68 C 47.95 85.66 53.96 79.62 60.00 73.61 C 66.04 79.62 72.05 85.66 78.09 91.68 C 82.64 87.16 87.15 82.62 91.69 78.10 C 85.67 72.06 79.62 66.04 73.61 60.00 C 79.62 53.95 85.67 47.94 91.69 41.90 C 87.16 37.38 82.64 32.84 78.09 28.33 C 72.05 34.34 66.04 40.38 60.00 46.39 C 53.96 40.39 47.95 34.35 41.91 28.33 C 37.36 32.84 32.84 37.38 28.31 41.90 Z" />
</g>
</svg>
