<?xml version="1.0" encoding="UTF-8" ?>
<!DOCTYPE svg PUBLIC "-//W3C//DTD SVG 1.1//EN" "http://www.w3.org/Graphics/SVG/1.1/DTD/svg11.dtd">
<svg width="90pt" height="90pt" viewBox="0 0 90 90" version="1.1" xmlns="http://www.w3.org/2000/svg">
<g id="#fa4b58ff">
<path fill="#fa4b58" opacity="1.00" d=" M 25.49 8.24 C 30.84 7.89 36.21 8.18 41.57 8.09 C 41.24 9.78 40.85 11.45 40.50 13.14 C 41.30 13.07 42.90 12.94 43.70 12.88 C 43.37 15.36 43.03 17.85 42.69 20.33 C 41.60 20.38 40.51 20.43 39.42 20.48 C 38.95 23.75 38.53 27.02 38.05 30.29 C 38.95 30.09 40.76 29.69 41.66 29.49 C 40.77 32.81 40.01 36.17 39.39 39.55 C 38.21 39.94 36.84 40.01 35.83 40.77 C 34.22 52.85 32.59 64.94 31.05 77.04 C 30.80 79.53 28.84 82.09 26.12 81.93 C 17.47 82.00 8.81 81.89 0.15 81.98 C 1.95 79.78 3.83 77.64 5.70 75.49 C 8.39 75.45 11.09 75.66 13.79 75.51 C 14.94 75.51 15.57 74.17 15.70 73.19 C 16.96 63.95 17.82 54.65 19.29 45.44 C 15.86 46.40 12.43 47.32 9.01 48.30 C 9.91 44.99 10.42 41.59 11.35 38.28 C 14.52 36.75 18.14 36.34 21.47 35.20 C 22.10 30.28 22.68 25.35 23.64 20.48 C 20.39 20.36 17.14 20.41 13.89 20.40 C 14.33 17.97 14.68 15.52 14.97 13.07 C 18.22 13.03 21.47 13.19 24.70 12.83 C 24.96 11.30 25.25 9.78 25.49 8.24 Z" />
<path fill="#fa4b58" opacity="1.00" d=" M 54.55 8.23 C 64.59 7.93 74.64 8.13 84.68 8.13 C 86.47 15.37 87.99 22.68 90.00 29.86 L 90.00 30.63 C 85.17 30.64 80.35 30.69 75.52 30.59 C 74.42 25.51 73.11 20.47 71.90 15.40 C 69.85 15.41 67.80 15.42 65.75 15.49 C 63.18 20.60 60.51 25.65 57.76 30.66 C 53.50 30.64 49.24 30.67 44.97 30.61 C 48.37 23.24 51.49 15.74 54.55 8.23 Z" />
<path fill="#fa4b58" opacity="1.00" d=" M 44.15 33.87 C 59.43 33.85 74.72 33.87 90.00 33.86 L 90.00 35.35 C 88.02 44.32 86.26 53.33 84.23 62.28 C 83.52 65.09 82.35 68.69 79.02 69.18 C 71.88 69.66 64.70 69.26 57.55 69.38 C 58.09 67.04 58.61 64.70 59.12 62.35 C 62.87 61.81 68.78 64.09 70.72 59.71 C 72.39 53.31 73.33 46.73 75.01 40.32 C 69.10 40.19 63.18 40.25 57.26 40.28 C 55.15 51.23 52.92 62.16 50.80 73.11 C 50.34 74.48 51.40 76.17 52.97 75.80 C 65.31 75.75 77.65 75.79 89.99 75.76 C 87.15 77.96 84.25 80.19 81.05 81.84 C 67.73 82.05 54.38 81.97 41.06 81.88 C 37.92 82.10 35.49 78.95 36.21 75.95 C 38.69 61.90 41.48 47.89 44.15 33.87 Z" />
</g>
</svg>
