<?xml version="1.0" standalone="no"?><!DOCTYPE svg PUBLIC "-//W3C//DTD SVG 1.1//EN" "http://www.w3.org/Graphics/SVG/1.1/DTD/svg11.dtd"><svg width="200" height="200" viewBox="0 0 200 200" version="1.1" xmlns="http://www.w3.org/2000/svg" xmlns:xlink="http://www.w3.org/1999/xlink"><defs><style type="text/css"><![CDATA[
@font-face { font-family: ifont; src: url("http://at.alicdn.com/t/font_1442373896_4754455.eot?#iefix") format("embedded-opentype"), url("http://at.alicdn.com/t/font_1442373896_4754455.woff") format("woff"), url("http://at.alicdn.com/t/font_1442373896_4754455.ttf") format("truetype"), url("http://at.alicdn.com/t/font_1442373896_4754455.svg#ifont") format("svg"); }

]]></style></defs><g class="transform-group"><g transform="scale(0.1953125, 0.1953125)"><path d="M896.384 64 127.616 64C57.28 64 0 121.536 0 192.576l0 382.912C0 646.272 57.28 704 127.872 704l127.872 0 0 255.808L576 704l319.616 0C967.232 704 1024 646.464 1024 575.424L1024 192.576C1024 121.728 966.848 64 896.384 64zM512 640C494.336 640 480 625.664 480 608S494.336 576 512 576s32 14.336 32 32S529.664 640 512 640zM576 435.264C537.664 464.896 544 512 544 512s0 32-32 32S480 512 480 512s0-59.008 32-96S576 384 576 320 512 256 512 256 448 256 448 320c0 0 0 32-32 32S384 320 384 320c0-64 32-128 128-128s128 63.808 128 128S614.336 405.632 576 435.264z" fill="#ffffff"></path></g></g></svg>