<?xml version="1.0" encoding="UTF-8" ?>
<!DOCTYPE svg PUBLIC "-//W3C//DTD SVG 1.1//EN" "http://www.w3.org/Graphics/SVG/1.1/DTD/svg11.dtd">
<svg width="70pt" height="62pt" viewBox="0 0 70 62" version="1.1" xmlns="http://www.w3.org/2000/svg">
<g id="#1fc1d9ff">
<path fill="#1fc1d9" opacity="1.00" d=" M 24.59 0.00 L 26.18 0.00 C 38.67 6.63 50.67 14.14 62.99 21.08 C 65.64 22.69 69.01 23.91 70.00 27.17 L 70.00 29.19 C 65.62 37.90 60.35 46.14 55.64 54.68 C 53.97 57.40 52.79 60.94 49.43 62.00 L 47.67 62.00 C 36.58 56.53 26.18 49.68 15.35 43.67 C 13.40 43.07 12.51 40.28 15.01 39.67 C 24.01 44.26 32.53 49.76 41.35 54.70 C 43.86 55.96 46.12 58.07 48.96 58.47 C 51.66 55.51 53.10 51.65 55.25 48.30 C 58.87 41.82 62.82 35.51 66.25 28.92 C 67.36 27.43 65.11 26.53 64.19 25.84 C 51.19 18.41 38.33 10.71 25.27 3.38 C 18.00 6.23 10.53 8.57 3.37 11.71 C 4.39 18.48 5.63 25.21 6.75 31.96 C 6.76 34.15 9.04 35.74 8.65 37.96 C 6.45 39.95 4.03 36.82 3.71 34.67 C 2.38 27.52 1.21 20.34 0.00 13.17 L 0.00 11.53 C 0.64 8.36 3.98 7.52 6.57 6.52 C 12.61 4.42 18.52 1.97 24.59 0.00 Z" />
<path fill="#1fc1d9" opacity="1.00" d=" M 18.24 15.25 C 23.35 12.55 29.94 17.36 29.21 23.01 C 28.97 28.63 21.79 32.20 17.22 28.84 C 12.17 25.85 12.80 17.45 18.24 15.25 M 19.40 18.59 C 16.64 20.00 16.50 24.40 19.20 25.95 C 21.71 27.70 25.51 25.82 25.69 22.79 C 26.25 19.51 22.23 16.83 19.40 18.59 Z" />
</g>
</svg>
