<?xml version="1.0" standalone="no"?><!DOCTYPE svg PUBLIC "-//W3C//DTD SVG 1.1//EN" "http://www.w3.org/Graphics/SVG/1.1/DTD/svg11.dtd"><svg width="200" height="200" viewBox="0 0 200 200" version="1.1" xmlns="http://www.w3.org/2000/svg" xmlns:xlink="http://www.w3.org/1999/xlink"><defs><style type="text/css"><![CDATA[
@font-face { font-family: ifont; src: url("http://at.alicdn.com/t/font_1442373896_4754455.eot?#iefix") format("embedded-opentype"), url("http://at.alicdn.com/t/font_1442373896_4754455.woff") format("woff"), url("http://at.alicdn.com/t/font_1442373896_4754455.ttf") format("truetype"), url("http://at.alicdn.com/t/font_1442373896_4754455.svg#ifont") format("svg"); }

]]></style></defs><g class="transform-group"><g transform="scale(0.1953125, 0.1953125)"><path d="M669.056819 666.784272c-137.869553 137.879254-362.195649 137.879254-500.063156 0.017396-137.86853-137.863904-137.86853-362.164437 0-500.027317 137.86853-137.862881 362.194626-137.862881 500.063156 0C806.893625 304.636209 806.893625 528.937764 669.056819 666.784272zM246.110108 243.837494c-95.373999 95.354741-95.373999 250.52787-0.032747 345.882612s250.554509 95.338369 345.89576-0.016373c95.342275-95.354741 95.342275-250.496148 0-345.849866C496.631869 148.500149 341.418612 148.483776 246.110108 243.837494zM941.331892 832.343959c26.195665 26.194592 26.195665 68.669986 0 94.864578l-11.856511 11.856026c-26.195665 26.209942-68.656426 26.209942-94.884838 0L591.516708 695.983291c-26.195665-26.209942-26.195665-68.669986 0-94.864578l11.856511-11.872399c26.195665-26.194592 68.689173-26.194592 94.884838 0L941.331892 832.343959z" fill="#ffffff"></path></g></g></svg>