<?xml version="1.0" encoding="UTF-8" ?>
<!DOCTYPE svg PUBLIC "-//W3C//DTD SVG 1.1//EN" "http://www.w3.org/Graphics/SVG/1.1/DTD/svg11.dtd">
<svg width="32pt" height="21pt" viewBox="0 0 32 21" version="1.1" xmlns="http://www.w3.org/2000/svg">
<g id="#999de">
<path fill="#999" opacity="0.87" d=" M 13.67 0.00 L 18.00 0.00 C 24.02 0.74 29.46 4.62 32.00 10.15 L 32.00 10.84 C 29.45 16.39 23.96 20.33 17.89 21.00 L 13.89 21.00 C 7.91 20.18 2.50 16.34 0.00 10.81 L 0.00 10.15 C 2.49 4.70 7.80 0.94 13.67 0.00 M 2.40 10.53 C 4.06 13.50 6.50 16.09 9.67 17.45 C 16.81 20.94 26.16 17.61 29.60 10.48 C 28.06 7.76 25.92 5.33 23.09 3.92 C 15.89 -0.11 5.95 3.10 2.40 10.53 Z" />
<path fill="#999" opacity="0.87" d=" M 13.46 5.38 C 17.53 3.25 23.07 7.31 21.65 11.86 C 20.74 16.25 14.49 17.60 11.66 14.29 C 9.03 11.66 10.09 6.84 13.46 5.38 M 14.40 7.44 C 12.22 8.42 11.78 11.75 13.80 13.13 C 15.58 14.97 18.86 13.69 19.40 11.33 C 20.25 8.65 16.80 5.84 14.40 7.44 Z" />
</g>
</svg>
