<?xml version="1.0" standalone="no"?><!DOCTYPE svg PUBLIC "-//W3C//DTD SVG 1.1//EN" "http://www.w3.org/Graphics/SVG/1.1/DTD/svg11.dtd"><svg width="200" height="200" viewBox="0 0 200 200" version="1.1" xmlns="http://www.w3.org/2000/svg" xmlns:xlink="http://www.w3.org/1999/xlink"><defs><style type="text/css"><![CDATA[
@font-face { font-family: ifont; src: url("http://at.alicdn.com/t/font_1442373896_4754455.eot?#iefix") format("embedded-opentype"), url("http://at.alicdn.com/t/font_1442373896_4754455.woff") format("woff"), url("http://at.alicdn.com/t/font_1442373896_4754455.ttf") format("truetype"), url("http://at.alicdn.com/t/font_1442373896_4754455.svg#ifont") format("svg"); }

]]></style></defs><g class="transform-group"><g transform="scale(0.1953125, 0.1953125)"><path d="M512 432C467.84 432 432 467.84 432 512c0 44.16 35.84 80 80 80 44.16 0 80-35.84 80-80C592 467.84 556.16 432 512 432M512 192C246.912 192 32 512 32 512s214.912 320 480 320 480-320 480-320S777.088 192 512 192M512 712c-110.464 0-200-89.536-200-200 0-110.464 89.536-200 200-200S712 401.536 712 512C712 622.464 622.464 712 512 712" fill="#1fc1d9"></path></g></g></svg>