<?xml version="1.0" encoding="UTF-8" ?>
<!DOCTYPE svg PUBLIC "-//W3C//DTD SVG 1.1//EN" "http://www.w3.org/Graphics/SVG/1.1/DTD/svg11.dtd">
<svg width="30pt" height="28pt" viewBox="0 0 30 28" version="1.1" xmlns="http://www.w3.org/2000/svg">
<g id="#b4b4b4e0">
<path fill="#999" opacity="0.88" d=" M 23.28 0.00 L 25.97 0.00 C 27.87 0.69 29.31 2.15 30.00 4.06 L 30.00 6.74 C 28.85 11.07 23.09 12.12 20.22 8.82 C 17.71 9.84 15.28 11.09 12.84 12.28 C 12.93 13.43 12.93 14.58 12.85 15.73 C 15.29 16.91 17.71 18.17 20.24 19.18 C 23.09 15.87 28.85 16.94 30.00 21.26 L 30.00 23.95 C 29.31 25.85 27.87 27.31 25.97 28.00 L 23.27 28.00 C 20.46 27.10 18.81 24.22 19.21 21.33 C 16.74 20.21 14.35 18.86 11.81 17.92 C 8.55 22.16 1.26 20.79 0.00 15.51 L 0.00 12.58 C 1.14 7.25 8.53 5.80 11.78 10.07 C 14.34 9.18 16.73 7.77 19.22 6.67 C 18.80 3.78 20.46 0.90 23.28 0.00 M 22.24 3.27 C 19.30 6.47 24.98 10.88 27.19 7.13 C 29.67 4.24 24.61 0.17 22.24 3.27 M 4.40 10.22 C 2.52 11.42 1.35 14.18 2.85 16.12 C 4.28 19.23 9.48 18.72 10.37 15.44 C 11.88 11.99 7.67 8.40 4.40 10.22 M 22.37 20.32 C 21.13 21.71 21.16 24.22 22.89 25.17 C 25.18 27.33 29.20 23.78 27.44 21.23 C 26.57 19.23 23.92 18.94 22.37 20.32 Z" />
</g>
</svg>
