<?xml version="1.0" standalone="no"?><!DOCTYPE svg PUBLIC "-//W3C//DTD SVG 1.1//EN" "http://www.w3.org/Graphics/SVG/1.1/DTD/svg11.dtd"><svg width="200" height="200" viewBox="0 0 200 200" version="1.1" xmlns="http://www.w3.org/2000/svg" xmlns:xlink="http://www.w3.org/1999/xlink"><defs><style type="text/css"><![CDATA[
@font-face { font-family: ifont; src: url("http://at.alicdn.com/t/font_1442373896_4754455.eot?#iefix") format("embedded-opentype"), url("http://at.alicdn.com/t/font_1442373896_4754455.woff") format("woff"), url("http://at.alicdn.com/t/font_1442373896_4754455.ttf") format("truetype"), url("http://at.alicdn.com/t/font_1442373896_4754455.svg#ifont") format("svg"); }

]]></style></defs><g class="transform-group"><g transform="scale(0.1953125, 0.1953125)"><path d="M714.204793 204.151633 309.966099 204.151633c-169.950693 0-307.72557 137.773853-307.72557 307.726593s137.774877 307.72557 307.72557 307.72557l404.238694 0c169.951717 0 307.72557-137.77283 307.72557-307.72557S884.157533 204.151633 714.204793 204.151633zM302.307675 791.268448c-20.907169 0-41.270962-2.315742-60.866253-6.671956-13.912871-3.486404-27.563776-8.043187-40.891316-13.680581-33.472346-14.157441-63.539128-34.43016-89.36533-60.257385-25.826202-25.825179-46.098921-55.891961-60.257385-89.364307-14.651698-34.641985-22.080901-71.454402-22.080901-109.417015 0-37.962613 7.429203-74.776054 22.080901-109.417015 14.157441-33.472346 34.431184-63.539128 60.257385-89.36533 25.826202-25.826202 55.892985-46.099944 89.36533-60.257385 10.663874-4.510734 21.534456-8.330736 32.580023-11.466146 22.122857-5.637394 45.298695-8.640798 69.176522-8.640798 154.22964 0 279.269471 125.032668 279.269471 279.268448C581.577147 666.23885 456.537316 791.268448 302.307675 791.268448zM912.986115 710.659549c-25.825179 25.826202-55.892985 46.099944-89.36533 60.257385-34.640961 14.651698-71.453379 22.080901-109.415992 22.080901L387.63197 792.997835c9.79304-2.974751 19.455097-6.460132 28.958542-10.479679 34.963303-14.787798 66.360384-35.95591 93.318362-62.912865 26.959002-26.959002 48.127114-58.355059 62.914912-93.317339 15.314801-36.20662 23.079648-74.65735 23.079648-114.286929 0-39.628556-7.764847-78.08031-23.079648-114.284883-14.787798-34.963303-35.956933-66.35936-62.914912-93.318362-26.959002-26.959002-58.356083-48.126091-93.318362-62.913888-9.770528-4.133134-19.710924-7.696286-29.78742-10.725272l327.402725 0c37.962613 0 74.775031 7.429203 109.415992 22.080901 33.472346 14.157441 63.540152 34.431184 89.36533 60.257385 25.826202 25.826202 46.099944 55.892985 60.257385 89.36533 14.651698 34.640961 22.080901 71.454402 22.080901 109.417015 0 37.962613-7.429203 74.776054-22.080901 109.417015C959.08606 654.767588 938.813341 684.83437 912.986115 710.659549z" fill="#eeeeee"></path></g></g></svg>