<?xml version="1.0" encoding="UTF-8" ?>
<!DOCTYPE svg PUBLIC "-//W3C//DTD SVG 1.1//EN" "http://www.w3.org/Graphics/SVG/1.1/DTD/svg11.dtd">
<svg width="165pt" height="165pt" viewBox="0 0 165 165" version="1.1" xmlns="http://www.w3.org/2000/svg">
<g id="#ffb016ff">
<path fill="#ffb016" opacity="1.00" d=" M 81.29 0.00 L 85.96 0.00 C 105.69 0.93 125.04 8.98 139.30 22.69 C 154.69 37.15 163.96 57.68 165.00 78.74 L 165.00 86.53 C 163.89 106.53 155.49 126.07 141.34 140.30 C 126.95 155.13 106.83 163.97 86.23 165.00 L 78.95 165.00 C 60.45 164.09 42.29 157.00 28.37 144.74 C 10.83 129.63 0.22 106.88 0.00 83.72 L 0.00 79.03 C 0.97 56.68 11.35 34.93 28.32 20.31 C 42.83 7.53 61.97 0.26 81.29 0.00 M 46.55 49.98 C 46.50 71.98 46.54 93.99 46.53 116.00 C 46.17 119.59 49.23 123.08 52.88 122.96 C 72.94 123.05 93.02 122.99 113.08 122.99 C 116.91 123.34 120.33 119.84 119.98 116.03 C 120.02 98.42 119.99 80.80 120.00 63.18 C 113.35 56.63 106.70 50.07 100.03 43.54 C 84.37 43.54 68.70 43.50 53.03 43.55 C 49.53 43.31 46.40 46.51 46.55 49.98 Z" />
<path fill="#ffb016" opacity="1.00" d=" M 49.87 49.96 C 49.69 47.79 52.05 46.61 53.94 46.87 C 68.52 46.85 83.11 46.87 97.70 46.87 C 97.71 53.29 97.69 59.71 97.71 66.13 C 104.04 66.15 110.38 66.12 116.71 66.14 C 116.68 82.80 116.75 99.46 116.68 116.12 C 116.92 118.14 115.07 119.94 113.05 119.59 C 93.05 119.60 73.04 119.62 53.03 119.58 C 51.12 119.77 49.59 117.92 49.84 116.07 C 49.83 94.04 49.78 72.00 49.87 49.96 M 61.18 76.34 C 61.17 77.47 61.17 78.60 61.18 79.73 C 75.60 79.72 90.02 79.77 104.43 79.70 C 104.43 78.86 104.41 77.18 104.41 76.34 C 90.00 76.33 75.59 76.33 61.18 76.34 M 61.18 88.74 C 61.18 89.57 61.18 91.23 61.18 92.05 C 75.59 92.09 90.00 92.06 104.40 92.06 C 104.41 91.23 104.41 89.57 104.41 88.74 C 90.00 88.74 75.59 88.72 61.18 88.74 M 61.17 101.08 C 61.17 101.92 61.17 103.61 61.17 104.46 C 75.59 104.48 90.00 104.47 104.41 104.46 C 104.41 103.61 104.41 101.92 104.41 101.07 C 89.99 101.07 75.58 101.06 61.17 101.08 Z" />
<path fill="#ffb016" opacity="1.00" d=" M 101.06 49.20 C 105.62 53.74 110.20 58.26 114.76 62.80 C 110.20 62.79 105.63 62.80 101.07 62.80 C 101.05 58.27 101.06 53.73 101.06 49.20 Z" />
</g>
<g id="#ffffffff">
<path fill="#ffffff" opacity="1.00" d=" M 46.55 49.98 C 46.40 46.51 49.53 43.31 53.03 43.55 C 68.70 43.50 84.37 43.54 100.03 43.54 C 106.70 50.07 113.35 56.63 120.00 63.18 C 119.99 80.80 120.02 98.42 119.98 116.03 C 120.33 119.84 116.91 123.34 113.08 122.99 C 93.02 122.99 72.94 123.05 52.88 122.96 C 49.23 123.08 46.17 119.59 46.53 116.00 C 46.54 93.99 46.50 71.98 46.55 49.98 M 49.87 49.96 C 49.78 72.00 49.83 94.04 49.84 116.07 C 49.59 117.92 51.12 119.77 53.03 119.58 C 73.04 119.62 93.05 119.60 113.05 119.59 C 115.07 119.94 116.92 118.14 116.68 116.12 C 116.75 99.46 116.68 82.80 116.71 66.14 C 110.38 66.12 104.04 66.15 97.71 66.13 C 97.69 59.71 97.71 53.29 97.70 46.87 C 83.11 46.87 68.52 46.85 53.94 46.87 C 52.05 46.61 49.69 47.79 49.87 49.96 M 101.06 49.20 C 101.06 53.73 101.05 58.27 101.07 62.80 C 105.63 62.80 110.20 62.79 114.76 62.80 C 110.20 58.26 105.62 53.74 101.06 49.20 Z" />
<path fill="#ffffff" opacity="1.00" d=" M 61.18 76.34 C 75.59 76.33 90.00 76.33 104.41 76.34 C 104.41 77.18 104.43 78.86 104.43 79.70 C 90.02 79.77 75.60 79.72 61.18 79.73 C 61.17 78.60 61.17 77.47 61.18 76.34 Z" />
<path fill="#ffffff" opacity="1.00" d=" M 61.18 88.74 C 75.59 88.72 90.00 88.74 104.41 88.74 C 104.41 89.57 104.41 91.23 104.40 92.06 C 90.00 92.06 75.59 92.09 61.18 92.05 C 61.18 91.23 61.18 89.57 61.18 88.74 Z" />
<path fill="#ffffff" opacity="1.00" d=" M 61.17 101.08 C 75.58 101.06 89.99 101.07 104.41 101.07 C 104.41 101.92 104.41 103.61 104.41 104.46 C 90.00 104.47 75.59 104.48 61.17 104.46 C 61.17 103.61 61.17 101.92 61.17 101.08 Z" />
</g>
</svg>
