<?xml version="1.0" encoding="UTF-8" ?>
<!DOCTYPE svg PUBLIC "-//W3C//DTD SVG 1.1//EN" "http://www.w3.org/Graphics/SVG/1.1/DTD/svg11.dtd">
<svg width="110pt" height="110pt" viewBox="0 0 110 110" version="1.1" xmlns="http://www.w3.org/2000/svg">
<g id="#52bcfdff">
<path fill="#52bcfd" opacity="1.00" d=" M 24.37 6.48 C 37.22 0.02 52.03 -0.28 66.14 0.78 C 69.80 1.77 73.61 1.76 77.16 3.16 C 88.96 6.23 99.42 14.58 104.38 25.83 C 110.56 39.42 110.51 54.91 109.07 69.54 L 108.83 69.74 C 105.66 71.82 105.25 76.01 102.86 78.78 C 99.82 83.32 94.50 85.20 90.28 88.31 C 88.00 91.53 88.88 96.16 86.37 99.37 C 85.46 101.21 82.76 102.51 83.57 104.84 C 73.65 108.89 62.77 109.96 52.05 109.76 C 40.90 109.33 29.44 107.39 19.99 101.06 C 12.09 95.91 6.50 87.77 3.54 78.92 C -0.29 66.13 -0.69 52.30 1.58 39.15 C 3.70 25.67 11.69 12.47 24.37 6.48 M 49.00 10.98 C 44.12 12.52 41.03 17.40 40.33 22.29 C 39.41 28.41 39.19 35.07 42.46 40.59 C 43.76 43.60 46.58 45.77 47.43 48.98 C 47.99 50.91 46.53 52.43 45.67 53.97 C 45.63 56.63 45.60 59.30 45.69 61.96 C 45.95 65.51 48.50 69.03 52.04 69.86 C 53.42 67.53 56.37 67.47 57.92 69.67 C 61.24 68.14 63.55 64.63 63.45 60.95 C 63.40 57.59 63.85 54.11 62.69 50.89 C 61.93 48.69 63.48 46.59 64.76 44.93 C 67.98 40.66 70.44 35.48 70.24 30.02 C 70.24 24.27 69.76 17.83 65.39 13.59 C 61.01 9.69 54.40 9.24 49.00 10.98 M 65.65 54.67 C 65.34 58.84 66.59 63.47 64.15 67.20 C 62.85 69.58 60.42 70.91 58.06 72.02 C 57.20 73.00 56.25 73.87 54.96 74.25 C 54.36 77.36 56.79 80.80 59.99 81.14 C 63.86 81.62 67.52 76.88 65.51 73.37 C 64.36 71.69 65.36 69.78 66.11 68.18 C 67.03 67.67 67.98 67.25 68.98 66.91 C 69.98 67.23 70.95 67.65 71.86 68.17 C 73.29 70.26 73.27 72.79 71.85 74.87 C 70.71 75.55 69.44 75.92 68.13 76.11 C 67.64 80.99 62.17 84.50 57.59 82.43 C 53.83 81.03 52.52 76.79 52.96 73.12 C 51.20 71.36 48.27 71.33 46.62 69.32 C 42.54 65.78 43.42 60.00 43.47 55.21 C 37.83 58.40 30.07 57.44 25.68 62.68 C 22.31 68.72 23.02 76.03 23.21 82.69 C 33.49 83.81 43.77 84.93 54.06 85.97 C 64.98 85.00 75.91 83.97 86.82 82.86 C 87.05 78.27 87.13 73.63 86.48 69.07 C 86.00 65.47 84.61 61.46 81.00 59.94 C 76.01 57.84 70.42 57.40 65.65 54.67 M 67.45 69.47 C 66.85 70.77 66.88 72.25 67.45 73.55 C 68.48 74.10 69.52 74.09 70.57 73.55 C 71.11 72.22 71.11 70.73 70.54 69.41 C 69.47 68.89 68.44 68.91 67.45 69.47 Z" />
</g>
<g id="#ffffffff">
<path fill="#ffffff" opacity="1.00" d=" M 49.00 10.98 C 54.40 9.24 61.01 9.69 65.39 13.59 C 69.76 17.83 70.24 24.27 70.24 30.02 C 70.44 35.48 67.98 40.66 64.76 44.93 C 63.48 46.59 61.93 48.69 62.69 50.89 C 63.85 54.11 63.40 57.59 63.45 60.95 C 63.55 64.63 61.24 68.14 57.92 69.67 C 56.37 67.47 53.42 67.53 52.04 69.86 C 48.50 69.03 45.95 65.51 45.69 61.96 C 45.60 59.30 45.63 56.63 45.67 53.97 C 46.53 52.43 47.99 50.91 47.43 48.98 C 46.58 45.77 43.76 43.60 42.46 40.59 C 39.19 35.07 39.41 28.41 40.33 22.29 C 41.03 17.40 44.12 12.52 49.00 10.98 Z" />
<path fill="#ffffff" opacity="1.00" d=" M 65.65 54.67 C 70.42 57.40 76.01 57.84 81.00 59.94 C 84.61 61.46 86.00 65.47 86.48 69.07 C 87.13 73.63 87.05 78.27 86.82 82.86 C 75.91 83.97 64.98 85.00 54.06 85.97 C 43.77 84.93 33.49 83.81 23.21 82.69 C 23.02 76.03 22.31 68.72 25.68 62.68 C 30.07 57.44 37.83 58.40 43.47 55.21 C 43.42 60.00 42.54 65.78 46.62 69.32 C 48.27 71.33 51.20 71.36 52.96 73.12 C 52.52 76.79 53.83 81.03 57.59 82.43 C 62.17 84.50 67.64 80.99 68.13 76.11 C 69.44 75.92 70.71 75.55 71.85 74.87 C 73.27 72.79 73.29 70.26 71.86 68.17 C 70.95 67.65 69.98 67.23 68.98 66.91 C 67.98 67.25 67.03 67.67 66.11 68.18 C 65.36 69.78 64.36 71.69 65.51 73.37 C 67.52 76.88 63.86 81.62 59.99 81.14 C 56.79 80.80 54.36 77.36 54.96 74.25 C 56.25 73.87 57.20 73.00 58.06 72.02 C 60.42 70.91 62.85 69.58 64.15 67.20 C 66.59 63.47 65.34 58.84 65.65 54.67 Z" />
<path fill="#ffffff" opacity="1.00" d=" M 67.45 69.47 C 68.44 68.91 69.47 68.89 70.54 69.41 C 71.11 70.73 71.11 72.22 70.57 73.55 C 69.52 74.09 68.48 74.10 67.45 73.55 C 66.88 72.25 66.85 70.77 67.45 69.47 Z" />
</g>
<g id="#81daffff">
<path fill="#81daff" opacity="1.00" d=" M 102.86 78.78 C 105.25 76.01 105.66 71.82 108.83 69.74 C 107.08 84.67 97.73 99.02 83.57 104.84 C 82.76 102.51 85.46 101.21 86.37 99.37 C 88.88 96.16 88.00 91.53 90.28 88.31 C 94.50 85.20 99.82 83.32 102.86 78.78 Z" />
</g>
</svg>
