<?xml version="1.0" standalone="no"?><!DOCTYPE svg PUBLIC "-//W3C//DTD SVG 1.1//EN" "http://www.w3.org/Graphics/SVG/1.1/DTD/svg11.dtd"><svg width="200" height="200" viewBox="0 0 200 200" version="1.1" xmlns="http://www.w3.org/2000/svg" xmlns:xlink="http://www.w3.org/1999/xlink"><defs><style type="text/css"><![CDATA[
@font-face { font-family: ifont; src: url("http://at.alicdn.com/t/font_1442373896_4754455.eot?#iefix") format("embedded-opentype"), url("http://at.alicdn.com/t/font_1442373896_4754455.woff") format("woff"), url("http://at.alicdn.com/t/font_1442373896_4754455.ttf") format("truetype"), url("http://at.alicdn.com/t/font_1442373896_4754455.svg#ifont") format("svg"); }

]]></style></defs><g class="transform-group"><g transform="scale(0.1953125, 0.1953125)"><path d="M569.208956 155.598824c-214.853369 0-389.656581 175.983083-389.656581 392.285454 0 216.302371 174.803211 392.290571 389.656581 392.290571 214.846206 0 389.637138-175.9882 389.637138-392.290571C958.846094 331.581907 784.055163 155.598824 569.208956 155.598824zM569.208956 865.450984c-173.937494 0-315.436182-142.458549-315.436182-317.565682 0-175.107133 141.497665-317.565682 315.436182-317.565682 173.935448 0 315.414693 142.458549 315.414693 317.565682C884.623649 722.992435 743.144404 865.450984 569.208956 865.450984zM773.871219 566.000891l-185.54588 0 0-224.165456c0-20.629853-16.623609-37.359886-37.111223-37.359886-20.49273 0-37.109176 16.730033-37.109176 37.359886l0 261.525342c0 20.633946 16.616446 37.360909 37.109176 37.360909l222.657102 0c20.509103 0 37.114293-16.726963 37.114293-37.360909C810.985512 582.730924 794.380322 566.000891 773.871219 566.000891zM326.031495 154.906046c18.486026-8.92323 26.292829-31.233352 17.435091-49.841152-8.860808-18.602683-31.024597-26.503631-49.502437-17.546631-106.260116 51.243081-185.567369 141.15895-229.309616 260.007779-7.124258 19.355837 2.673899 40.84936 21.88238 48.015573 4.26207 1.590218 8.608052 2.355651 12.905938 2.355651 15.07637 0 29.251208-9.325389 34.791387-24.388457C171.161265 273.190009 237.480716 197.594287 326.031495 154.906046z" fill="#fff"></path></g></g></svg>