<?xml version="1.0" standalone="no"?><!DOCTYPE svg PUBLIC "-//W3C//DTD SVG 1.1//EN" "http://www.w3.org/Graphics/SVG/1.1/DTD/svg11.dtd"><svg width="200" height="200" viewBox="0 0 200 200" version="1.1" xmlns="http://www.w3.org/2000/svg" xmlns:xlink="http://www.w3.org/1999/xlink"><defs><style type="text/css"><![CDATA[
@font-face { font-family: ifont; src: url("http://at.alicdn.com/t/font_1442373896_4754455.eot?#iefix") format("embedded-opentype"), url("http://at.alicdn.com/t/font_1442373896_4754455.woff") format("woff"), url("http://at.alicdn.com/t/font_1442373896_4754455.ttf") format("truetype"), url("http://at.alicdn.com/t/font_1442373896_4754455.svg#ifont") format("svg"); }

]]></style></defs><g class="transform-group"><g transform="scale(0.1953125, 0.1953125)"><path d="M487.047 253.055c14.441-14.441 37.761-14.534 52.086-0.209l470.78 470.781c14.325 14.325 14.231 37.646-0.209 52.086v0c-14.441 14.441-37.761 14.534-52.086 0.209l-470.781-470.781c-14.323-14.325-14.23-37.646 0.21-52.086v0zM16.097 774.527c-14.441-14.441-14.534-37.761-0.209-52.086l470.781-470.78c14.325-14.325 37.646-14.231 52.086 0.209v0c14.441 14.441 14.534 37.761 0.209 52.086l-470.78 470.78c-14.326 14.325-37.647 14.231-52.087-0.209v0z" fill="#1fc1d9"></path></g></g></svg>