<?xml version="1.0" encoding="UTF-8" ?>
<!DOCTYPE svg PUBLIC "-//W3C//DTD SVG 1.1//EN" "http://www.w3.org/Graphics/SVG/1.1/DTD/svg11.dtd">
<svg width="90pt" height="90pt" viewBox="0 0 90 90" version="1.1" xmlns="http://www.w3.org/2000/svg">
<g id="#d0ceceff">
<path fill="#d0cece" opacity="1.00" d=" M 40.59 0.00 L 49.39 0.00 C 61.02 1.58 72.24 7.11 79.65 16.36 C 85.65 23.41 89.01 32.39 90.00 41.54 L 90.00 49.37 C 88.40 61.74 82.10 73.54 71.99 80.99 C 65.46 86.04 57.49 88.75 49.40 90.00 L 40.61 90.00 C 28.51 88.40 16.88 82.39 9.47 72.55 C 4.12 65.94 1.31 57.70 0.00 49.39 L 0.00 41.55 C 0.97 32.87 3.97 24.31 9.48 17.46 C 16.89 7.62 28.49 1.62 40.59 0.00 M 38.37 2.39 C 25.00 4.80 12.57 13.23 6.66 25.63 C 2.00 34.84 0.47 45.68 3.37 55.67 C 5.89 66.18 12.79 75.31 21.74 81.24 C 31.99 87.48 44.85 90.06 56.47 86.40 C 64.07 84.37 71.08 80.22 76.34 74.35 C 82.55 68.29 85.76 59.94 87.61 51.62 C 89.58 38.80 85.36 25.03 76.34 15.66 C 66.97 5.21 52.16 0.35 38.37 2.39 Z" />
<path fill="#d0cece" opacity="1.00" d=" M 20.05 24.94 C 19.93 22.93 20.90 20.54 23.14 20.24 C 27.82 19.67 32.55 20.09 37.26 20.05 C 37.15 20.53 36.95 21.48 36.84 21.96 C 32.07 22.41 27.25 21.83 22.49 22.48 C 21.70 31.29 22.31 40.16 22.12 49.00 C 22.26 54.89 21.85 60.80 22.28 66.67 C 23.38 68.74 26.10 67.72 27.97 68.03 C 40.50 67.70 53.08 68.56 65.57 67.57 C 65.81 63.76 65.96 59.94 65.97 56.12 C 66.45 56.12 67.41 56.12 67.88 56.12 C 67.84 59.65 68.21 63.22 67.63 66.72 C 67.17 69.27 64.33 70.15 62.05 70.00 C 50.36 70.03 38.65 69.97 26.96 70.02 C 24.65 69.95 21.50 70.19 20.43 67.60 C 19.87 65.45 20.00 63.20 19.97 61.00 C 20.09 48.98 19.89 36.96 20.05 24.94 Z" />
<path fill="#d0cece" opacity="1.00" d=" M 52.99 24.07 C 58.67 28.36 64.53 32.50 69.78 37.29 C 69.77 37.64 69.75 38.34 69.74 38.68 C 67.36 41.03 64.50 42.81 61.90 44.91 C 58.94 47.06 56.42 49.90 52.93 51.21 C 52.83 48.39 52.64 45.56 52.16 42.78 C 47.36 42.76 42.18 43.19 38.25 46.26 C 34.83 48.64 32.79 52.38 29.85 55.24 C 30.01 46.80 34.80 38.16 42.59 34.50 C 45.56 33.04 48.98 33.12 52.06 32.03 C 52.93 29.48 52.74 26.72 52.99 24.07 Z" />
</g>
<g id="#ffffffff">
<path fill="#ffffff" opacity="1.00" d=" M 38.37 2.39 C 52.16 0.35 66.97 5.21 76.34 15.66 C 85.36 25.03 89.58 38.80 87.61 51.62 C 85.76 59.94 82.55 68.29 76.34 74.35 C 71.08 80.22 64.07 84.37 56.47 86.40 C 44.85 90.06 31.99 87.48 21.74 81.24 C 12.79 75.31 5.89 66.18 3.37 55.67 C 0.47 45.68 2.00 34.84 6.66 25.63 C 12.57 13.23 25.00 4.80 38.37 2.39 M 20.05 24.94 C 19.89 36.96 20.09 48.98 19.97 61.00 C 20.00 63.20 19.87 65.45 20.43 67.60 C 21.50 70.19 24.65 69.95 26.96 70.02 C 38.65 69.97 50.36 70.03 62.05 70.00 C 64.33 70.15 67.17 69.27 67.63 66.72 C 68.21 63.22 67.84 59.65 67.88 56.12 C 67.41 56.12 66.45 56.12 65.97 56.12 C 65.96 59.94 65.81 63.76 65.57 67.57 C 53.08 68.56 40.50 67.70 27.97 68.03 C 26.10 67.72 23.38 68.74 22.28 66.67 C 21.85 60.80 22.26 54.89 22.12 49.00 C 22.31 40.16 21.70 31.29 22.49 22.48 C 27.25 21.83 32.07 22.41 36.84 21.96 C 36.95 21.48 37.15 20.53 37.26 20.05 C 32.55 20.09 27.82 19.67 23.14 20.24 C 20.90 20.54 19.93 22.93 20.05 24.94 M 52.99 24.07 C 52.74 26.72 52.93 29.48 52.06 32.03 C 48.98 33.12 45.56 33.04 42.59 34.50 C 34.80 38.16 30.01 46.80 29.85 55.24 C 32.79 52.38 34.83 48.64 38.25 46.26 C 42.18 43.19 47.36 42.76 52.16 42.78 C 52.64 45.56 52.83 48.39 52.93 51.21 C 56.42 49.90 58.94 47.06 61.90 44.91 C 64.50 42.81 67.36 41.03 69.74 38.68 C 69.75 38.34 69.77 37.64 69.78 37.29 C 64.53 32.50 58.67 28.36 52.99 24.07 Z" />
</g>
</svg>
