<?xml version="1.0" encoding="UTF-8" ?>
<!DOCTYPE svg PUBLIC "-//W3C//DTD SVG 1.1//EN" "http://www.w3.org/Graphics/SVG/1.1/DTD/svg11.dtd">
<svg width="40pt" height="40pt" viewBox="0 0 40 40" version="1.1" xmlns="http://www.w3.org/2000/svg">
<g id="#9ed969ff">
<path fill="#9ed969" opacity="1.00" d=" M 4.03 7.37 C 9.64 4.88 15.29 2.45 20.93 0.02 C 26.27 2.39 31.63 4.70 37.00 7.03 C 36.85 12.71 37.05 18.40 36.91 24.08 C 35.18 31.39 29.40 37.62 22.27 40.00 L 19.70 40.00 C 13.14 38.07 7.91 32.71 5.50 26.39 C 3.11 20.34 4.38 13.70 4.03 7.37 M 29.39 12.13 C 25.31 16.19 21.16 20.20 17.03 24.22 C 15.50 22.55 13.88 20.96 12.25 19.40 C 11.33 20.27 10.41 21.15 9.49 22.02 C 12.14 24.37 14.62 26.89 17.11 29.40 C 22.15 24.50 27.11 19.51 32.25 14.70 C 31.30 13.84 30.35 12.98 29.39 12.13 Z" />
</g>
</svg>
