<?xml version="1.0" encoding="UTF-8" ?>
<!DOCTYPE svg PUBLIC "-//W3C//DTD SVG 1.1//EN" "http://www.w3.org/Graphics/SVG/1.1/DTD/svg11.dtd">
<svg width="40pt" height="40pt" viewBox="0 0 40 40" version="1.1" xmlns="http://www.w3.org/2000/svg">
<g id="#fccb46ff">
<path fill="#fccb46" opacity="1.00" d=" M 26.24 0.00 L 27.65 0.00 C 29.21 0.37 30.93 0.68 32.09 1.91 C 34.89 4.53 34.49 8.68 35.57 12.07 C 34.57 15.18 31.00 17.29 31.11 20.68 C 32.98 23.87 37.40 23.44 40.00 25.81 L 40.00 32.42 C 36.85 33.11 33.65 33.53 30.43 33.74 C 30.22 32.90 29.79 31.22 29.57 30.37 C 27.80 27.85 24.18 27.91 22.01 25.87 C 22.23 23.00 24.84 20.80 25.69 18.02 C 24.71 13.21 24.14 7.77 19.60 4.84 C 20.73 2.08 23.28 0.26 26.24 0.00 Z" />
<path fill="#fccb46" opacity="1.00" d=" M 7.25 10.25 C 9.51 5.21 17.67 4.66 20.54 9.41 C 21.98 12.07 22.16 15.19 22.60 18.12 C 22.18 21.36 18.42 23.23 18.36 26.48 C 19.70 30.14 24.68 29.29 27.01 31.89 C 28.15 33.86 27.52 36.28 27.56 38.44 C 23.30 39.49 18.92 39.83 14.56 40.00 L 13.72 40.00 C 9.39 39.88 5.07 39.37 0.83 38.49 C 0.50 36.41 0.04 34.18 0.96 32.18 C 3.06 29.13 8.14 30.23 9.82 26.76 C 10.18 23.26 5.75 21.46 5.55 18.04 C 5.87 15.40 6.29 12.74 7.25 10.25 Z" />
</g>
</svg>
