<?xml version="1.0" encoding="UTF-8" ?>
<!DOCTYPE svg PUBLIC "-//W3C//DTD SVG 1.1//EN" "http://www.w3.org/Graphics/SVG/1.1/DTD/svg11.dtd">
<svg width="88pt" height="88pt" viewBox="0 0 88 88" version="1.1" xmlns="http://www.w3.org/2000/svg">
<g id="#dcdcdcff">
<path fill="#dcdcdc" opacity="1.00" d=" M 42.47 0.00 L 44.65 0.00 C 58.55 0.30 72.03 7.74 79.67 19.35 C 90.40 34.89 89.18 57.48 76.61 71.63 C 75.05 73.12 74.17 75.11 72.91 76.81 C 65.47 83.67 55.50 87.60 45.41 88.00 L 41.78 88.00 C 33.42 87.41 25.17 84.60 18.42 79.60 C 8.11 71.57 0.85 59.44 0.00 46.25 L 0.00 41.86 C 0.38 33.63 3.01 25.51 7.75 18.76 C 15.45 7.43 28.77 0.26 42.47 0.00 M 25.52 8.32 C 12.71 14.70 3.95 28.58 4.03 42.94 C 3.62 53.08 7.86 62.86 14.37 70.47 C 16.40 56.28 29.59 44.76 43.98 45.00 C 58.09 44.76 71.01 55.78 73.52 69.58 C 76.49 65.37 79.40 61.04 81.01 56.10 C 84.33 45.90 83.57 34.28 78.34 24.85 C 72.11 12.96 59.40 4.70 45.96 4.08 C 38.93 3.69 31.75 4.96 25.52 8.32 Z" />
<path fill="#dcdcdc" opacity="1.00" d=" M 39.53 11.69 C 47.32 9.01 56.52 14.10 58.47 22.09 C 60.87 30.03 55.32 39.10 47.19 40.64 C 39.38 42.58 30.83 37.01 29.35 29.13 C 27.59 21.82 32.33 13.79 39.53 11.69 Z" />
</g>
</svg>
