<?xml version="1.0" encoding="UTF-8" ?>
<!DOCTYPE svg PUBLIC "-//W3C//DTD SVG 1.1//EN" "http://www.w3.org/Graphics/SVG/1.1/DTD/svg11.dtd">
<svg width="100pt" height="100pt" viewBox="0 0 100 100" version="1.1" xmlns="http://www.w3.org/2000/svg">
<g id="#ea8010ff">
<path fill="#ea8010" opacity="1.00" d=" M 41.40 8.60 C 47.19 7.55 53.39 8.45 58.39 11.66 C 66.55 16.50 70.99 26.66 69.15 35.94 C 67.53 45.34 59.61 53.27 50.18 54.81 C 42.12 56.39 33.41 53.18 28.12 46.93 C 23.25 41.27 21.29 33.20 23.20 25.96 C 25.25 17.30 32.65 10.22 41.40 8.60 Z" />
<path fill="#ea8010" opacity="1.00" d=" M 9.55 87.02 C 9.69 72.99 19.13 59.92 31.95 54.51 C 40.46 59.61 51.55 59.68 60.04 54.51 C 64.64 56.53 68.85 59.37 72.41 62.92 C 66.56 65.46 62.16 71.34 62.41 77.86 C 62.24 83.04 65.18 87.70 69.11 90.85 C 51.07 90.61 33.03 90.84 14.99 90.73 C 12.62 90.87 9.86 89.66 9.55 87.02 Z" />
<path fill="#ea8010" opacity="1.00" d=" M 74.44 64.47 C 81.86 62.17 90.31 67.41 91.65 75.03 C 93.29 82.20 88.14 89.93 80.92 91.23 C 73.17 93.12 64.77 86.86 64.41 78.89 C 63.70 72.47 68.22 66.07 74.44 64.47 M 76.44 76.20 C 74.58 76.54 69.47 75.13 70.45 78.54 C 71.96 79.92 74.52 78.99 76.46 79.29 C 76.51 81.30 76.34 83.35 76.92 85.30 C 80.81 86.68 79.52 81.42 79.81 79.29 C 81.79 79.18 83.87 79.56 85.76 78.80 C 86.97 75.14 81.80 76.45 79.79 76.22 C 79.59 74.14 80.29 71.75 78.98 69.94 C 75.40 69.43 76.80 74.06 76.44 76.20 Z" />
</g>
</svg>
