<?xml version="1.0" encoding="UTF-8" ?>
<!DOCTYPE svg PUBLIC "-//W3C//DTD SVG 1.1//EN" "http://www.w3.org/Graphics/SVG/1.1/DTD/svg11.dtd">
<svg width="40pt" height="40pt" viewBox="0 0 40 40" version="1.1" xmlns="http://www.w3.org/2000/svg">
<g id="#80daeaff">
<path fill="#80daea" opacity="1.00" d=" M 8.10 3.93 C 11.91 2.50 16.07 3.24 20.04 3.08 C 24.48 3.27 29.32 2.28 33.37 4.58 C 36.84 6.40 39.21 9.87 40.00 13.66 L 40.00 21.00 C 39.14 25.40 36.03 29.34 31.80 30.92 C 28.04 32.35 23.96 31.35 20.07 31.88 C 16.10 33.35 12.54 35.75 8.57 37.25 C 9.21 35.38 9.92 33.54 10.60 31.69 C 4.93 30.33 0.15 25.46 0.00 19.44 L 0.00 15.66 C 0.03 10.57 3.40 5.80 8.10 3.93 M 19.46 14.48 C 15.47 15.12 17.30 21.53 20.91 20.08 C 24.52 19.17 22.87 13.63 19.46 14.48 M 9.37 15.33 C 6.55 17.74 10.92 22.17 13.38 19.43 C 16.36 17.13 11.86 12.31 9.37 15.33 M 26.55 15.41 C 23.31 18.23 29.30 22.54 31.13 18.82 C 33.22 16.14 28.53 12.63 26.55 15.41 Z" />
</g>
</svg>
