<?xml version="1.0" encoding="UTF-8" ?>
<!DOCTYPE svg PUBLIC "-//W3C//DTD SVG 1.1//EN" "http://www.w3.org/Graphics/SVG/1.1/DTD/svg11.dtd">
<svg width="100pt" height="100pt" viewBox="0 0 100 100" version="1.1" xmlns="http://www.w3.org/2000/svg">
<g id="#434343ff">
<path fill="#434343" opacity="1.00" d=" M 43.24 4.28 C 55.37 2.44 68.14 5.72 77.90 13.16 C 88.18 20.88 94.96 33.08 96.01 45.90 C 97.27 58.86 92.61 72.23 83.65 81.67 C 74.15 91.88 59.84 97.36 45.95 96.02 C 32.84 94.97 20.37 87.90 12.67 77.25 C 4.71 66.44 1.85 52.11 5.09 39.08 C 9.22 21.16 25.01 6.74 43.24 4.28 M 41.51 7.84 C 30.45 10.01 20.41 16.77 14.20 26.17 C 8.04 35.37 5.60 47.03 7.73 57.91 C 9.65 68.49 15.77 78.23 24.45 84.57 C 33.15 91.06 44.39 94.08 55.17 92.68 C 66.52 91.40 77.18 85.24 84.09 76.16 C 91.11 67.13 94.27 55.21 92.56 43.90 C 90.97 32.16 84.16 21.28 74.39 14.60 C 64.96 8.00 52.78 5.50 41.51 7.84 Z" />
<path fill="#434343" opacity="1.00" d=" M 18.33 30.27 C 19.54 27.81 22.05 25.75 24.93 26.01 C 41.99 25.98 59.05 26.01 76.11 26.00 C 79.50 25.70 82.73 28.52 82.86 31.92 C 83.09 36.07 82.90 40.23 82.85 44.39 C 79.77 45.09 75.83 46.30 75.57 50.08 C 75.23 54.21 79.48 56.01 82.84 56.60 C 82.90 60.76 83.09 64.92 82.87 69.08 C 82.73 72.46 79.52 75.30 76.14 75.00 C 59.06 74.99 41.98 75.02 24.91 74.99 C 22.01 75.24 19.47 73.15 18.31 70.65 C 17.73 66.01 18.21 61.30 18.08 56.63 C 19.94 56.02 21.98 55.73 23.62 54.58 C 26.18 52.64 26.16 48.32 23.58 46.40 C 21.95 45.26 19.92 44.95 18.06 44.35 C 18.24 39.66 17.70 34.93 18.33 30.27 M 22.31 31.42 C 21.87 34.70 22.19 38.03 22.14 41.33 C 25.90 42.64 29.19 45.83 29.35 49.99 C 29.67 54.50 26.25 58.29 22.15 59.65 C 22.19 62.96 21.86 66.30 22.31 69.59 C 22.90 71.63 25.35 71.41 27.02 71.43 C 43.75 71.30 60.49 71.59 77.21 71.28 C 80.81 68.69 78.52 63.42 79.09 59.68 C 74.29 58.20 70.38 53.05 72.19 47.95 C 73.03 44.57 76.10 42.56 79.10 41.27 C 79.09 38.16 79.31 35.04 79.01 31.94 C 78.68 30.73 77.57 29.39 76.16 29.63 C 59.43 29.54 42.69 29.62 25.95 29.59 C 24.53 29.44 22.74 29.86 22.31 31.42 Z" />
<path fill="#434343" opacity="1.00" d=" M 40.99 40.07 C 42.18 40.09 43.37 40.11 44.57 40.14 C 46.57 42.76 48.60 45.37 50.71 47.92 C 52.83 45.37 54.45 42.30 57.03 40.17 C 57.88 40.15 59.58 40.11 60.43 40.08 C 58.14 42.71 55.78 45.28 53.80 48.15 C 56.32 48.17 58.84 48.16 61.36 48.20 C 61.17 48.67 60.80 49.61 60.61 50.08 C 57.86 50.33 55.08 50.15 52.32 50.15 C 52.32 51.68 52.32 53.20 52.33 54.73 C 55.24 54.72 58.16 54.71 61.07 54.72 C 61.08 55.21 61.08 56.18 61.09 56.67 C 58.18 56.68 55.28 56.67 52.38 56.64 C 52.36 58.71 52.34 60.77 52.32 62.84 C 51.55 62.83 50.01 62.82 49.24 62.81 C 49.24 60.77 49.25 58.73 49.25 56.70 C 46.28 56.67 43.32 56.67 40.35 56.66 C 40.37 56.17 40.42 55.20 40.45 54.71 C 43.39 54.72 46.33 54.72 49.27 54.65 C 49.28 53.55 49.28 51.34 49.28 50.24 C 46.18 49.62 41.62 51.67 39.79 48.49 C 42.35 48.13 44.95 48.11 47.54 48.14 C 45.41 45.41 43.20 42.74 40.99 40.07 Z" />
</g>
</svg>
