<?xml version="1.0" encoding="UTF-8" ?>
<!DOCTYPE svg PUBLIC "-//W3C//DTD SVG 1.1//EN" "http://www.w3.org/Graphics/SVG/1.1/DTD/svg11.dtd">
<svg width="100pt" height="100pt" viewBox="0 0 100 100" version="1.1" xmlns="http://www.w3.org/2000/svg">
<g id="#434343ff">
<path fill="#434343" opacity="1.00" d=" M 43.20 4.29 C 53.41 2.77 64.12 4.75 73.05 9.96 C 85.67 17.08 94.44 30.51 95.92 44.92 C 97.45 57.92 93.03 71.47 84.17 81.11 C 76.24 89.89 64.80 95.40 52.98 96.10 C 38.71 97.15 24.17 91.00 14.93 80.10 C 5.30 69.01 1.50 53.20 5.12 38.95 C 9.29 21.10 25.03 6.76 43.20 4.29 M 41.59 7.82 C 24.42 11.00 10.21 25.66 7.58 42.92 C 5.07 57.08 10.39 72.29 21.12 81.85 C 30.17 90.12 42.89 94.27 55.08 92.69 C 66.48 91.43 77.20 85.24 84.12 76.12 C 91.12 67.09 94.28 55.17 92.55 43.87 C 90.96 32.15 84.16 21.30 74.42 14.63 C 65.01 8.02 52.85 5.51 41.59 7.82 Z" />
<path fill="#434343" opacity="1.00" d=" M 29.06 26.00 C 27.85 24.69 27.83 22.66 30.01 22.52 C 37.17 30.64 43.21 39.72 49.98 48.18 C 56.09 40.16 61.98 31.99 68.09 23.97 C 68.86 22.45 71.08 22.06 71.66 24.06 C 65.85 32.82 59.17 41.01 52.99 49.53 C 60.71 49.66 68.46 49.15 76.16 49.78 C 76.74 51.55 75.82 52.87 73.96 52.72 C 66.48 52.83 58.99 52.70 51.50 52.75 C 51.50 56.17 51.50 59.58 51.50 63.00 C 59.75 63.07 68.00 62.86 76.25 63.12 C 76.16 63.80 75.99 65.15 75.90 65.82 C 67.83 66.83 59.61 65.96 51.49 66.27 C 51.42 70.05 51.71 73.86 51.37 77.63 C 50.45 78.83 49.54 78.83 48.63 77.62 C 48.29 73.84 48.58 70.04 48.49 66.25 C 40.37 66.07 32.22 66.65 24.12 65.91 C 24.12 65.21 24.12 63.82 24.13 63.12 C 32.25 62.85 40.37 63.07 48.50 63.00 C 48.50 59.58 48.50 56.17 48.50 52.75 C 40.78 52.61 33.04 53.01 25.33 52.59 C 23.35 52.94 23.35 49.63 25.09 49.66 C 32.35 49.26 39.65 49.64 46.93 49.50 C 41.00 41.65 34.99 33.85 29.06 26.00 Z" />
</g>
</svg>
