<?xml version="1.0" encoding="UTF-8" ?>
<!DOCTYPE svg PUBLIC "-//W3C//DTD SVG 1.1//EN" "http://www.w3.org/Graphics/SVG/1.1/DTD/svg11.dtd">
<svg width="50pt" height="50pt" viewBox="0 0 50 50" version="1.1" xmlns="http://www.w3.org/2000/svg">
<g id="#a0a0a0fe">
<path fill="#a0a0a0" opacity="1.00" d=" M 23.63 0.00 L 26.19 0.00 C 29.89 0.56 33.49 2.59 35.08 6.11 C 38.55 13.13 36.28 21.71 31.12 27.28 C 31.96 28.95 32.77 30.86 34.78 31.36 C 40.44 33.81 47.73 35.85 50.00 42.29 L 50.00 45.45 C 49.27 47.46 47.57 48.78 45.91 50.00 L 4.07 50.00 C 2.52 48.82 1.01 47.55 0.00 45.85 L 0.00 42.76 C 1.72 35.91 9.55 33.88 15.25 31.35 C 17.24 30.85 18.04 28.94 18.88 27.28 C 13.71 21.70 11.44 13.09 14.94 6.07 C 16.51 2.63 20.02 0.64 23.63 0.00 M 21.40 2.68 C 16.31 4.56 14.73 10.74 15.41 15.64 C 15.65 19.30 17.70 22.40 19.80 25.26 C 21.77 27.86 19.59 31.71 16.89 32.83 C 12.13 34.84 6.95 36.49 3.25 40.28 C 0.73 42.74 1.91 48.08 5.88 47.97 C 18.62 48.02 31.37 48.02 44.12 47.97 C 48.07 48.08 49.26 42.77 46.77 40.30 C 43.06 36.49 37.87 34.84 33.11 32.82 C 30.81 31.90 29.38 29.38 29.41 26.96 C 30.35 24.23 32.79 22.27 33.69 19.49 C 35.18 15.19 35.23 10.10 32.80 6.12 C 30.52 2.36 25.38 1.08 21.40 2.68 Z" />
</g>
</svg>
