<?xml version="1.0" encoding="UTF-8" ?>
<!DOCTYPE svg PUBLIC "-//W3C//DTD SVG 1.1//EN" "http://www.w3.org/Graphics/SVG/1.1/DTD/svg11.dtd">
<svg width="100pt" height="100pt" viewBox="0 0 100 100" version="1.1" xmlns="http://www.w3.org/2000/svg">
<g id="#f4c600ff">
<path fill="#f4c600" opacity="1.00" d=" M 7.26 14.32 C 9.11 13.74 11.09 14.04 13.00 13.99 C 37.69 14.03 62.39 13.98 87.08 14.01 C 89.42 13.62 89.91 16.24 89.78 17.97 C 89.60 23.84 90.03 29.74 89.57 35.59 C 89.04 37.16 87.26 36.61 86.02 36.77 C 80.00 36.81 73.97 36.63 67.96 36.82 C 60.57 37.15 54.59 44.61 55.84 51.90 C 56.60 57.86 61.88 62.91 67.92 63.18 C 74.83 63.48 81.77 62.99 88.69 63.38 C 90.21 64.40 89.60 66.48 89.79 68.02 C 89.61 73.27 89.95 78.54 89.65 83.78 C 89.73 85.14 88.38 86.13 87.09 85.99 C 62.07 86.03 37.05 85.96 12.03 86.03 C 10.43 85.95 8.73 86.26 7.21 85.63 C 6.09 84.79 6.32 83.31 6.22 82.10 C 6.27 60.70 6.27 39.31 6.22 17.91 C 6.31 16.67 6.11 15.17 7.26 14.32 Z" />
<path fill="#f4c600" opacity="1.00" d=" M 59.76 48.77 C 60.18 44.36 64.35 40.61 68.80 40.75 C 76.92 40.70 85.04 40.85 93.16 40.69 C 94.21 43.70 93.63 46.93 93.74 50.05 C 93.64 53.14 94.21 56.33 93.16 59.32 C 84.70 59.10 76.24 59.39 67.78 59.19 C 62.84 58.73 58.92 53.70 59.76 48.77 M 66.32 46.24 C 62.56 48.84 67.28 54.61 70.53 51.50 C 73.80 48.98 69.60 43.50 66.32 46.24 Z" />
</g>
</svg>
