<?xml version="1.0" encoding="UTF-8" ?>
<!DOCTYPE svg PUBLIC "-//W3C//DTD SVG 1.1//EN" "http://www.w3.org/Graphics/SVG/1.1/DTD/svg11.dtd">
<svg width="100pt" height="100pt" viewBox="0 0 100 100" version="1.1" xmlns="http://www.w3.org/2000/svg">
<g id="#434343ff">
<path fill="#434343" opacity="1.00" d=" M 43.22 4.28 C 53.65 2.73 64.60 4.85 73.64 10.30 C 85.94 17.50 94.44 30.71 95.91 44.88 C 97.43 57.68 93.19 71.00 84.62 80.62 C 76.89 89.41 65.69 95.07 54.02 96.02 C 39.88 97.38 25.32 91.66 15.82 81.12 C 5.84 70.27 1.58 54.49 4.86 40.11 C 8.63 21.74 24.64 6.79 43.22 4.28 M 41.50 7.84 C 24.38 11.05 10.21 25.69 7.58 42.91 C 5.02 57.30 10.56 72.76 21.62 82.29 C 30.64 90.29 43.15 94.24 55.12 92.69 C 66.52 91.41 77.22 85.22 84.14 76.11 C 91.13 67.08 94.27 55.17 92.55 43.88 C 90.96 32.15 84.15 21.28 74.39 14.60 C 64.95 8.00 52.78 5.50 41.50 7.84 Z" />
<path fill="#434343" opacity="1.00" d=" M 43.29 18.48 C 53.56 17.43 64.50 18.27 73.71 23.31 C 77.73 25.50 81.71 29.17 81.91 34.04 C 82.10 38.76 78.40 42.42 74.68 44.71 C 65.18 50.31 53.68 51.27 42.92 50.10 C 35.34 49.03 27.30 46.77 21.87 41.06 C 18.28 37.52 18.17 31.28 21.74 27.67 C 27.23 21.73 35.52 19.48 43.29 18.48 M 47.34 22.41 C 40.37 22.97 33.02 24.08 27.14 28.12 C 24.47 29.88 22.23 33.21 23.65 36.46 C 25.77 40.75 30.61 42.66 34.88 44.09 C 45.82 47.13 57.76 47.05 68.50 43.28 C 72.12 41.76 76.29 39.74 77.59 35.71 C 78.68 31.44 74.67 28.28 71.32 26.57 C 63.91 23.03 55.47 22.07 47.34 22.41 Z" />
<path fill="#434343" opacity="1.00" d=" M 77.59 50.79 C 77.94 48.54 80.48 48.63 82.16 48.07 C 82.31 55.72 75.17 60.49 68.75 62.76 C 57.29 66.69 44.45 66.72 32.94 63.01 C 26.33 60.80 18.90 56.12 18.79 48.32 C 20.20 48.71 21.60 49.14 23.00 49.60 C 24.10 54.83 29.33 57.48 33.96 59.01 C 44.41 62.19 55.82 62.25 66.31 59.23 C 70.78 57.77 75.93 55.62 77.59 50.79 Z" />
<path fill="#434343" opacity="1.00" d=" M 18.81 63.46 C 20.19 63.87 21.57 64.29 22.94 64.72 C 24.07 69.97 29.25 72.69 33.94 74.18 C 44.96 77.61 57.09 77.54 68.03 73.86 C 72.40 72.31 77.22 69.56 77.98 64.53 C 79.37 64.06 80.78 63.63 82.19 63.22 C 82.29 69.31 77.61 73.98 72.43 76.39 C 62.77 81.03 51.61 81.71 41.13 80.23 C 34.07 79.04 26.63 76.74 21.71 71.26 C 19.65 69.18 19.16 66.23 18.81 63.46 Z" />
</g>
</svg>
