<?xml version="1.0" encoding="UTF-8" ?>
<!DOCTYPE svg PUBLIC "-//W3C//DTD SVG 1.1//EN" "http://www.w3.org/Graphics/SVG/1.1/DTD/svg11.dtd">
<svg width="50pt" height="50pt" viewBox="0 0 50 50" version="1.1" xmlns="http://www.w3.org/2000/svg">
<g id="#29c1d7ff">
<path fill="#29c1d7" opacity="1.00" d=" M 23.61 0.00 L 26.22 0.00 C 29.63 0.56 33.03 2.27 34.70 5.43 C 38.61 12.39 36.60 21.49 31.19 27.08 C 31.88 28.56 32.27 30.53 34.07 31.05 C 39.91 33.68 47.71 35.59 50.00 42.36 L 50.00 45.39 C 49.42 47.58 47.55 48.82 45.78 50.00 L 4.23 50.00 C 2.53 48.89 0.82 47.65 0.00 45.71 L 0.00 42.64 C 1.82 35.93 9.51 33.85 15.18 31.40 C 17.29 30.90 18.17 28.95 18.81 27.09 C 13.40 21.49 11.38 12.39 15.30 5.43 C 16.95 2.32 20.27 0.62 23.61 0.00 Z" />
</g>
</svg>
