<?xml version="1.0" encoding="UTF-8" ?>
<!DOCTYPE svg PUBLIC "-//W3C//DTD SVG 1.1//EN" "http://www.w3.org/Graphics/SVG/1.1/DTD/svg11.dtd">
<svg width="90pt" height="90pt" viewBox="0 0 90 90" version="1.1" xmlns="http://www.w3.org/2000/svg">
<g id="#1fc1d9ff">
<path fill="#1fc1d9" opacity="1.00" d=" M 3.36 14.61 C 4.16 11.84 7.32 10.88 9.91 11.05 C 33.31 11.08 56.71 11.05 80.11 11.06 C 82.47 10.84 84.55 12.03 86.05 13.76 C 85.90 17.06 85.93 20.37 85.99 23.67 C 58.34 23.69 30.69 23.72 3.04 23.66 C 3.19 20.64 2.82 17.58 3.36 14.61 Z" />
<path fill="#1fc1d9" opacity="1.00" d=" M 3.08 27.85 C 30.71 27.84 58.35 27.84 85.98 27.85 C 85.91 43.27 85.96 58.69 85.96 74.11 C 86.09 76.60 83.20 77.97 81.05 77.91 C 57.01 77.98 32.97 77.94 8.94 77.94 C 6.10 78.20 3.07 76.08 3.14 73.07 C 3.05 58.00 3.17 42.92 3.08 27.85 M 18.69 40.39 C 20.83 48.71 22.86 57.06 24.97 65.39 C 25.76 65.39 27.34 65.39 28.13 65.40 C 30.17 57.05 32.27 48.72 34.42 40.40 C 33.61 40.41 31.99 40.43 31.18 40.44 C 29.70 46.38 28.29 52.35 26.79 58.29 C 24.25 52.67 23.73 46.30 21.80 40.42 C 20.76 40.41 19.72 40.40 18.69 40.39 M 43.68 40.42 C 43.74 48.75 43.72 57.08 43.68 65.41 C 44.50 65.39 46.14 65.36 46.96 65.34 C 46.77 57.04 46.80 48.74 46.94 40.44 C 45.85 40.43 44.76 40.43 43.68 40.42 M 57.18 40.47 C 57.37 48.76 57.34 57.06 57.20 65.35 C 58.02 65.36 59.66 65.38 60.49 65.39 C 60.44 62.30 60.43 59.20 60.40 56.11 C 63.50 55.92 66.99 56.55 69.70 54.68 C 74.58 51.55 74.07 42.71 68.33 40.80 C 64.68 40.01 60.89 40.52 57.18 40.47 Z" />
<path fill="#1fc1d9" opacity="1.00" d=" M 60.35 43.51 C 62.65 43.53 65.01 43.23 67.26 43.77 C 70.66 45.21 70.82 50.85 67.48 52.46 C 65.18 53.11 62.75 52.75 60.39 52.80 C 60.44 49.71 60.45 46.61 60.35 43.51 Z" />
</g>
</svg>
