<?xml version="1.0" encoding="UTF-8" ?>
<!DOCTYPE svg PUBLIC "-//W3C//DTD SVG 1.1//EN" "http://www.w3.org/Graphics/SVG/1.1/DTD/svg11.dtd">
<svg width="165pt" height="165pt" viewBox="0 0 165 165" version="1.1" xmlns="http://www.w3.org/2000/svg">
<g id="#60b0faff">
<path fill="#60b0fa" opacity="1.00" d=" M 81.38 0.00 L 83.61 0.00 C 102.23 0.23 120.69 6.96 135.00 18.88 C 153.48 33.98 164.79 57.41 165.00 81.29 L 165.00 86.33 C 164.00 104.99 156.72 123.30 144.21 137.23 C 129.66 153.84 108.22 163.95 86.19 165.00 L 79.05 165.00 C 60.03 164.11 41.36 156.62 27.27 143.77 C 10.36 128.67 0.21 106.35 0.00 83.67 L 0.00 79.72 C 0.73 56.86 11.45 34.57 28.92 19.79 C 43.37 7.31 62.29 0.24 81.38 0.00 M 48.95 53.81 C 44.99 55.50 41.93 59.48 42.02 63.89 C 41.95 74.24 42.05 84.59 41.98 94.95 C 42.01 97.60 41.81 100.45 43.16 102.85 C 45.34 107.16 50.25 109.48 54.95 109.49 C 66.61 109.59 78.28 109.50 89.95 109.52 C 92.01 109.29 93.71 110.58 95.43 111.49 C 102.35 115.35 109.30 119.16 116.24 122.96 C 114.20 118.50 112.08 114.07 110.00 109.63 C 116.50 110.05 124.00 105.98 124.45 98.90 C 124.61 87.24 124.52 75.57 124.50 63.91 C 124.57 57.39 118.18 52.43 111.96 52.54 C 94.30 52.50 76.63 52.56 58.96 52.52 C 55.60 52.53 52.06 52.30 48.95 53.81 Z" />
<path fill="#60b0fa" opacity="1.00" d=" M 45.90 63.93 C 45.81 59.30 50.70 56.24 54.95 56.42 C 73.99 56.42 93.03 56.36 112.07 56.45 C 116.17 56.46 120.70 59.50 120.61 63.94 C 120.67 75.32 120.68 86.70 120.61 98.07 C 120.70 102.19 116.74 105.17 112.92 105.50 C 109.90 105.70 106.87 105.56 103.85 105.63 C 105.12 108.35 106.41 111.07 107.67 113.80 C 103.01 111.30 98.43 108.68 93.78 106.18 C 92.33 105.32 90.57 105.67 88.98 105.57 C 77.61 105.62 66.25 105.60 54.88 105.58 C 50.65 105.74 45.79 102.67 45.91 98.04 C 45.85 86.68 45.87 75.30 45.90 63.93 M 56.21 64.17 C 53.72 65.46 55.12 69.53 57.89 69.02 C 74.28 69.14 90.67 69.02 107.05 69.08 C 108.43 68.94 110.28 69.39 111.10 67.92 C 112.49 66.55 111.07 63.69 109.14 63.92 C 93.09 63.77 77.03 63.94 60.98 63.84 C 59.40 63.90 57.75 63.69 56.21 64.17 M 56.47 77.60 C 54.11 78.40 54.54 82.28 57.04 82.47 C 68.32 82.72 79.62 82.59 90.90 82.54 C 94.31 82.87 94.35 77.08 90.90 77.43 C 79.43 77.49 67.92 77.16 56.47 77.60 M 56.30 91.54 C 54.45 92.84 55.58 96.23 57.87 96.02 C 66.57 96.09 75.28 96.14 83.98 95.99 C 87.02 96.12 87.02 90.92 84.00 91.01 C 76.36 90.80 68.70 91.02 61.06 90.91 C 59.51 91.14 57.58 90.44 56.30 91.54 Z" />
</g>
<g id="#ffffffff">
<path fill="#ffffff" opacity="1.00" d=" M 48.95 53.81 C 52.06 52.30 55.60 52.53 58.96 52.52 C 76.63 52.56 94.30 52.50 111.96 52.54 C 118.18 52.43 124.57 57.39 124.50 63.91 C 124.52 75.57 124.61 87.24 124.45 98.90 C 124.00 105.98 116.50 110.05 110.00 109.63 C 112.08 114.07 114.20 118.50 116.24 122.96 C 109.30 119.16 102.35 115.35 95.43 111.49 C 93.71 110.58 92.01 109.29 89.95 109.52 C 78.28 109.50 66.61 109.59 54.95 109.49 C 50.25 109.48 45.34 107.16 43.16 102.85 C 41.81 100.45 42.01 97.60 41.98 94.95 C 42.05 84.59 41.95 74.24 42.02 63.89 C 41.93 59.48 44.99 55.50 48.95 53.81 M 45.90 63.93 C 45.87 75.30 45.85 86.68 45.91 98.04 C 45.79 102.67 50.65 105.74 54.88 105.58 C 66.25 105.60 77.61 105.62 88.98 105.57 C 90.57 105.67 92.33 105.32 93.78 106.18 C 98.43 108.68 103.01 111.30 107.67 113.80 C 106.41 111.07 105.12 108.35 103.85 105.63 C 106.87 105.56 109.90 105.70 112.92 105.50 C 116.74 105.17 120.70 102.19 120.61 98.07 C 120.68 86.70 120.67 75.32 120.61 63.94 C 120.70 59.50 116.17 56.46 112.07 56.45 C 93.03 56.36 73.99 56.42 54.95 56.42 C 50.70 56.24 45.81 59.30 45.90 63.93 Z" />
<path fill="#ffffff" opacity="1.00" d=" M 56.21 64.17 C 57.75 63.69 59.40 63.90 60.98 63.84 C 77.03 63.94 93.09 63.77 109.14 63.92 C 111.07 63.69 112.49 66.55 111.10 67.92 C 110.28 69.39 108.43 68.94 107.05 69.08 C 90.67 69.02 74.28 69.14 57.89 69.02 C 55.12 69.53 53.72 65.46 56.21 64.17 Z" />
<path fill="#ffffff" opacity="1.00" d=" M 56.47 77.60 C 67.92 77.16 79.43 77.49 90.90 77.43 C 94.35 77.08 94.31 82.87 90.90 82.54 C 79.62 82.59 68.32 82.72 57.04 82.47 C 54.54 82.28 54.11 78.40 56.47 77.60 Z" />
<path fill="#ffffff" opacity="1.00" d=" M 56.30 91.54 C 57.58 90.44 59.51 91.14 61.06 90.91 C 68.70 91.02 76.36 90.80 84.00 91.01 C 87.02 90.92 87.02 96.12 83.98 95.99 C 75.28 96.14 66.57 96.09 57.87 96.02 C 55.58 96.23 54.45 92.84 56.30 91.54 Z" />
</g>
</svg>
