<?xml version="1.0" encoding="UTF-8" ?>
<!DOCTYPE svg PUBLIC "-//W3C//DTD SVG 1.1//EN" "http://www.w3.org/Graphics/SVG/1.1/DTD/svg11.dtd">
<svg width="78pt" height="78pt" viewBox="0 0 78 78" version="1.1" xmlns="http://www.w3.org/2000/svg">
<g id="#05c50cff">
<path fill="#05c50c" opacity="1.00" d=" M 10.77 0.00 L 67.88 0.00 C 72.31 0.63 76.21 3.42 78.00 7.56 L 78.00 71.28 C 76.58 74.23 74.21 76.58 71.26 78.00 L 7.74 78.00 C 3.57 76.35 0.80 72.48 0.00 68.14 L 0.00 10.84 C 0.71 5.26 5.22 0.78 10.77 0.00 M 20.26 14.29 C 12.26 17.15 5.67 25.18 6.60 33.98 C 7.11 39.99 11.22 44.91 15.97 48.29 C 15.03 50.62 14.35 53.05 13.39 55.37 C 16.28 54.10 18.87 52.17 21.92 51.29 C 25.29 51.74 28.63 52.44 32.04 52.42 C 30.75 47.37 31.29 41.76 34.41 37.47 C 38.53 31.12 46.36 28.19 53.72 28.66 C 49.72 15.08 32.75 9.16 20.26 14.29 M 43.75 31.94 C 37.37 34.47 32.41 40.99 32.99 48.04 C 33.25 54.46 38.13 59.85 43.87 62.23 C 48.88 64.49 54.60 64.28 59.82 62.88 C 62.02 64.11 64.28 65.22 66.45 66.49 C 65.79 64.54 65.11 62.60 64.44 60.65 C 69.53 56.71 74.16 50.53 72.29 43.72 C 69.17 31.97 54.24 27.07 43.75 31.94 Z" />
<path fill="#05c50c" opacity="1.00" d=" M 20.25 23.04 C 22.33 21.25 26.10 23.27 25.27 26.04 C 24.80 28.59 21.28 29.03 19.71 27.24 C 18.19 26.23 18.60 23.71 20.25 23.04 Z" />
<path fill="#05c50c" opacity="1.00" d=" M 36.33 23.28 C 38.08 21.52 41.69 22.51 41.73 25.16 C 42.00 27.89 38.30 29.41 36.41 27.52 C 34.83 26.51 34.62 24.29 36.33 23.28 Z" />
<path fill="#05c50c" opacity="1.00" d=" M 44.52 40.41 C 46.22 37.51 51.55 41.36 48.37 43.39 C 46.51 45.60 42.44 42.54 44.52 40.41 Z" />
<path fill="#05c50c" opacity="1.00" d=" M 57.46 40.34 C 59.15 37.55 64.29 41.34 61.32 43.34 C 59.44 45.58 55.27 42.69 57.46 40.34 Z" />
</g>
</svg>
