<?xml version="1.0" encoding="UTF-8" ?>
<!DOCTYPE svg PUBLIC "-//W3C//DTD SVG 1.1//EN" "http://www.w3.org/Graphics/SVG/1.1/DTD/svg11.dtd">
<svg width="110pt" height="110pt" viewBox="0 0 110 110" version="1.1" xmlns="http://www.w3.org/2000/svg">
<g id="#ffd666ff">
<path fill="#ffd666" opacity="1.00" d=" M 12.95 14.94 C 24.59 2.48 42.73 -0.31 59.00 0.33 C 73.65 0.69 89.46 5.07 98.93 17.00 C 109.73 30.48 110.59 48.79 109.49 65.30 C 107.37 70.37 105.42 75.67 101.94 80.01 C 98.89 83.80 94.01 85.29 90.44 88.44 C 88.89 90.64 88.70 93.49 87.79 95.98 C 86.62 100.40 82.91 103.35 79.74 106.35 C 67.19 109.99 53.84 110.71 40.94 108.71 C 29.59 107.13 18.35 102.07 11.09 92.96 C 3.36 83.53 0.97 71.12 0.16 59.26 C -0.08 43.78 1.93 26.77 12.95 14.94 M 51.13 13.83 C 49.19 13.98 47.26 14.21 45.34 14.49 C 46.93 15.84 49.01 16.05 50.97 16.41 C 51.92 17.30 52.86 18.20 53.79 19.11 C 53.99 20.95 54.20 22.79 54.47 24.62 C 55.86 23.11 56.04 21.02 56.39 19.10 C 57.28 18.19 58.18 17.30 59.10 16.42 C 61.03 16.06 63.04 15.77 64.66 14.55 C 62.84 14.24 61.03 13.96 59.21 13.74 C 58.23 12.76 57.25 11.78 56.28 10.80 C 56.02 8.96 55.73 7.13 55.38 5.31 C 54.17 8.25 53.31 11.42 51.13 13.83 M 32.31 25.42 C 28.01 26.34 23.93 29.00 22.03 33.06 C 19.54 38.12 19.89 43.94 20.50 49.38 C 22.02 61.90 24.49 74.55 30.15 85.92 C 32.12 89.65 34.41 93.47 38.01 95.84 C 40.41 97.40 44.21 97.61 46.18 95.27 C 48.54 90.93 47.88 85.19 51.60 81.55 C 53.21 79.79 56.11 79.47 57.92 81.13 C 62.13 84.63 61.39 90.73 63.81 95.22 C 65.92 97.81 70.12 97.36 72.56 95.47 C 76.41 92.54 78.81 88.16 80.85 83.87 C 85.87 72.79 88.18 60.71 89.58 48.69 C 90.14 43.21 90.36 37.29 87.59 32.32 C 84.93 27.52 79.30 25.02 73.96 25.03 C 66.40 24.75 59.69 30.24 52.04 28.69 C 45.52 27.35 39.15 23.72 32.31 25.42 Z" />
</g>
<g id="#ffffffff">
<path fill="#ffffff" opacity="1.00" d=" M 51.13 13.83 C 53.31 11.42 54.17 8.25 55.38 5.31 C 55.73 7.13 56.02 8.96 56.28 10.80 C 57.25 11.78 58.23 12.76 59.21 13.74 C 61.03 13.96 62.84 14.24 64.66 14.55 C 63.04 15.77 61.03 16.06 59.10 16.42 C 58.18 17.30 57.28 18.19 56.39 19.10 C 56.04 21.02 55.86 23.11 54.47 24.62 C 54.20 22.79 53.99 20.95 53.79 19.11 C 52.86 18.20 51.92 17.30 50.97 16.41 C 49.01 16.05 46.93 15.84 45.34 14.49 C 47.26 14.21 49.19 13.98 51.13 13.83 Z" />
<path fill="#ffffff" opacity="1.00" d=" M 36.90 28.36 C 37.58 29.89 37.89 31.54 38.29 33.16 C 39.14 34.12 40.02 35.07 40.89 36.02 C 42.19 36.06 43.49 36.10 44.78 36.15 C 44.79 36.57 44.79 37.41 44.79 37.84 C 43.48 37.89 42.17 37.94 40.86 37.99 C 40.00 38.91 39.14 39.83 38.29 40.76 C 37.95 42.42 37.56 44.08 36.85 45.63 C 36.17 43.72 36.13 41.59 35.14 39.80 C 33.56 37.70 30.56 38.04 28.35 37.12 C 29.94 36.35 31.70 36.06 33.43 35.80 C 35.68 33.93 36.20 31.04 36.90 28.36 Z" />
<path fill="#ffffff" opacity="1.00" d=" M 73.96 29.10 C 76.11 30.92 76.04 33.75 76.13 36.30 C 77.47 37.76 78.70 39.42 80.42 40.46 C 82.73 41.09 85.15 41.19 87.44 41.92 C 85.82 45.32 80.95 42.89 78.71 45.69 C 74.99 48.02 76.99 53.12 73.98 55.93 C 72.89 52.70 73.67 48.62 70.94 46.13 C 68.48 42.97 63.68 44.98 61.08 41.98 C 64.31 40.88 68.42 41.66 70.84 38.82 C 73.60 36.36 72.94 32.33 73.96 29.10 Z" />
</g>
<g id="#ffac32ff">
<path fill="#ffac32" opacity="1.00" d=" M 32.31 25.42 C 39.15 23.72 45.52 27.35 52.04 28.69 C 59.69 30.24 66.40 24.75 73.96 25.03 C 79.30 25.02 84.93 27.52 87.59 32.32 C 90.36 37.29 90.14 43.21 89.58 48.69 C 88.18 60.71 85.87 72.79 80.85 83.87 C 78.81 88.16 76.41 92.54 72.56 95.47 C 70.12 97.36 65.92 97.81 63.81 95.22 C 61.39 90.73 62.13 84.63 57.92 81.13 C 56.11 79.47 53.21 79.79 51.60 81.55 C 47.88 85.19 48.54 90.93 46.18 95.27 C 44.21 97.61 40.41 97.40 38.01 95.84 C 34.41 93.47 32.12 89.65 30.15 85.92 C 24.49 74.55 22.02 61.90 20.50 49.38 C 19.89 43.94 19.54 38.12 22.03 33.06 C 23.93 29.00 28.01 26.34 32.31 25.42 M 36.90 28.36 C 36.20 31.04 35.68 33.93 33.43 35.80 C 31.70 36.06 29.94 36.35 28.35 37.12 C 30.56 38.04 33.56 37.70 35.14 39.80 C 36.13 41.59 36.17 43.72 36.85 45.63 C 37.56 44.08 37.95 42.42 38.29 40.76 C 39.14 39.83 40.00 38.91 40.86 37.99 C 42.17 37.94 43.48 37.89 44.79 37.84 C 44.79 37.41 44.79 36.57 44.78 36.15 C 43.49 36.10 42.19 36.06 40.89 36.02 C 40.02 35.07 39.14 34.12 38.29 33.16 C 37.89 31.54 37.58 29.89 36.90 28.36 M 73.96 29.10 C 72.94 32.33 73.60 36.36 70.84 38.82 C 68.42 41.66 64.31 40.88 61.08 41.98 C 63.68 44.98 68.48 42.97 70.94 46.13 C 73.67 48.62 72.89 52.70 73.98 55.93 C 76.99 53.12 74.99 48.02 78.71 45.69 C 80.95 42.89 85.82 45.32 87.44 41.92 C 85.15 41.19 82.73 41.09 80.42 40.46 C 78.70 39.42 77.47 37.76 76.13 36.30 C 76.04 33.75 76.11 30.92 73.96 29.10 Z" />
</g>
<g id="#ffecceff">
<path fill="#ffecce" opacity="1.00" d=" M 101.94 80.01 C 105.42 75.67 107.37 70.37 109.49 65.30 C 109.45 65.97 109.38 67.31 109.34 67.98 C 108.38 73.06 107.34 78.18 105.18 82.91 C 100.68 94.00 91.07 102.64 79.74 106.35 C 82.91 103.35 86.62 100.40 87.79 95.98 C 88.70 93.49 88.89 90.64 90.44 88.44 C 94.01 85.29 98.89 83.80 101.94 80.01 Z" />
</g>
</svg>
