<?xml version="1.0" encoding="UTF-8" ?>
<!DOCTYPE svg PUBLIC "-//W3C//DTD SVG 1.1//EN" "http://www.w3.org/Graphics/SVG/1.1/DTD/svg11.dtd">
<svg width="110pt" height="110pt" viewBox="0 0 110 110" version="1.1" xmlns="http://www.w3.org/2000/svg">
<g id="#f97070ff">
<path fill="#f97070" opacity="1.00" d=" M 12.91 14.98 C 23.56 3.50 39.98 0.24 55.02 0.27 C 67.54 0.37 80.75 2.29 91.17 9.75 C 100.12 15.96 105.77 26.07 107.98 36.60 C 110.33 47.56 110.37 59.00 108.89 70.08 C 106.68 70.82 106.06 73.14 105.11 75.01 C 103.00 79.62 99.05 83.16 94.63 85.53 C 92.97 86.51 91.13 87.31 89.80 88.74 C 88.16 92.60 88.49 97.32 85.44 100.54 C 84.81 101.84 82.46 103.23 83.82 104.74 C 68.76 110.67 51.81 111.03 36.07 107.79 C 22.96 105.11 11.10 96.44 5.56 84.12 C 15.02 78.15 20.25 67.68 25.77 58.32 C 29.21 61.09 33.00 63.43 36.22 66.48 C 32.69 68.98 26.93 69.97 26.18 74.96 C 25.09 77.92 28.14 80.58 30.92 80.62 C 36.61 80.84 42.31 81.31 48.01 81.32 C 50.95 81.27 52.53 77.62 50.74 75.34 C 48.76 72.56 45.02 73.50 42.14 73.20 C 43.68 70.48 46.81 69.59 49.74 70.06 C 51.91 74.20 56.23 77.38 61.07 76.99 C 65.51 76.91 69.21 73.84 71.26 70.08 C 73.05 70.04 74.85 70.05 76.65 70.11 C 77.90 71.53 79.25 72.87 80.65 74.14 C 77.28 74.66 73.68 74.30 70.48 75.52 C 67.43 77.74 69.37 82.72 72.97 82.87 C 79.02 82.85 85.00 81.41 91.03 80.84 C 94.32 80.90 97.73 76.80 95.03 73.94 C 90.80 70.06 85.52 67.48 80.88 64.12 C 78.19 62.01 74.70 61.98 71.46 61.85 C 69.58 56.20 63.11 52.63 57.35 54.43 C 53.67 55.40 50.85 58.38 49.53 61.88 C 47.06 61.81 44.09 62.88 42.03 61.06 C 35.02 55.74 28.14 50.25 21.01 45.10 C 18.60 43.02 15.23 44.36 12.92 45.91 C 7.01 50.24 4.10 57.20 0.70 63.43 C -0.86 46.71 1.14 27.93 12.91 14.98 M 28.32 25.46 C 24.79 26.45 21.84 29.24 20.65 32.71 C 18.27 38.92 22.49 46.47 29.01 47.71 C 35.67 49.45 42.86 43.93 42.99 37.08 C 43.65 29.52 35.54 23.05 28.32 25.46 Z" />
</g>
<g id="#ffffffff">
<path fill="#ffffff" opacity="1.00" d=" M 28.32 25.46 C 35.54 23.05 43.65 29.52 42.99 37.08 C 42.86 43.93 35.67 49.45 29.01 47.71 C 22.49 46.47 18.27 38.92 20.65 32.71 C 21.84 29.24 24.79 26.45 28.32 25.46 Z" />
<path fill="#ffffff" opacity="1.00" d=" M 12.92 45.91 C 15.23 44.36 18.60 43.02 21.01 45.10 C 28.14 50.25 35.02 55.74 42.03 61.06 C 44.09 62.88 47.06 61.81 49.53 61.88 C 50.85 58.38 53.67 55.40 57.35 54.43 C 63.11 52.63 69.58 56.20 71.46 61.85 C 74.70 61.98 78.19 62.01 80.88 64.12 C 85.52 67.48 90.80 70.06 95.03 73.94 C 97.73 76.80 94.32 80.90 91.03 80.84 C 85.00 81.41 79.02 82.85 72.97 82.87 C 69.37 82.72 67.43 77.74 70.48 75.52 C 73.68 74.30 77.28 74.66 80.65 74.14 C 79.25 72.87 77.90 71.53 76.65 70.11 C 74.85 70.05 73.05 70.04 71.26 70.08 C 69.21 73.84 65.51 76.91 61.07 76.99 C 56.23 77.38 51.91 74.20 49.74 70.06 C 46.81 69.59 43.68 70.48 42.14 73.20 C 45.02 73.50 48.76 72.56 50.74 75.34 C 52.53 77.62 50.95 81.27 48.01 81.32 C 42.31 81.31 36.61 80.84 30.92 80.62 C 28.14 80.58 25.09 77.92 26.18 74.96 C 26.93 69.97 32.69 68.98 36.22 66.48 C 33.00 63.43 29.21 61.09 25.77 58.32 C 20.25 67.68 15.02 78.15 5.56 84.12 C 3.62 82.91 1.80 81.53 0.00 80.12 L 0.00 65.80 C 0.23 65.00 0.46 64.21 0.70 63.43 C 4.10 57.20 7.01 50.24 12.92 45.91 Z" />
</g>
<g id="#ff8e8eff">
<path fill="#ff8e8e" opacity="1.00" d=" M 105.11 75.01 C 106.06 73.14 106.68 70.82 108.89 70.08 C 106.83 84.78 97.81 98.89 83.82 104.74 C 82.46 103.23 84.81 101.84 85.44 100.54 C 88.49 97.32 88.16 92.60 89.80 88.74 C 91.13 87.31 92.97 86.51 94.63 85.53 C 99.05 83.16 103.00 79.62 105.11 75.01 Z" />
</g>
</svg>
