<?xml version="1.0" encoding="UTF-8" ?>
<!DOCTYPE svg PUBLIC "-//W3C//DTD SVG 1.1//EN" "http://www.w3.org/Graphics/SVG/1.1/DTD/svg11.dtd">
<svg width="110pt" height="110pt" viewBox="0 0 110 110" version="1.1" xmlns="http://www.w3.org/2000/svg">
<g id="#ffd666ff">
<path fill="#ffd666" opacity="1.00" d=" M 16.04 11.99 C 28.62 1.31 46.12 -0.44 61.98 0.54 C 76.13 1.29 91.15 6.31 99.82 18.16 C 109.77 31.53 110.57 49.12 109.49 65.13 C 106.94 70.79 105.15 77.12 100.52 81.54 C 97.74 84.29 93.97 85.63 90.82 87.88 C 88.74 89.42 88.99 92.34 88.29 94.59 C 87.47 99.69 83.23 103.14 79.60 106.38 C 68.76 109.55 57.33 110.42 46.09 109.39 C 33.48 108.34 20.41 103.93 11.99 94.02 C 1.64 82.03 -0.32 65.28 0.35 50.03 C 0.86 36.13 5.07 21.30 16.04 11.99 M 21.13 28.15 C 18.95 29.63 19.57 34.82 22.93 33.99 C 31.30 33.97 39.68 34.09 48.05 33.93 C 50.91 33.93 50.88 28.04 48.03 28.06 C 39.07 28.01 30.08 27.84 21.13 28.15 M 60.20 38.07 C 61.80 45.29 67.42 50.59 72.84 55.18 C 74.01 56.30 75.92 56.24 77.13 55.21 C 82.51 50.57 88.20 45.34 89.80 38.10 C 90.92 33.61 87.75 28.56 83.03 28.13 C 79.87 27.34 77.15 29.45 74.99 31.45 C 72.84 29.43 70.11 27.33 66.95 28.14 C 62.27 28.58 59.10 33.61 60.20 38.07 M 21.11 44.16 C 19.48 45.14 19.99 47.27 20.14 48.84 C 21.11 50.61 23.35 49.79 24.97 50.02 C 32.92 49.87 40.89 50.23 48.84 49.85 C 50.56 48.92 49.99 46.73 49.86 45.15 C 48.87 43.40 46.62 44.20 44.99 43.98 C 37.03 44.13 29.06 43.77 21.11 44.16 M 21.08 60.16 C 18.97 61.71 19.58 66.80 22.93 65.99 C 44.64 65.97 66.36 66.09 88.07 65.93 C 90.51 65.92 90.12 62.81 89.86 61.16 C 88.88 59.40 86.63 60.20 85.00 59.98 C 63.70 60.14 42.37 59.76 21.08 60.16 M 21.17 76.14 C 18.94 77.55 19.55 82.80 22.89 81.99 C 44.59 81.98 66.30 82.07 87.99 81.94 C 90.50 81.97 90.15 78.84 89.86 77.14 C 88.88 75.42 86.66 76.20 85.06 75.98 C 63.77 76.13 42.46 75.79 21.17 76.14 Z" />
</g>
<g id="#ffffffff">
<path fill="#ffffff" opacity="1.00" d=" M 21.13 28.15 C 30.08 27.84 39.07 28.01 48.03 28.06 C 50.88 28.04 50.91 33.93 48.05 33.93 C 39.68 34.09 31.30 33.97 22.93 33.99 C 19.57 34.82 18.95 29.63 21.13 28.15 Z" />
<path fill="#ffffff" opacity="1.00" d=" M 21.11 44.16 C 29.06 43.77 37.03 44.13 44.99 43.98 C 46.62 44.20 48.87 43.40 49.86 45.15 C 49.99 46.73 50.56 48.92 48.84 49.85 C 40.89 50.23 32.92 49.87 24.97 50.02 C 23.35 49.79 21.11 50.61 20.14 48.84 C 19.99 47.27 19.48 45.14 21.11 44.16 Z" />
<path fill="#ffffff" opacity="1.00" d=" M 21.08 60.16 C 42.37 59.76 63.70 60.14 85.00 59.98 C 86.63 60.20 88.88 59.40 89.86 61.16 C 90.12 62.81 90.51 65.92 88.07 65.93 C 66.36 66.09 44.64 65.97 22.93 65.99 C 19.58 66.80 18.97 61.71 21.08 60.16 Z" />
<path fill="#ffffff" opacity="1.00" d=" M 21.17 76.14 C 42.46 75.79 63.77 76.13 85.06 75.98 C 86.66 76.20 88.88 75.42 89.86 77.14 C 90.15 78.84 90.50 81.97 87.99 81.94 C 66.30 82.07 44.59 81.98 22.89 81.99 C 19.55 82.80 18.94 77.55 21.17 76.14 Z" />
</g>
<g id="#ff6c00ff">
<path fill="#ff6c00" opacity="1.00" d=" M 60.20 38.07 C 59.10 33.61 62.27 28.58 66.95 28.14 C 70.11 27.33 72.84 29.43 74.99 31.45 C 77.15 29.45 79.87 27.34 83.03 28.13 C 87.75 28.56 90.92 33.61 89.80 38.10 C 88.20 45.34 82.51 50.57 77.13 55.21 C 75.92 56.24 74.01 56.30 72.84 55.18 C 67.42 50.59 61.80 45.29 60.20 38.07 Z" />
</g>
<g id="#ffecceff">
<path fill="#ffecce" opacity="1.00" d=" M 100.52 81.54 C 105.15 77.12 106.94 70.79 109.49 65.13 C 108.62 76.05 104.83 87.10 97.26 95.22 C 92.48 100.42 86.25 104.11 79.60 106.38 C 83.23 103.14 87.47 99.69 88.29 94.59 C 88.99 92.34 88.74 89.42 90.82 87.88 C 93.97 85.63 97.74 84.29 100.52 81.54 Z" />
</g>
</svg>
