<?xml version="1.0" standalone="no"?><!DOCTYPE svg PUBLIC "-//W3C//DTD SVG 1.1//EN" "http://www.w3.org/Graphics/SVG/1.1/DTD/svg11.dtd"><svg width="200" height="200" viewBox="0 0 200 200" version="1.1" xmlns="http://www.w3.org/2000/svg" xmlns:xlink="http://www.w3.org/1999/xlink"><defs><style type="text/css"><![CDATA[
@font-face { font-family: ifont; src: url("http://at.alicdn.com/t/font_1442373896_4754455.eot?#iefix") format("embedded-opentype"), url("http://at.alicdn.com/t/font_1442373896_4754455.woff") format("woff"), url("http://at.alicdn.com/t/font_1442373896_4754455.ttf") format("truetype"), url("http://at.alicdn.com/t/font_1442373896_4754455.svg#ifont") format("svg"); }

]]></style></defs><g class="transform-group"><g transform="scale(0.1953125, 0.1953125)"><path d="M395.011 212.169c4.123 19.934 0 124.229 0 124.229-75.713 0.402-104.647 76.241-104.647 76.241-277.969 107.286-244.16 415.021-244.16 415.021l948.336-2.815c-4.928-369.394-241.999-409.389-241.999-409.389-17.444-64.906-108.994-79.057-108.994-79.057-15.285-55.102-13.197-91.2-6.537-124.229-114.978 31.421-184.106 14.781-241.999 0zM367.887 370.056c-7.593 0-13.749 4.827-13.749 10.784s6.158 10.784 13.749 10.784 13.749-4.827 13.749-10.784-6.158-10.784-13.749-10.784zM519.241 434.208c-9.452 0-17.093 5.831-17.093 13.022s7.643 13.022 17.093 13.022c9.452 0 17.093-5.831 17.093-13.022 0-7.188-7.643-13.022-17.093-13.022zM635.324 473.397c-4.976 0-8.997 3.167-8.997 7.065s4.022 7.065 8.997 7.065 8.997-3.167 8.997-7.065-4.046-7.065-8.997-7.065zM683.036 408.893c-3.794 0-6.889 2.411-6.889 5.405s3.067 5.405 6.889 5.405c3.794 0 6.889-2.411 6.889-5.405s-3.091-5.405-6.889-5.405zM652.368 350.55c-9.426 0-17.093 6.007-17.093 13.398s7.643 13.398 17.093 13.398 17.093-6.007 17.093-13.398-7.666-13.398-17.093-13.398zM383.899 483.552c-7.139 0-12.946 5.279-12.946 11.79s5.806 11.79 12.946 11.79 12.946-5.279 12.946-11.79-5.782-11.79-12.946-11.79zM326.436 427.395c-7.065 0-12.819 4.801-12.819 10.734s5.731 10.734 12.819 10.734 12.819-4.801 12.819-10.734c-0.023-5.934-5.756-10.734-12.819-10.734z" fill="#FC896F"></path></g></g></svg>