<?xml version="1.0" standalone="no"?><!DOCTYPE svg PUBLIC "-//W3C//DTD SVG 1.1//EN" "http://www.w3.org/Graphics/SVG/1.1/DTD/svg11.dtd"><svg width="200" height="200" viewBox="0 0 200 200" version="1.1" xmlns="http://www.w3.org/2000/svg" xmlns:xlink="http://www.w3.org/1999/xlink"><defs><style type="text/css"><![CDATA[
@font-face { font-family: ifont; src: url("http://at.alicdn.com/t/font_1442373896_4754455.eot?#iefix") format("embedded-opentype"), url("http://at.alicdn.com/t/font_1442373896_4754455.woff") format("woff"), url("http://at.alicdn.com/t/font_1442373896_4754455.ttf") format("truetype"), url("http://at.alicdn.com/t/font_1442373896_4754455.svg#ifont") format("svg"); }

]]></style></defs><g class="transform-group"><g transform="scale(0.1953125, 0.1953125)"><path d="M778.362819 712.347826C778.362819 712.347826 778.362819 712.347826 778.362819 712.347826l-173.481259-87.508246c7.676162-33.775112 1.535232-70.62069-18.422789-101.325337l32.23988-26.098951c36.845577 23.028486 84.437781 18.422789 116.677661-13.817091 36.845577-36.845577 36.845577-96.71964 0-133.565217-36.845577-36.845577-96.71964-36.845577-133.565217 0-32.23988 32.23988-36.845577 82.902549-12.281859 118.212894l-29.169415 24.563718c-19.958021-16.887556-44.521739-26.098951-69.085457-27.634183l-16.887556-145.847076c13.817091-6.14093 26.098951-15.352324 36.845577-26.098951 50.662669-50.662669 50.662669-133.565217 0-184.227886-50.662669-50.662669-133.565217-50.662669-184.227886 0-50.662669 50.662669-50.662669 133.565217 0 184.227886 21.493253 21.493253 49.127436 33.775112 78.296852 36.845577l30.704648 142.776612c-16.887556 6.14093-33.775112 16.887556-47.592204 30.704648-6.14093 6.14093-12.281859 13.817091-16.887556 21.493253l-95.184408-47.592204c1.535232-13.817091-4.605697-27.634183-13.817091-38.38081-19.958021-19.958021-52.197901-19.958021-70.62069 0-19.958021 19.958021-19.958021 52.197901 0 70.62069 18.422789 18.422789 47.592204 19.958021 67.550225 3.070465l96.71964 49.127436c-6.14093 24.563718-6.14093 52.197901 1.535232 76.761619l-130.494753 90.578711c-50.662669-33.775112-119.748126-29.169415-165.805097 15.352324-50.662669 50.662669-50.662669 133.565217 0 184.227886 50.662669 50.662669 133.565217 50.662669 184.227886 0 35.310345-35.310345 46.056972-85.973013 32.23988-130.494753l110.536732-110.536732c19.958021 19.958021 44.521739 32.23988 70.62069 36.845577l4.605697 62.944528c-10.746627 4.605697-19.958021 10.746627-29.169415 18.422789-33.775112 33.775112-33.775112 87.508246 0 121.283358 33.775112 33.775112 87.508246 33.775112 121.283358 0 33.775112-33.775112 33.775112-87.508246 0-121.283358-15.352324-15.352324-33.775112-23.028486-52.197901-24.563718L497.415292 726.164918c27.634183-4.605697 53.733133-15.352324 73.691154-36.845577 3.070465-3.070465 4.605697-4.605697 6.14093-7.676162l164.269865 107.466267c-4.605697 38.38081 7.676162 78.296852 36.845577 105.931034 50.662669 50.662669 133.565217 50.662669 184.227886 0 50.662669-50.662669 50.662669-133.565217 0-184.227886C913.463268 661.685157 830.56072 661.685157 778.362819 712.347826L778.362819 712.347826zM778.362819 712.347826" fill="#AE93E5"></path></g></g></svg>