<?xml version="1.0" encoding="UTF-8" ?>
<!DOCTYPE svg PUBLIC "-//W3C//DTD SVG 1.1//EN" "http://www.w3.org/Graphics/SVG/1.1/DTD/svg11.dtd">
<svg width="56pt" height="56pt" viewBox="0 0 56 56" version="1.1" xmlns="http://www.w3.org/2000/svg">
<g id="#9ed969ff">
<path fill="#9ed969" opacity="1.00" d=" M 25.19 5.21 C 32.57 4.76 41.12 5.85 46.18 11.83 C 51.33 17.96 51.38 26.56 50.58 34.12 C 49.71 41.18 44.91 47.88 37.83 49.70 C 30.77 51.57 22.91 51.59 16.08 48.84 C 9.77 46.25 6.17 39.62 5.49 33.08 C 4.63 25.88 5.23 17.78 9.96 11.94 C 13.61 7.37 19.60 5.68 25.19 5.21 M 15.00 27.00 C 15.00 27.50 15.00 28.50 15.00 29.00 C 16.67 28.99 18.33 28.99 20.00 29.00 C 20.00 28.50 20.00 27.50 20.00 27.00 C 18.33 27.01 16.67 27.01 15.00 27.00 M 26.00 27.00 C 26.00 27.50 26.00 28.50 26.00 29.00 C 27.67 28.99 29.33 28.99 31.00 29.00 C 31.00 28.50 31.00 27.50 31.00 27.00 C 29.33 27.01 27.67 27.01 26.00 27.00 M 37.00 27.00 C 37.00 27.50 37.00 28.50 37.00 29.00 C 38.67 28.99 40.33 28.99 42.00 29.00 C 42.00 28.50 42.00 27.50 42.00 27.00 C 40.33 27.01 38.67 27.01 37.00 27.00 Z" />
</g>
<g id="#ffffffff">
<path fill="#ffffff" opacity="1.00" d=" M 15.00 27.00 C 16.67 27.01 18.33 27.01 20.00 27.00 C 20.00 27.50 20.00 28.50 20.00 29.00 C 18.33 28.99 16.67 28.99 15.00 29.00 C 15.00 28.50 15.00 27.50 15.00 27.00 Z" />
<path fill="#ffffff" opacity="1.00" d=" M 26.00 27.00 C 27.67 27.01 29.33 27.01 31.00 27.00 C 31.00 27.50 31.00 28.50 31.00 29.00 C 29.33 28.99 27.67 28.99 26.00 29.00 C 26.00 28.50 26.00 27.50 26.00 27.00 Z" />
<path fill="#ffffff" opacity="1.00" d=" M 37.00 27.00 C 38.67 27.01 40.33 27.01 42.00 27.00 C 42.00 27.50 42.00 28.50 42.00 29.00 C 40.33 28.99 38.67 28.99 37.00 29.00 C 37.00 28.50 37.00 27.50 37.00 27.00 Z" />
</g>
</svg>
