<?xml version="1.0" standalone="no"?><!DOCTYPE svg PUBLIC "-//W3C//DTD SVG 1.1//EN" "http://www.w3.org/Graphics/SVG/1.1/DTD/svg11.dtd"><svg width="200" height="200" viewBox="0 0 200 200" version="1.1" xmlns="http://www.w3.org/2000/svg" xmlns:xlink="http://www.w3.org/1999/xlink"><defs><style type="text/css"><![CDATA[
@font-face { font-family: ifont; src: url("http://at.alicdn.com/t/font_1442373896_4754455.eot?#iefix") format("embedded-opentype"), url("http://at.alicdn.com/t/font_1442373896_4754455.woff") format("woff"), url("http://at.alicdn.com/t/font_1442373896_4754455.ttf") format("truetype"), url("http://at.alicdn.com/t/font_1442373896_4754455.svg#ifont") format("svg"); }

]]></style></defs><g class="transform-group"><g transform="scale(0.1953125, 0.1953125)"><path d="M746.653 534.225c-6.773-4.246-9.818-9.197-17.42-16.778-7.601-7.58-15.017-11.227-26.015-13.898-14.581-20.734-18.497-54.764-20.484-76.802-1.967-22.080-10.707-37.511-20.382-47.785 0-22.763 1.201-40.971-4.784-69.428 11.683-47.97-4.39-76.822-9.507-85.627-6.151-10.605-16.094-17.005-49.151-22.64-11.95-7.601-38.734-16.59-43.083-18.497-4.35-1.906-10.853-3.004-10.853-11.413 0-8.389 0-25.414 0-25.414s8.907-4.205 9.611-23.985c5.49-4.805 22.93-25.828 11.267-34.838-3.438-2.403-8.927 3.604-8.927 3.604s2.754-12.614 2.754-20.423c0-7.539 1.387-33.057-47.184-34.653 0 0 0-0.041 0-0.062-0.85 0-1.616 0.020-2.423 0.041-0.787 0-1.595-0.020-2.423-0.020 0 0.020 0 0.062 0 0.062-48.571 1.595-47.184 27.113-47.184 34.653 0 7.809 2.754 20.423 2.754 20.423s-5.51-6.006-8.907-3.604c-11.683 9.010 5.758 30.034 11.247 34.838 0.684 19.802 9.59 23.985 9.59 23.985s0 17.005 0 25.414c0 8.41-6.503 9.507-10.833 11.413-4.35 1.906-29.204 10.894-41.155 18.497-33.057 5.633-42.978 12.034-49.131 22.64-5.116 8.782-21.21 37.634-9.507 85.627-5.986 28.46-4.805 46.665-4.805 69.428-9.693 10.273-18.393 25.684-20.382 47.785-1.987 22.038-5.903 56.068-20.484 76.802-10.977 2.673-18.393 6.317-25.974 13.898-7.623 7.58-10.667 12.53-17.46 16.778-6.773 4.246-7.829 4.805-5.903 7.601 1.947 2.817 10.977 1.697 15.307-1.451 4.308-3.148 9.362-7.436 12.53-8.823 0.434 5.157-2.237 24.71-2.444 28.957-0.601 5.426-3.584 31.007-4.432 34.279-0.54 2.071-0.455 5.571 1.076 6.587 5.157 0.953 11.909-24.297 13.587-37.924 0 17.211-10.977 40.887-6.566 42.315 2.071 0.662 5.966-1.863 6.732-3.024-1.14 2.071 3.5 6.524 6.794 2.403 3.294-4.080 15.327-30.51 16.238-35.005 0.124 4.246-3.479 21.665-4.681 25.228-1.222 3.584-2.051 6.587-0.020 7.269 2.051 0.684 7.664-8.14 11.764-20.982 4.080-12.82 5.447-19.717 5.447-19.717s3.77 1.076 6.897-13.609c3.127-14.706 2.941-25.29 2.797-29.247 3.024-5.012 33.721-57.332 39.83-70.899 10.73-23.757 8.45-50.083 8.886-58.969 8.41-15.473 12.738-38.401 14.871-54.619 1.906 10.315 6.857 37.594 6.857 44.491 0 8.533 3.274 24.71-1.076 38.98-4.35 14.251-1.098 23.757-1.098 31.359 0 7.601-4.33 29.474-7.601 48.509-3.252 18.993-6.358 65.473-2.009 93.972 4.37 28.522 24.854 99.939 27.030 112.303 2.174 12.386 0 38.028-5.447 60.854-5.447 22.804-7.623 43.725-4.35 61.806 3.274 18.061 28.707 102.942 31.171 111.849 2.444 8.886-1.43 13.774-2.464 18.371-1.056 4.598 2.817 6.131 1.761 10.15-1.036 3.956-6.317 14.706-10.523 19.594-10.853 5.178-7.829 11.164 2.031 10.066 1.263 5.613 19.263 2.963 28.293 2.963 6.421 5.281 17.15 3.418 18.911-0.497 2.567-4.537 1.305-6.753-1.284-13.526-2.589-6.753-2.589-18.061 0-25.954s2.589-14.643 0-21.417-6.463-24.814-1.284-76.719c5.137-51.885-5.406-78.273-1.222-97.806 6.442-10.15 11.537-42.087 11.537-110.896 0-68.807 7.726-99.276 7.726-99.276s7.747 30.468 7.747 99.276c0 68.807 5.095 100.746 11.517 110.896 4.183 19.532-6.38 45.92-1.243 97.806 5.178 51.905 1.305 69.946-1.284 76.719-2.567 6.773-2.567 13.526 0 21.417 2.589 7.89 2.589 19.201 0 25.954-2.567 6.773-3.873 8.99-1.284 13.526 1.761 3.915 12.469 5.779 18.891 0.497 9.072 0 27.030 2.652 28.314-2.963 9.881 1.119 12.863-4.867 1.987-10.066-4.183-4.889-9.444-15.637-10.481-19.594-1.076-3.998 2.775-5.531 1.719-10.15-1.056-4.598-4.889-9.487-2.444-18.371 2.444-8.886 27.879-93.787 31.131-111.849 3.274-18.061 1.119-38.98-4.33-61.806-5.447-22.804-7.623-48.467-5.447-60.854 2.196-12.345 22.66-83.782 27.010-112.303 4.37-28.501 1.263-74.959-1.987-93.972-3.274-19.035-7.601-40.887-7.601-48.509 0-7.601 3.252-17.088-1.098-31.359-4.35-14.271-1.076-30.427-1.076-38.98 0-6.897 4.93-34.196 6.857-44.491 2.133 16.218 6.463 39.168 14.871 54.619 0.414 8.886-1.823 35.211 8.886 58.969 6.131 13.567 36.828 65.887 39.83 70.899-0.144 3.956-0.331 14.541 2.817 29.247 3.127 14.685 6.877 13.609 6.877 13.609s1.387 6.897 5.468 19.717c4.080 12.841 9.693 21.665 11.744 20.982 2.051-0.684 1.201-3.687 0-7.269-1.201-3.584-4.827-20.982-4.701-25.228 0.911 4.516 12.925 30.945 16.259 35.005 3.294 4.121 7.934-0.331 6.773-2.403 0.746 1.161 4.66 3.708 6.732 3.024 4.432-1.43-6.566-25.104-6.566-42.315 1.697 13.63 8.45 38.878 13.587 37.924 1.533-1.014 1.616-4.516 1.076-6.587-0.85-3.294-3.81-28.874-4.432-34.279-0.187-4.226-2.879-23.778-2.444-28.957 3.189 1.366 8.223 5.676 12.53 8.823 4.288 3.148 13.36 4.267 15.286 1.451 1.947-2.817 0.891-3.376-5.923-7.623z" fill="#9ED969"></path></g></g></svg>