<?xml version="1.0" standalone="no"?><!DOCTYPE svg PUBLIC "-//W3C//DTD SVG 1.1//EN" "http://www.w3.org/Graphics/SVG/1.1/DTD/svg11.dtd"><svg width="200" height="200" viewBox="0 0 200 200" version="1.1" xmlns="http://www.w3.org/2000/svg" xmlns:xlink="http://www.w3.org/1999/xlink"><defs><style type="text/css"><![CDATA[
@font-face { font-family: ifont; src: url("http://at.alicdn.com/t/font_1442373896_4754455.eot?#iefix") format("embedded-opentype"), url("http://at.alicdn.com/t/font_1442373896_4754455.woff") format("woff"), url("http://at.alicdn.com/t/font_1442373896_4754455.ttf") format("truetype"), url("http://at.alicdn.com/t/font_1442373896_4754455.svg#ifont") format("svg"); }

]]></style></defs><g class="transform-group"><g transform="scale(0.1953125, 0.1953125)"><path d="M513.212618 196.336644c81.080643 0 149.328004-35.377742 169.531138-83.466993 5.906523-14.058181-4.517897-29.595039-19.766183-29.595039l0-0.001023L355.064738 83.273589c-9.950629 0-17.526165 9.347902-14.999622 18.97312C354.083387 155.656129 426.26843 196.336644 513.212618 196.336644zM650.525983 164.408467c-8.033977 19.119453-26.136264 38.056758-49.669236 51.952232-18.352997 10.836813-48.50369 23.757077-87.908142 23.757077-34.356482 0-67.568908-7.850805-93.517907-22.10546-24.889877-13.672394-41.509393-32.29452-46.795792-52.43421l-14.981203 3.931542c13.09218 49.888224 78.402651 86.09689 155.294902 86.097914 33.958416 0 67.080791-8.959046 95.78453-25.910113 26.726711-15.782451 46.64025-36.839023 56.073086-59.290361L650.525983 164.408467zM589.552284 267.833001c-16.031115 9.467629-42.367947 20.75265-76.790944 20.75265-30.04427 0-59.075467-6.858198-81.747839-19.313881-21.650089-11.892865-36.096103-28.053939-40.676421-45.50438l-14.981203 3.931542c11.614525 44.255946 69.40165 76.376505 137.406486 76.375481 30.014594 0 59.293431-7.92039 84.667332-22.903639 23.664979-13.974269 41.305755-32.640398 49.673329-52.559053l-14.280238-5.998621C625.838721 239.23671 610.067526 255.719102 589.552284 267.833001zM510.785336 757.5106c-81.080643 0-149.328004 35.377742-169.531138 83.466993-5.906523 14.058181 4.517897 29.595039 19.766183 29.595039l0 0.001023 307.911812 0c9.951653 0 17.526165-9.346879 14.999622-18.97312C669.915589 798.191114 597.729523 757.5106 510.785336 757.5106zM373.47197 789.437753c8.033977-19.119453 26.136264-38.055734 49.669236-51.952232 18.352997-10.837836 48.50369-23.757077 87.908142-23.757077 34.356482 0 67.568908 7.850805 93.517907 22.10546 24.889877 13.672394 41.509393 32.29452 46.795792 52.43421l14.981203-3.931542c-13.09218-49.8872-78.402651-86.095867-155.293879-86.097914-33.958416 0-67.080791 8.959046-95.78453 25.910113-26.727735 15.782451-46.64025 36.840046-56.073086 59.290361L373.47197 789.437753zM434.44567 686.013219c16.031115-9.467629 42.367947-20.75265 76.790944-20.75265 30.04427 0 59.075467 6.858198 81.747839 19.313881 21.650089 11.892865 36.096103 28.053939 40.676421 45.50438l14.981203-3.931542c-11.614525-44.254923-69.402673-76.375481-137.405463-76.375481-30.014594 0-59.292408 7.92039-84.667332 22.903639-23.664979 13.974269-41.305755 32.640398-49.673329 52.559053l14.279215 5.998621C398.160255 714.610534 413.930427 698.128141 434.44567 686.013219zM906.854976 211.92569c-39.58967-4.832052-92.384084-1.146103-121.089869 17.971303-9.597589 6.380314-20.841677 13.277398-32.746822 20.579711-25.295106 15.516392-53.963029 33.101909-78.311577 52.741201-16.133446 12.986779-87.306438 53.695946-158.65851 90.749864-99.550297 51.697429-149.295258 71.001077-161.65168 71.822792-31.233352 2.087545-34.497699 2.309602-71.465658-81.217766-16.827247-38.109969-34.066887-66.837244-51.243081-85.383646-19.201318-20.73423-34.790364-24.714891-44.431955-24.391527l-0.138146 0.005117c-14.756075 0.61296-35.429931 14.632255-49.370431 28.253484-21.057595 20.575618-33.304524 45.484937-34.483372 70.169129-1.627057 35.382858 24.188912 76.365248 51.520397 119.751385 14.396895 22.852474 29.28293 46.483684 38.45687 67.385736 3.659343 8.360412 6.958482 16.105816 9.868765 22.939455 18.527982 43.514049 27.828812 65.35652 61.258179 80.682577 7.398504 3.409656 15.035438 4.877077 22.810518 4.877077 26.267247-0.002047 54.074569-16.750499 79.287811-31.939433 9.193383-5.538133 17.875113-10.768251 25.976628-14.931061 16.57449-8.496511 45.490054-13.171997 89.263-20.250206 43.418882-7.020904 102.882182-16.635889 182.937472-35.222199 51.965535-12.122085 96.018867-29.816073 130.934075-52.590775 29.272697-19.09387 45.701878-37.634132 54.527894-47.592948 1.233084-1.391696 2.65241-2.993171 3.761674-4.184299 4.025687-1.325182 7.516184-4.250814 9.44-8.401344 3.686972-7.953136 0.228197-17.390066-7.724938-21.077038-3.26537-1.514493-11.868305-4.137227-21.245883 4.178159-2.429329 2.15406-4.88424 4.924149-7.990998 8.429996-17.020652 19.208481-56.880475 64.186881-168.898735 90.319052-78.991052 18.337647-137.839345 27.853371-180.810019 34.802644-48.415686 7.829316-77.640288 12.555967-98.691743 23.345708-9.067516 4.660136-18.621103 10.417257-27.861558 15.98302-25.921369 15.614629-55.304583 33.313733-72.453149 25.408693-21.408589-9.81453-27.064402-21.428032-45.309952-64.274886-2.939959-6.903224-6.271844-14.727423-10.002818-23.24747-10.127661-23.077601-25.65531-47.723931-40.671305-71.559802-23.518646-37.334303-47.838541-75.93853-46.668902-101.343129 0.98749-20.669762 13.461593-37.377282 23.75196-47.752584 13.524015-13.637602 26.343995-19.645432 29.798676-20.412912 1.308809 0.154519 8.157797 1.569752 19.866467 14.214746 10.1645 10.974959 26.307156 33.17968 45.500287 76.649727 18.580171 41.98216 29.759791 66.461691 43.469024 81.395822 16.288988 17.744129 34.7085 20.299325 59.146075 18.662035 27.605731-1.836835 109.951181-41.97602 174.168762-75.324546 64.090691-33.284057 143.327336-77.607542 163.944909-94.203522 22.77061-18.3663 50.514487-35.385928 74.991971-50.4009 12.157901-7.458879 23.642466-14.503319 33.733289-21.211091 18.420535-12.267395 60.334133-17.687848 99.657744-12.889565 8.717546 1.060145 16.617469-5.131881 17.679661-13.833053C921.750221 220.903156 915.557172 212.987882 906.854976 211.92569z" fill="#80DAEA"></path></g></g></svg>