<?xml version="1.0" encoding="UTF-8" ?>
<!DOCTYPE svg PUBLIC "-//W3C//DTD SVG 1.1//EN" "http://www.w3.org/Graphics/SVG/1.1/DTD/svg11.dtd">
<svg width="56pt" height="56pt" viewBox="0 0 56 56" version="1.1" xmlns="http://www.w3.org/2000/svg">
<g id="#ff8888ff">
<path fill="#ff8888" opacity="1.00" d=" M 24.32 5.29 C 31.95 4.64 40.91 5.64 46.19 11.84 C 50.69 17.13 51.24 24.46 50.86 31.11 C 50.65 37.69 47.79 44.72 41.78 48.02 C 35.68 51.40 28.35 51.30 21.62 50.50 C 15.11 49.59 9.02 45.28 6.90 38.92 C 4.33 31.16 4.39 22.24 8.00 14.82 C 11.05 8.75 17.84 5.82 24.32 5.29 M 14.17 16.08 C 14.01 19.39 13.29 23.15 14.75 26.21 C 18.49 27.87 22.96 26.68 26.99 26.99 C 26.91 23.09 27.38 19.14 26.66 15.29 C 25.18 13.27 22.19 14.19 20.04 13.91 C 18.08 14.19 14.55 13.32 14.17 16.08 M 30.35 15.27 C 29.62 19.13 30.10 23.09 30.01 26.99 C 33.37 26.98 36.73 27.16 40.08 26.93 C 41.27 26.97 42.76 26.39 42.81 25.00 C 43.21 21.78 43.27 18.47 42.66 15.27 C 41.41 13.44 38.84 14.19 36.96 13.91 C 34.80 14.19 31.85 13.28 30.35 15.27 M 15.34 30.35 C 13.27 31.78 14.17 34.82 13.91 36.96 C 14.00 39.18 13.51 43.18 16.86 42.94 C 20.01 42.78 24.19 44.11 26.67 41.72 C 27.36 37.86 26.91 33.91 26.99 30.01 C 23.11 30.10 19.17 29.60 15.34 30.35 M 30.01 30.01 C 30.02 33.35 29.84 36.70 30.07 40.04 C 29.99 41.28 30.63 42.82 32.07 42.84 C 35.26 43.17 38.55 43.30 41.71 42.66 C 43.73 41.19 42.80 38.20 43.10 36.05 C 42.83 34.19 43.56 31.59 41.73 30.38 C 37.88 29.58 33.91 30.11 30.01 30.01 Z" />
<path fill="#ff8888" opacity="1.00" d=" M 16.00 15.97 C 19.00 15.95 22.01 15.95 25.02 15.97 C 25.04 19.00 25.05 22.03 25.05 25.06 C 22.03 25.06 19.01 25.05 15.99 25.03 C 15.96 22.01 15.96 18.99 16.00 15.97 Z" />
<path fill="#ff8888" opacity="1.00" d=" M 32.00 15.97 C 35.00 15.95 38.00 15.95 41.00 15.96 C 41.04 18.99 41.04 22.01 41.01 25.04 C 37.99 25.05 34.97 25.06 31.94 25.06 C 31.94 22.03 31.96 19.00 32.00 15.97 Z" />
<path fill="#ff8888" opacity="1.00" d=" M 15.99 31.96 C 19.01 31.95 22.04 31.94 25.06 31.94 C 25.06 34.97 25.04 38.00 24.99 41.03 C 21.99 41.05 18.99 41.05 15.99 41.02 C 15.96 38.00 15.96 34.98 15.99 31.96 Z" />
<path fill="#ff8888" opacity="1.00" d=" M 31.94 31.94 C 34.97 31.94 37.99 31.95 41.01 31.97 C 41.04 34.99 41.04 38.01 41.01 41.02 C 38.01 41.05 35.01 41.06 32.02 41.04 C 31.97 38.01 31.94 34.97 31.94 31.94 Z" />
</g>
<g id="#fffefeff">
<path fill="#fffefe" opacity="1.00" d=" M 14.17 16.08 C 14.55 13.32 18.08 14.19 20.04 13.91 C 22.19 14.19 25.18 13.27 26.66 15.29 C 27.38 19.14 26.91 23.09 26.99 26.99 C 22.96 26.68 18.49 27.87 14.75 26.21 C 13.29 23.15 14.01 19.39 14.17 16.08 M 16.00 15.97 C 15.96 18.99 15.96 22.01 15.99 25.03 C 19.01 25.05 22.03 25.06 25.05 25.06 C 25.05 22.03 25.04 19.00 25.02 15.97 C 22.01 15.95 19.00 15.95 16.00 15.97 Z" />
<path fill="#fffefe" opacity="1.00" d=" M 30.35 15.27 C 31.85 13.28 34.80 14.19 36.96 13.91 C 38.84 14.19 41.41 13.44 42.66 15.27 C 43.27 18.47 43.21 21.78 42.81 25.00 C 42.76 26.39 41.27 26.97 40.08 26.93 C 36.73 27.16 33.37 26.98 30.01 26.99 C 30.10 23.09 29.62 19.13 30.35 15.27 M 32.00 15.97 C 31.96 19.00 31.94 22.03 31.94 25.06 C 34.97 25.06 37.99 25.05 41.01 25.04 C 41.04 22.01 41.04 18.99 41.00 15.96 C 38.00 15.95 35.00 15.95 32.00 15.97 Z" />
<path fill="#fffefe" opacity="1.00" d=" M 15.34 30.35 C 19.17 29.60 23.11 30.10 26.99 30.01 C 26.91 33.91 27.36 37.86 26.67 41.72 C 24.19 44.11 20.01 42.78 16.86 42.94 C 13.51 43.18 14.00 39.18 13.91 36.96 C 14.17 34.82 13.27 31.78 15.34 30.35 M 15.99 31.96 C 15.96 34.98 15.96 38.00 15.99 41.02 C 18.99 41.05 21.99 41.05 24.99 41.03 C 25.04 38.00 25.06 34.97 25.06 31.94 C 22.04 31.94 19.01 31.95 15.99 31.96 Z" />
<path fill="#fffefe" opacity="1.00" d=" M 30.01 30.01 C 33.91 30.11 37.88 29.58 41.73 30.38 C 43.56 31.59 42.83 34.19 43.10 36.05 C 42.80 38.20 43.73 41.19 41.71 42.66 C 38.55 43.30 35.26 43.17 32.07 42.84 C 30.63 42.82 29.99 41.28 30.07 40.04 C 29.84 36.70 30.02 33.35 30.01 30.01 M 31.94 31.94 C 31.94 34.97 31.97 38.01 32.02 41.04 C 35.01 41.06 38.01 41.05 41.01 41.02 C 41.04 38.01 41.04 34.99 41.01 31.97 C 37.99 31.95 34.97 31.94 31.94 31.94 Z" />
</g>
</svg>
