<?xml version="1.0" encoding="UTF-8" ?>
<!DOCTYPE svg PUBLIC "-//W3C//DTD SVG 1.1//EN" "http://www.w3.org/Graphics/SVG/1.1/DTD/svg11.dtd">
<svg width="56pt" height="56pt" viewBox="0 0 56 56" version="1.1" xmlns="http://www.w3.org/2000/svg">
<g id="#fca66dff">
<path fill="#fca66d" opacity="1.00" d=" M 24.26 5.30 C 31.92 4.63 40.93 5.63 46.21 11.88 C 51.12 17.69 51.29 25.80 50.73 33.00 C 50.10 39.47 46.62 46.03 40.45 48.71 C 34.34 51.42 27.37 51.33 20.90 50.35 C 14.35 49.29 8.50 44.59 6.63 38.14 C 4.34 30.35 4.45 21.42 8.38 14.16 C 11.55 8.49 18.05 5.84 24.26 5.30 M 22.84 10.06 C 23.22 11.87 23.64 13.68 24.27 15.42 C 22.55 20.18 21.79 25.22 19.93 29.92 C 18.85 32.93 17.09 36.28 18.59 39.47 C 19.88 42.32 23.14 43.05 25.84 43.91 C 25.90 44.44 26.03 45.50 26.10 46.02 C 30.12 45.48 33.94 43.59 37.09 41.06 C 38.92 39.69 39.98 36.67 37.93 35.01 C 31.25 28.16 28.24 18.85 24.69 10.20 C 24.22 10.16 23.30 10.10 22.84 10.06 Z" />
</g>
<g id="#fff5efff">
<path fill="#fff5ef" opacity="1.00" d=" M 22.84 10.06 C 23.30 10.10 24.22 10.16 24.69 10.20 C 28.24 18.85 31.25 28.16 37.93 35.01 C 39.98 36.67 38.92 39.69 37.09 41.06 C 33.94 43.59 30.12 45.48 26.10 46.02 C 28.70 41.91 34.27 41.66 37.43 38.06 C 31.45 31.54 27.48 23.60 24.27 15.42 C 23.64 13.68 23.22 11.87 22.84 10.06 Z" />
</g>
<g id="#fedbc5ff">
<path fill="#fedbc5" opacity="1.00" d=" M 24.27 15.42 C 27.48 23.60 31.45 31.54 37.43 38.06 C 34.27 41.66 28.70 41.91 26.10 46.02 C 26.03 45.50 25.90 44.44 25.84 43.91 C 23.14 43.05 19.88 42.32 18.59 39.47 C 17.09 36.28 18.85 32.93 19.93 29.92 C 21.79 25.22 22.55 20.18 24.27 15.42 Z" />
</g>
</svg>
