<?xml version="1.0" encoding="UTF-8" ?>
<!DOCTYPE svg PUBLIC "-//W3C//DTD SVG 1.1//EN" "http://www.w3.org/Graphics/SVG/1.1/DTD/svg11.dtd">
<svg width="56pt" height="56pt" viewBox="0 0 56 56" version="1.1" xmlns="http://www.w3.org/2000/svg">
<g id="#fc896fff">
<path fill="#fc896f" opacity="1.00" d=" M 24.20 5.30 C 31.44 4.68 39.71 5.48 45.19 10.76 C 50.51 15.99 51.31 23.98 50.86 31.05 C 50.65 37.36 48.09 44.07 42.56 47.55 C 36.38 51.40 28.69 51.33 21.71 50.51 C 15.13 49.62 8.99 45.26 6.87 38.83 C 4.29 30.86 4.36 21.61 8.40 14.13 C 11.56 8.50 18.03 5.86 24.20 5.30 M 28.04 10.14 C 27.97 16.10 27.99 22.05 28.05 28.01 C 28.12 29.88 27.52 31.67 26.82 33.38 C 27.82 35.28 30.29 35.30 31.18 33.30 C 30.46 31.62 29.88 29.86 29.96 28.01 C 30.00 22.06 30.03 16.10 29.96 10.15 C 29.48 10.15 28.52 10.14 28.04 10.14 M 35.17 25.19 C 33.51 26.56 32.20 28.32 31.59 30.40 C 33.69 29.80 35.43 28.47 36.82 26.81 C 39.12 24.14 42.48 22.19 43.44 18.58 C 39.81 19.52 37.85 22.89 35.17 25.19 M 14.48 21.67 C 15.15 22.87 15.69 24.29 16.98 24.99 C 20.08 26.92 22.89 29.44 26.51 30.38 C 25.85 29.17 25.33 27.73 24.04 27.03 C 20.92 25.13 18.14 22.52 14.48 21.67 M 10.15 32.04 C 10.15 32.52 10.15 33.48 10.16 33.97 C 15.06 34.02 19.95 34.02 24.85 33.96 C 24.85 33.48 24.84 32.51 24.83 32.03 C 19.93 31.98 15.04 31.98 10.15 32.04 M 31.76 32.08 C 31.94 32.52 32.31 33.38 32.50 33.82 C 37.26 34.31 42.06 33.87 46.84 33.97 C 46.85 33.48 46.86 32.52 46.86 32.04 C 41.82 31.97 36.79 31.97 31.76 32.08 M 18.70 43.45 C 22.27 42.19 25.15 39.26 26.47 35.72 C 22.75 36.56 19.59 39.76 18.70 43.45 M 31.67 35.56 C 32.57 39.68 36.88 41.72 40.31 43.48 C 39.49 39.34 35.13 37.24 31.67 35.56 M 28.05 37.15 C 28.03 40.04 28.01 42.93 28.02 45.81 C 28.51 45.84 29.47 45.88 29.96 45.90 C 29.98 42.98 29.99 40.06 29.96 37.13 C 29.48 37.14 28.52 37.15 28.05 37.15 Z" />
</g>
<g id="#ffffffff">
<path fill="#ffffff" opacity="1.00" d=" M 28.04 10.14 C 28.52 10.14 29.48 10.15 29.96 10.15 C 30.03 16.10 30.00 22.06 29.96 28.01 C 29.88 29.86 30.46 31.62 31.18 33.30 C 30.29 35.30 27.82 35.28 26.82 33.38 C 27.52 31.67 28.12 29.88 28.05 28.01 C 27.99 22.05 27.97 16.10 28.04 10.14 Z" />
<path fill="#ffffff" opacity="1.00" d=" M 10.15 32.04 C 15.04 31.98 19.93 31.98 24.83 32.03 C 24.84 32.51 24.85 33.48 24.85 33.96 C 19.95 34.02 15.06 34.02 10.16 33.97 C 10.15 33.48 10.15 32.52 10.15 32.04 Z" />
<path fill="#ffffff" opacity="1.00" d=" M 31.76 32.08 C 36.79 31.97 41.82 31.97 46.86 32.04 C 46.86 32.52 46.85 33.48 46.84 33.97 C 42.06 33.87 37.26 34.31 32.50 33.82 C 32.31 33.38 31.94 32.52 31.76 32.08 Z" />
<path fill="#ffffff" opacity="1.00" d=" M 28.05 37.15 C 28.52 37.15 29.48 37.14 29.96 37.13 C 29.99 40.06 29.98 42.98 29.96 45.90 C 29.47 45.88 28.51 45.84 28.02 45.81 C 28.01 42.93 28.03 40.04 28.05 37.15 Z" />
</g>
<g id="#fee7e2ff">
<path fill="#fee7e2" opacity="1.00" d=" M 35.17 25.19 C 37.85 22.89 39.81 19.52 43.44 18.58 C 42.48 22.19 39.12 24.14 36.82 26.81 C 35.43 28.47 33.69 29.80 31.59 30.40 C 32.20 28.32 33.51 26.56 35.17 25.19 Z" />
<path fill="#fee7e2" opacity="1.00" d=" M 14.48 21.67 C 18.14 22.52 20.92 25.13 24.04 27.03 C 25.33 27.73 25.85 29.17 26.51 30.38 C 22.89 29.44 20.08 26.92 16.98 24.99 C 15.69 24.29 15.15 22.87 14.48 21.67 Z" />
<path fill="#fee7e2" opacity="1.00" d=" M 18.70 43.45 C 19.59 39.76 22.75 36.56 26.47 35.72 C 25.15 39.26 22.27 42.19 18.70 43.45 Z" />
<path fill="#fee7e2" opacity="1.00" d=" M 31.67 35.56 C 35.13 37.24 39.49 39.34 40.31 43.48 C 36.88 41.72 32.57 39.68 31.67 35.56 Z" />
</g>
</svg>
