<?xml version="1.0" encoding="UTF-8" ?>
<!DOCTYPE svg PUBLIC "-//W3C//DTD SVG 1.1//EN" "http://www.w3.org/Graphics/SVG/1.1/DTD/svg11.dtd">
<svg width="56pt" height="56pt" viewBox="0 0 56 56" version="1.1" xmlns="http://www.w3.org/2000/svg">
<g id="#fca66dff">
<path fill="#fca66d" opacity="1.00" d=" M 24.27 5.29 C 31.70 4.66 40.30 5.56 45.69 11.28 C 51.34 17.45 51.44 26.51 50.54 34.35 C 49.62 41.62 44.40 48.31 37.08 49.92 C 29.78 51.56 21.61 51.62 14.78 48.20 C 8.74 45.07 5.83 38.24 5.32 31.74 C 4.76 24.75 5.54 16.90 10.39 11.45 C 13.85 7.45 19.20 5.86 24.27 5.29 M 20.19 19.36 C 16.35 21.14 13.77 25.76 8.91 24.80 C 10.75 28.49 12.72 32.32 16.05 34.91 C 21.60 39.55 29.80 40.12 36.25 37.13 C 41.56 34.85 44.81 29.79 47.09 24.72 C 41.14 26.27 38.62 18.71 32.99 19.07 C 30.86 19.16 29.49 21.02 27.94 22.23 C 25.85 20.37 23.22 18.01 20.19 19.36 Z" />
<path fill="#fca66d" opacity="1.00" d=" M 28.92 24.93 C 30.23 23.03 31.98 20.16 34.75 21.28 C 37.99 22.88 40.43 25.78 43.83 27.15 C 40.56 33.21 34.03 37.48 27.01 36.97 C 20.56 36.98 15.17 32.50 12.16 27.09 C 14.77 25.72 17.29 24.18 19.68 22.46 C 21.35 22.50 23.01 22.55 24.67 22.63 C 25.92 23.67 27.32 24.52 28.92 24.93 M 16.80 28.63 C 23.23 32.93 31.86 33.07 38.24 28.58 C 35.17 26.29 31.19 25.07 27.82 27.55 C 24.23 25.19 20.04 26.20 16.80 28.63 Z" />
</g>
<g id="#ffffffff">
<path fill="#ffffff" opacity="1.00" d=" M 20.19 19.36 C 23.22 18.01 25.85 20.37 27.94 22.23 C 29.49 21.02 30.86 19.16 32.99 19.07 C 38.62 18.71 41.14 26.27 47.09 24.72 C 44.81 29.79 41.56 34.85 36.25 37.13 C 29.80 40.12 21.60 39.55 16.05 34.91 C 12.72 32.32 10.75 28.49 8.91 24.80 C 13.77 25.76 16.35 21.14 20.19 19.36 M 28.92 24.93 C 27.32 24.52 25.92 23.67 24.67 22.63 C 23.01 22.55 21.35 22.50 19.68 22.46 C 17.29 24.18 14.77 25.72 12.16 27.09 C 15.17 32.50 20.56 36.98 27.01 36.97 C 34.03 37.48 40.56 33.21 43.83 27.15 C 40.43 25.78 37.99 22.88 34.75 21.28 C 31.98 20.16 30.23 23.03 28.92 24.93 Z" />
<path fill="#ffffff" opacity="1.00" d=" M 16.80 28.63 C 20.04 26.20 24.23 25.19 27.82 27.55 C 31.19 25.07 35.17 26.29 38.24 28.58 C 31.86 33.07 23.23 32.93 16.80 28.63 Z" />
</g>
</svg>
