<?xml version="1.0" encoding="UTF-8" ?>
<!DOCTYPE svg PUBLIC "-//W3C//DTD SVG 1.1//EN" "http://www.w3.org/Graphics/SVG/1.1/DTD/svg11.dtd">
<svg width="56pt" height="56pt" viewBox="0 0 56 56" version="1.1" xmlns="http://www.w3.org/2000/svg">
<g id="#80daeaff">
<path fill="#80daea" opacity="1.00" d=" M 24.21 5.29 C 31.68 4.66 40.33 5.54 45.74 11.32 C 51.07 17.14 51.34 25.59 50.72 33.02 C 50.10 38.95 47.22 45.00 41.84 47.99 C 35.73 51.39 28.40 51.30 21.66 50.50 C 15.12 49.60 9.01 45.27 6.89 38.88 C 4.34 31.17 4.41 22.31 7.94 14.92 C 10.97 8.83 17.72 5.85 24.21 5.29 M 43.39 15.38 C 42.16 18.60 41.46 22.10 39.35 24.91 C 36.59 25.19 33.54 25.35 31.40 27.36 C 29.00 29.33 28.38 32.51 27.93 35.41 C 21.51 31.78 16.73 25.78 14.03 18.97 C 13.24 17.64 12.93 15.19 10.76 15.67 C 12.30 21.31 15.24 26.50 19.08 30.89 C 21.98 34.04 23.46 38.55 22.68 42.79 C 21.87 44.64 20.71 46.31 19.69 48.05 C 25.64 47.55 25.59 39.80 24.18 35.48 C 26.78 37.36 30.01 37.29 32.53 35.29 C 31.97 38.51 31.08 43.59 35.05 44.97 C 34.54 41.92 33.67 38.76 34.60 35.69 C 35.24 32.46 37.85 30.28 39.77 27.79 C 42.72 24.09 44.59 19.58 45.13 14.88 C 44.70 15.00 43.83 15.26 43.39 15.38 Z" />
</g>
<g id="#feffffff">
<path fill="#feffff" opacity="1.00" d=" M 43.39 15.38 C 43.83 15.26 44.70 15.00 45.13 14.88 C 44.59 19.58 42.72 24.09 39.77 27.79 C 37.85 30.28 35.24 32.46 34.60 35.69 C 33.67 38.76 34.54 41.92 35.05 44.97 C 31.08 43.59 31.97 38.51 32.53 35.29 C 30.01 37.29 26.78 37.36 24.18 35.48 C 25.59 39.80 25.64 47.55 19.69 48.05 C 20.71 46.31 21.87 44.64 22.68 42.79 C 23.46 38.55 21.98 34.04 19.08 30.89 C 15.24 26.50 12.30 21.31 10.76 15.67 C 12.93 15.19 13.24 17.64 14.03 18.97 C 16.73 25.78 21.51 31.78 27.93 35.41 C 32.65 33.07 36.42 29.24 39.35 24.91 C 41.46 22.10 42.16 18.60 43.39 15.38 Z" />
</g>
<g id="#ccf0f7ff">
<path fill="#ccf0f7" opacity="1.00" d=" M 31.40 27.36 C 33.54 25.35 36.59 25.19 39.35 24.91 C 36.42 29.24 32.65 33.07 27.93 35.41 C 28.38 32.51 29.00 29.33 31.40 27.36 Z" />
</g>
</svg>
