<?xml version="1.0" encoding="UTF-8" ?>
<!DOCTYPE svg PUBLIC "-//W3C//DTD SVG 1.1//EN" "http://www.w3.org/Graphics/SVG/1.1/DTD/svg11.dtd">
<svg width="56pt" height="56pt" viewBox="0 0 56 56" version="1.1" xmlns="http://www.w3.org/2000/svg">
<g id="#fccb46ff">
<path fill="#fccb46" opacity="1.00" d=" M 24.20 5.30 C 31.66 4.66 40.30 5.54 45.71 11.30 C 51.35 17.48 51.44 26.54 50.53 34.37 C 49.61 41.69 44.31 48.39 36.94 49.96 C 29.67 51.55 21.56 51.60 14.77 48.20 C 8.73 45.07 5.83 38.22 5.32 31.73 C 4.76 24.74 5.54 16.89 10.40 11.44 C 13.83 7.46 19.15 5.88 24.20 5.30 M 15.79 18.74 C 13.65 23.91 13.84 29.67 14.27 35.15 C 14.56 37.47 14.52 40.28 16.84 41.62 C 16.65 36.38 15.55 31.16 16.11 25.91 C 16.32 22.22 18.04 18.90 19.17 15.45 C 17.88 16.34 16.30 17.12 15.79 18.74 M 37.90 15.46 C 38.95 19.29 40.48 23.05 40.71 27.05 C 41.09 31.95 40.18 36.82 39.92 41.70 C 41.15 40.87 42.28 39.81 42.33 38.22 C 43.34 31.56 43.56 24.42 40.90 18.10 C 40.43 16.74 38.96 16.23 37.90 15.46 M 20.46 22.54 C 21.92 25.93 25.18 27.85 27.57 30.47 C 28.26 32.49 27.95 34.74 28.13 36.85 C 28.60 36.84 29.53 36.82 29.99 36.81 C 30.00 34.49 30.00 32.17 30.02 29.85 C 32.47 27.95 34.89 25.94 36.73 23.40 C 33.61 24.09 31.28 26.29 28.71 27.99 C 25.82 26.39 23.56 23.82 20.46 22.54 Z" />
</g>
<g id="#fffefbff">
<path fill="#fffefb" opacity="1.00" d=" M 15.79 18.74 C 16.30 17.12 17.88 16.34 19.17 15.45 C 18.04 18.90 16.32 22.22 16.11 25.91 C 15.55 31.16 16.65 36.38 16.84 41.62 C 14.52 40.28 14.56 37.47 14.27 35.15 C 13.84 29.67 13.65 23.91 15.79 18.74 Z" />
<path fill="#fffefb" opacity="1.00" d=" M 37.90 15.46 C 38.96 16.23 40.43 16.74 40.90 18.10 C 43.56 24.42 43.34 31.56 42.33 38.22 C 42.28 39.81 41.15 40.87 39.92 41.70 C 40.18 36.82 41.09 31.95 40.71 27.05 C 40.48 23.05 38.95 19.29 37.90 15.46 Z" />
<path fill="#fffefb" opacity="1.00" d=" M 20.46 22.54 C 23.56 23.82 25.82 26.39 28.71 27.99 C 31.28 26.29 33.61 24.09 36.73 23.40 C 34.89 25.94 32.47 27.95 30.02 29.85 C 30.00 32.17 30.00 34.49 29.99 36.81 C 29.53 36.82 28.60 36.84 28.13 36.85 C 27.95 34.74 28.26 32.49 27.57 30.47 C 25.18 27.85 21.92 25.93 20.46 22.54 Z" />
</g>
</svg>
