<?xml version="1.0" encoding="UTF-8" ?>
<!DOCTYPE svg PUBLIC "-//W3C//DTD SVG 1.1//EN" "http://www.w3.org/Graphics/SVG/1.1/DTD/svg11.dtd">
<svg width="56pt" height="56pt" viewBox="0 0 56 56" version="1.1" xmlns="http://www.w3.org/2000/svg">
<g id="#80daeaff">
<path fill="#80daea" opacity="1.00" d=" M 24.26 5.30 C 31.93 4.63 40.93 5.63 46.22 11.88 C 50.93 17.45 51.26 25.20 50.80 32.14 C 50.37 38.61 47.23 45.35 41.20 48.34 C 35.20 51.37 28.19 51.28 21.68 50.51 C 15.12 49.61 8.99 45.26 6.88 38.85 C 4.34 31.13 4.41 22.27 7.97 14.88 C 11.00 8.80 17.77 5.83 24.26 5.30 M 10.58 25.61 C 8.28 31.43 12.69 38.64 19.01 38.95 C 22.92 39.55 26.01 36.83 28.48 34.20 C 30.81 36.53 33.47 39.18 37.05 38.99 C 43.44 39.30 48.58 32.35 46.64 26.30 C 45.50 21.80 40.04 17.29 35.48 20.06 C 38.68 21.31 42.87 21.98 44.26 25.64 C 47.00 30.94 42.06 38.04 36.08 36.91 C 32.04 36.52 30.20 32.49 28.50 29.37 C 26.80 32.49 24.98 36.48 20.97 36.90 C 14.99 38.07 10.00 30.98 12.72 25.66 C 14.08 21.97 18.31 21.31 21.51 20.07 C 17.22 17.37 12.00 21.45 10.58 25.61 M 17.48 29.57 C 15.87 29.67 18.07 33.36 18.90 31.82 C 21.57 31.48 18.93 27.30 17.48 29.57 M 38.21 29.49 C 36.90 32.21 41.30 32.91 41.14 30.05 C 40.34 28.85 39.37 28.66 38.21 29.49 Z" />
</g>
<g id="#feffffff">
<path fill="#feffff" opacity="1.00" d=" M 10.58 25.61 C 12.00 21.45 17.22 17.37 21.51 20.07 C 18.31 21.31 14.08 21.97 12.72 25.66 C 10.00 30.98 14.99 38.07 20.97 36.90 C 24.98 36.48 26.80 32.49 28.50 29.37 C 30.20 32.49 32.04 36.52 36.08 36.91 C 42.06 38.04 47.00 30.94 44.26 25.64 C 42.87 21.98 38.68 21.31 35.48 20.06 C 40.04 17.29 45.50 21.80 46.64 26.30 C 48.58 32.35 43.44 39.30 37.05 38.99 C 33.47 39.18 30.81 36.53 28.48 34.20 C 26.01 36.83 22.92 39.55 19.01 38.95 C 12.69 38.64 8.28 31.43 10.58 25.61 Z" />
<path fill="#feffff" opacity="1.00" d=" M 17.48 29.57 C 18.93 27.30 21.57 31.48 18.90 31.82 C 18.07 33.36 15.87 29.67 17.48 29.57 Z" />
<path fill="#feffff" opacity="1.00" d=" M 38.21 29.49 C 39.37 28.66 40.34 28.85 41.14 30.05 C 41.30 32.91 36.90 32.21 38.21 29.49 Z" />
</g>
</svg>
