<?xml version="1.0" encoding="UTF-8" ?>
<!DOCTYPE svg PUBLIC "-//W3C//DTD SVG 1.1//EN" "http://www.w3.org/Graphics/SVG/1.1/DTD/svg11.dtd">
<svg width="56pt" height="56pt" viewBox="0 0 56 56" version="1.1" xmlns="http://www.w3.org/2000/svg">
<g id="#9ed969ff">
<path fill="#9ed969" opacity="1.00" d=" M 25.22 5.20 C 32.60 4.76 41.15 5.86 46.20 11.86 C 51.33 18.00 51.39 26.60 50.57 34.14 C 49.71 41.53 44.41 48.35 36.98 49.95 C 29.69 51.55 21.56 51.61 14.76 48.19 C 8.71 45.05 5.82 38.19 5.31 31.69 C 4.77 24.68 5.55 16.82 10.45 11.38 C 14.13 7.18 19.86 5.68 25.22 5.20 M 16.75 13.68 C 17.30 17.00 18.17 20.25 18.84 23.55 C 15.78 24.44 11.27 25.86 11.94 29.96 C 12.37 32.00 14.00 36.10 16.63 34.14 C 15.71 32.53 14.44 31.04 14.06 29.19 C 14.54 26.95 17.15 26.64 18.90 25.84 C 18.82 31.48 15.96 36.28 13.65 41.22 C 16.14 41.42 17.31 39.12 18.28 37.25 C 21.78 30.65 21.93 22.54 19.36 15.60 C 18.97 14.40 18.10 13.76 16.75 13.68 M 37.66 15.83 C 34.83 24.03 35.30 33.55 39.94 41.01 C 40.56 42.41 41.83 43.18 43.35 43.23 C 41.04 38.08 38.19 33.06 37.99 27.24 C 39.39 28.10 40.79 28.94 42.19 29.80 C 40.92 31.05 39.11 32.34 40.06 34.39 C 41.44 33.33 43.14 32.49 43.97 30.89 C 44.75 27.33 40.41 26.22 38.05 24.80 C 38.52 21.03 39.64 17.38 40.21 13.63 C 38.85 13.83 38.00 14.56 37.66 15.83 M 28.18 30.16 C 27.64 31.78 28.19 32.34 29.82 31.84 C 30.36 30.22 29.81 29.66 28.18 30.16 Z" />
</g>
<g id="#e9f6ddff">
<path fill="#e9f6dd" opacity="1.00" d=" M 16.75 13.68 C 18.10 13.76 18.97 14.40 19.36 15.60 C 21.93 22.54 21.78 30.65 18.28 37.25 C 17.31 39.12 16.14 41.42 13.65 41.22 C 15.96 36.28 18.82 31.48 18.90 25.84 C 17.15 26.64 14.54 26.95 14.06 29.19 C 14.44 31.04 15.71 32.53 16.63 34.14 C 14.00 36.10 12.37 32.00 11.94 29.96 C 11.27 25.86 15.78 24.44 18.84 23.55 C 18.17 20.25 17.30 17.00 16.75 13.68 Z" />
<path fill="#e9f6dd" opacity="1.00" d=" M 37.66 15.83 C 38.00 14.56 38.85 13.83 40.21 13.63 C 39.64 17.38 38.52 21.03 38.05 24.80 C 40.41 26.22 44.75 27.33 43.97 30.89 C 43.14 32.49 41.44 33.33 40.06 34.39 C 39.11 32.34 40.92 31.05 42.19 29.80 C 40.79 28.94 39.39 28.10 37.99 27.24 C 38.19 33.06 41.04 38.08 43.35 43.23 C 41.83 43.18 40.56 42.41 39.94 41.01 C 35.30 33.55 34.83 24.03 37.66 15.83 Z" />
<path fill="#e9f6dd" opacity="1.00" d=" M 28.18 30.16 C 29.81 29.66 30.36 30.22 29.82 31.84 C 28.19 32.34 27.64 31.78 28.18 30.16 Z" />
</g>
</svg>
