<?xml version="1.0" encoding="UTF-8" ?>
<!DOCTYPE svg PUBLIC "-//W3C//DTD SVG 1.1//EN" "http://www.w3.org/Graphics/SVG/1.1/DTD/svg11.dtd">
<svg width="56pt" height="56pt" viewBox="0 0 56 56" version="1.1" xmlns="http://www.w3.org/2000/svg">
<g id="#fccb46ff">
<path fill="#fccb46" opacity="1.00" d=" M 24.18 5.30 C 31.64 4.66 40.29 5.53 45.71 11.30 C 50.60 16.56 51.27 24.20 50.86 31.04 C 50.67 37.63 47.83 44.68 41.82 47.99 C 35.72 51.40 28.38 51.30 21.64 50.50 C 15.08 49.59 8.97 45.23 6.86 38.81 C 4.34 31.08 4.40 22.21 8.00 14.83 C 11.02 8.80 17.74 5.86 24.18 5.30 M 8.93 26.76 C 9.32 27.05 10.11 27.65 10.51 27.95 C 15.21 22.64 21.51 17.54 29.03 18.01 C 35.61 18.09 41.42 21.82 45.71 26.55 C 46.27 27.99 48.77 26.69 47.37 25.52 C 42.10 18.94 33.38 14.76 24.88 16.27 C 18.39 17.43 13.14 21.92 8.93 26.76 M 10.86 30.98 C 15.24 36.02 20.93 40.86 27.96 40.99 C 35.32 41.17 41.56 36.34 46.13 31.02 C 41.59 26.35 35.83 22.05 29.02 22.02 C 21.89 21.81 15.63 26.06 10.86 30.98 Z" />
<path fill="#fccb46" opacity="1.00" d=" M 13.56 31.05 C 17.82 27.21 23.07 23.80 29.04 24.00 C 34.66 24.06 39.44 27.45 43.44 31.07 C 39.36 35.28 34.10 39.21 27.95 38.99 C 22.14 38.89 17.42 35.00 13.56 31.05 M 27.20 25.29 C 22.99 26.40 21.54 32.36 24.78 35.27 C 27.72 38.43 33.62 36.97 34.73 32.80 C 36.36 28.41 31.57 23.66 27.20 25.29 Z" />
</g>
<g id="#fffefcff">
<path fill="#fffefc" opacity="1.00" d=" M 8.93 26.76 C 13.14 21.92 18.39 17.43 24.88 16.27 C 33.38 14.76 42.10 18.94 47.37 25.52 C 48.77 26.69 46.27 27.99 45.71 26.55 C 41.42 21.82 35.61 18.09 29.03 18.01 C 21.51 17.54 15.21 22.64 10.51 27.95 C 10.11 27.65 9.32 27.05 8.93 26.76 Z" />
<path fill="#fffefc" opacity="1.00" d=" M 10.86 30.98 C 15.63 26.06 21.89 21.81 29.02 22.02 C 35.83 22.05 41.59 26.35 46.13 31.02 C 41.56 36.34 35.32 41.17 27.96 40.99 C 20.93 40.86 15.24 36.02 10.86 30.98 M 13.56 31.05 C 17.42 35.00 22.14 38.89 27.95 38.99 C 34.10 39.21 39.36 35.28 43.44 31.07 C 39.44 27.45 34.66 24.06 29.04 24.00 C 23.07 23.80 17.82 27.21 13.56 31.05 Z" />
<path fill="#fffefc" opacity="1.00" d=" M 27.20 25.29 C 31.57 23.66 36.36 28.41 34.73 32.80 C 33.62 36.97 27.72 38.43 24.78 35.27 C 21.54 32.36 22.99 26.40 27.20 25.29 M 27.32 27.40 C 24.63 28.57 24.24 32.65 26.73 34.25 C 29.15 36.26 33.08 34.06 32.97 31.02 C 33.06 28.27 29.80 26.01 27.32 27.40 Z" />
</g>
<g id="#feeab5ff">
<path fill="#feeab5" opacity="1.00" d=" M 27.32 27.40 C 29.80 26.01 33.06 28.27 32.97 31.02 C 33.08 34.06 29.15 36.26 26.73 34.25 C 24.24 32.65 24.63 28.57 27.32 27.40 Z" />
</g>
</svg>
