<?xml version="1.0" encoding="UTF-8" ?>
<!DOCTYPE svg PUBLIC "-//W3C//DTD SVG 1.1//EN" "http://www.w3.org/Graphics/SVG/1.1/DTD/svg11.dtd">
<svg width="56pt" height="56pt" viewBox="0 0 56 56" version="1.1" xmlns="http://www.w3.org/2000/svg">
<g id="#ae93e5ff">
<path fill="#ae93e5" opacity="1.00" d=" M 24.24 5.30 C 31.90 4.63 40.88 5.62 46.18 11.83 C 51.37 18.04 51.41 26.75 50.53 34.37 C 49.61 41.65 44.36 48.34 37.03 49.93 C 29.75 51.55 21.63 51.61 14.82 48.23 C 8.76 45.11 5.84 38.27 5.32 31.77 C 4.76 24.78 5.52 16.93 10.37 11.47 C 13.81 7.46 19.16 5.87 24.24 5.30 M 29.96 10.70 C 29.88 13.11 32.25 14.00 33.89 15.16 C 33.36 15.87 32.81 16.58 32.26 17.29 C 28.46 15.40 24.78 13.26 20.79 11.79 C 21.07 13.92 23.05 14.87 24.62 15.95 C 21.54 21.38 17.90 26.51 15.20 32.14 C 14.23 35.24 18.08 36.45 20.06 37.84 C 18.77 40.20 17.56 42.61 16.70 45.16 C 19.73 44.54 20.31 41.07 21.76 38.82 C 24.07 39.91 27.49 42.46 29.54 39.59 C 32.88 34.72 35.59 29.45 38.70 24.44 C 40.19 25.04 41.67 25.68 43.19 26.23 C 41.77 22.29 37.23 20.80 34.24 18.23 C 34.56 17.75 35.21 16.79 35.54 16.32 C 37.10 16.99 38.69 17.60 40.29 18.19 C 38.68 13.89 33.74 12.52 29.96 10.70 Z" />
<path fill="#ae93e5" opacity="1.00" d=" M 26.35 16.96 C 29.98 18.94 33.52 21.08 37.05 23.24 C 36.17 24.76 35.28 26.27 34.40 27.78 C 32.87 26.83 31.34 25.87 29.80 24.92 C 28.03 27.34 31.89 28.27 33.20 29.60 C 32.72 30.50 32.25 31.41 31.78 32.32 C 30.50 31.56 29.23 30.80 27.95 30.04 C 27.71 30.46 27.23 31.31 26.99 31.73 C 28.21 32.55 29.42 33.36 30.63 34.18 C 29.53 35.94 28.38 37.68 27.16 39.36 C 23.59 37.43 19.95 35.62 16.68 33.19 C 19.88 27.76 23.11 22.36 26.35 16.96 Z" />
</g>
<g id="#ffffffff">
<path fill="#ffffff" opacity="1.00" d=" M 29.96 10.70 C 33.74 12.52 38.68 13.89 40.29 18.19 C 38.69 17.60 37.10 16.99 35.54 16.32 C 35.21 16.79 34.56 17.75 34.24 18.23 C 37.23 20.80 41.77 22.29 43.19 26.23 C 41.67 25.68 40.19 25.04 38.70 24.44 C 35.59 29.45 32.88 34.72 29.54 39.59 C 27.49 42.46 24.07 39.91 21.76 38.82 C 20.31 41.07 19.73 44.54 16.70 45.16 C 17.56 42.61 18.77 40.20 20.06 37.84 C 18.08 36.45 14.23 35.24 15.20 32.14 C 17.90 26.51 21.54 21.38 24.62 15.95 C 23.05 14.87 21.07 13.92 20.79 11.79 C 24.78 13.26 28.46 15.40 32.26 17.29 C 32.81 16.58 33.36 15.87 33.89 15.16 C 32.25 14.00 29.88 13.11 29.96 10.70 M 26.35 16.96 C 23.11 22.36 19.88 27.76 16.68 33.19 C 19.95 35.62 23.59 37.43 27.16 39.36 C 28.38 37.68 29.53 35.94 30.63 34.18 C 29.42 33.36 28.21 32.55 26.99 31.73 C 27.23 31.31 27.71 30.46 27.95 30.04 C 29.23 30.80 30.50 31.56 31.78 32.32 C 32.25 31.41 32.72 30.50 33.20 29.60 C 31.89 28.27 28.03 27.34 29.80 24.92 C 31.34 25.87 32.87 26.83 34.40 27.78 C 35.28 26.27 36.17 24.76 37.05 23.24 C 33.52 21.08 29.98 18.94 26.35 16.96 Z" />
</g>
</svg>
